<?xml version="1.0" encoding="UTF-8"?> <svg xmlns="http://www.w3.org/2000/svg" width="24" height="24" viewBox="0 0 24 24" fill="none"><g clip-path="url(#clip0_31_381)"><path d="M9 24.0061H1C0.734784 24.0061 0.48043 23.9007 0.292893 23.7132C0.105357 23.5257 0 23.2713 0 23.0061C0 22.7409 0.105357 22.4865 0.292893 22.299C0.48043 22.1115 0.734784 22.0061 1 22.0061H9C9.26522 22.0061 9.51957 22.1115 9.70711 22.299C9.89464 22.4865 10 22.7409 10 23.0061C10 23.2713 9.89464 23.5257 9.70711 23.7132C9.51957 23.9007 9.26522 24.0061 9 24.0061ZM7 20.0061H1C0.734784 20.0061 0.48043 19.9007 0.292893 19.7132C0.105357 19.5257 0 19.2713 0 19.0061C0 18.7409 0.105357 18.4865 0.292893 18.299C0.48043 18.1115 0.734784 18.0061 1 18.0061H7C7.26522 18.0061 7.51957 18.1115 7.70711 18.299C7.89464 18.4865 8 18.7409 8 19.0061C8 19.2713 7.89464 19.5257 7.70711 19.7132C7.51957 19.9007 7.26522 20.0061 7 20.0061ZM5 16.0061H1C0.734784 16.0061 0.48043 15.9007 0.292893 15.7132C0.105357 15.5257 0 15.2713 0 15.0061C0 14.7409 0.105357 14.4865 0.292893 14.299C0.48043 14.1115 0.734784 14.0061 1 14.0061H5C5.26522 14.0061 5.51957 14.1115 5.70711 14.299C5.89464 14.4865 6 14.7409 6 15.0061C6 15.2713 5.89464 15.5257 5.70711 15.7132C5.51957 15.9007 5.26522 16.0061 5 16.0061Z" fill="#FE6A08"></path><path d="M13.0009 23.9619C12.8696 23.9679 12.7384 23.9478 12.6148 23.903C12.4912 23.8583 12.3777 23.7896 12.2806 23.7009C12.0847 23.5218 11.9679 23.2722 11.9559 23.0069C11.95 22.8756 11.97 22.7444 12.0148 22.6208C12.0596 22.4973 12.1283 22.3837 12.217 22.2867C12.3057 22.1896 12.4126 22.111 12.5317 22.0553C12.6507 21.9996 12.7796 21.9679 12.9109 21.9619C14.8035 21.7892 16.6077 21.0807 18.1121 19.9194C19.6165 18.7582 20.7589 17.1923 21.4054 15.4052C22.0519 13.6181 22.1757 11.6837 21.7625 9.82874C21.3492 7.97376 20.4159 6.27496 19.0719 4.93132C17.7279 3.58768 16.0288 2.65484 14.1737 2.24207C12.3186 1.82931 10.3843 1.95371 8.59737 2.6007C6.81043 3.24769 5.24486 4.39049 4.08403 5.89522C2.92321 7.39995 2.2152 9.20431 2.04294 11.0969C2.01907 11.3611 1.89124 11.605 1.68757 11.7749C1.48391 11.9448 1.22109 12.0268 0.956936 12.0029C0.69278 11.9791 0.448926 11.8512 0.279018 11.6476C0.10911 11.4439 0.0270663 11.1811 0.0509358 10.9169C0.33248 7.84241 1.7882 4.99468 4.11543 2.96587C6.44265 0.937057 9.4623 -0.116717 12.5465 0.02365C15.6307 0.164017 18.5422 1.48772 20.6755 3.71954C22.8088 5.95136 23.9998 8.91954 24.0009 12.0069C24.0162 15.0052 22.9023 17.8993 20.8808 20.1136C18.8592 22.3278 16.0782 23.6999 13.0909 23.9569C13.061 23.9601 13.031 23.9618 13.0009 23.9619Z" fill="#FE6A08"></path><path d="M12 6.00708C11.7348 6.00708 11.4804 6.11244 11.2929 6.29997C11.1054 6.48751 11 6.74186 11 7.00708V12.0071C11.0001 12.2723 11.1055 12.5266 11.293 12.7141L14.293 15.7141C14.4816 15.8962 14.7342 15.997 14.9964 15.9948C15.2586 15.9925 15.5094 15.8873 15.6948 15.7019C15.8802 15.5165 15.9854 15.2657 15.9877 15.0035C15.99 14.7413 15.8892 14.4887 15.707 14.3001L13 11.5931V7.00708C13 6.74186 12.8946 6.48751 12.7071 6.29997C12.5196 6.11244 12.2652 6.00708 12 6.00708Z" fill="#FE6A08"></path></g><defs><clipPath id="clip0_31_381"><rect width="24" height="24" fill="white"></rect></clipPath></defs></svg> 