<?xml version="1.0" encoding="UTF-8"?> <svg xmlns="http://www.w3.org/2000/svg" width="26" height="26" viewBox="0 0 26 26" fill="none"><path fill-rule="evenodd" clip-rule="evenodd" d="M13.9989 4.38608L12.6394 5.74538C12.5659 5.74413 12.4919 5.74538 12.418 5.74812C11.3989 5.79071 10.444 6.25817 9.78506 7.03644L9.52829 7.34003C9.5263 7.34252 9.52431 7.34451 9.52231 7.347L2.41057 15.7519C1.7643 16.5157 1.63006 17.5512 1.98968 18.4259L0.355946 20.7134C-0.186973 21.4735 -0.100804 22.5145 0.559665 23.1752C1.22661 23.8419 2.15804 24.7733 2.82523 25.4403C3.4857 26.1008 4.52671 26.1869 5.2868 25.6443L7.57378 24.0103C8.44918 24.3699 9.48446 24.2354 10.248 23.5896L18.6531 16.4776C18.6553 16.4756 18.6576 16.4736 18.6598 16.4718L18.9634 16.2148C19.7421 15.5563 20.2094 14.6013 20.2517 13.5817C20.2547 13.5077 20.2554 13.4345 20.2542 13.3605L21.6137 12.0012L21.9821 12.3698C22.3213 12.709 22.8712 12.709 23.2104 12.3698L24.9086 10.6713C25.0274 10.5527 25.1263 10.4155 25.2012 10.2651C25.3417 9.98466 25.6478 9.3725 25.8654 8.93717C26.1107 8.44605 26.0146 7.85381 25.6266 7.46555C25.0924 6.93134 24.2267 6.93134 23.6928 7.46555L23.0629 8.09539C22.8594 8.29886 22.5295 8.29886 22.326 8.09539L21.9577 7.72705L23.5543 6.13066C23.7575 5.92718 23.7575 5.59695 23.5543 5.39348C23.3508 5.19025 23.0206 5.19025 22.8174 5.39348L21.2207 6.98987L20.4838 6.25294L22.0804 4.65654C22.2837 4.45307 22.2837 4.12284 22.0804 3.91936C21.877 3.71614 21.5467 3.71614 21.3435 3.91936L19.7469 5.51601L19.01 4.77883L20.6066 3.18243C20.8098 2.97896 20.8098 2.64873 20.6066 2.4455C20.4031 2.24203 20.0731 2.24203 19.8697 2.4455L18.273 4.04264L17.9044 3.67405C17.701 3.47058 17.701 3.14034 17.9044 2.93687L18.5343 2.30703C18.7908 2.05076 18.9347 1.70259 18.9347 1.34048C18.9347 0.977867 18.7908 0.629699 18.5343 0.373429H18.534C18.1463 -0.0148354 17.5535 -0.11047 17.0629 0.134344C16.6276 0.35226 16.0154 0.65834 15.7348 0.798553C15.5846 0.873765 15.4474 0.972637 15.3286 1.09118C14.9996 1.42018 14.0754 2.34464 13.6303 2.78969C13.2914 3.12889 13.2914 3.67854 13.6303 4.01774L13.9989 4.38608ZM6.66153 23.3817L4.68087 24.7965C4.33544 25.0431 3.86226 25.0037 3.56216 24.7034C2.89496 24.0364 1.96353 23.105 1.29659 22.438C0.996242 22.1377 0.957142 21.6647 1.20395 21.3191L2.61852 19.3381L6.66153 23.3817ZM2.17722 21.8445L4.14243 23.81C4.34565 24.0135 4.67589 24.0135 4.87936 23.81C5.08258 23.6068 5.08258 23.2766 4.87936 23.0731L2.91414 21.1081C2.71092 20.9046 2.38069 20.9046 2.17722 21.1081C1.97399 21.3116 1.97399 21.6418 2.17722 21.8445ZM9.9554 8.44879L3.20627 16.4253C2.68103 17.0457 2.71914 17.9656 3.29418 18.5399L7.45972 22.7057C8.03477 23.281 8.95424 23.3192 9.57486 22.7939L17.551 16.0447L16.4042 14.8976C16.3384 14.8319 16.2343 14.8256 16.1609 14.8824C14.9712 15.8081 13.2789 15.7023 12.2133 14.6369C11.9338 14.3577 11.6424 14.0663 11.3633 13.7871C10.2976 12.7209 10.192 11.0289 11.1175 9.83922C11.1745 9.766 11.168 9.6614 11.1023 9.59565L9.9554 8.44879ZM7.27343 15.5332L6.35944 16.4469C6.06631 16.7401 5.90169 17.138 5.90169 17.5525C5.90169 17.9669 6.06631 18.3646 6.35944 18.658C6.67025 18.9685 7.03136 19.3299 7.34217 19.6405C7.6353 19.9339 8.03277 20.0982 8.44743 20.0982C8.86209 20.0982 9.25957 19.9339 9.5527 19.6405C9.84284 19.3503 10.1893 19.0042 10.5354 18.658C10.5588 18.6343 10.5798 18.6089 10.5977 18.5828L11.5114 17.669C11.8046 17.3759 11.9694 16.9779 11.9694 16.5635C11.9694 16.1491 11.8046 15.7514 11.5114 15.458C11.2009 15.1477 10.8398 14.7868 10.529 14.4755C10.2358 14.1824 9.8381 14.0177 9.42369 14.0177C9.00903 14.0177 8.61131 14.1824 8.31818 14.4755C8.02829 14.7656 7.68187 15.1118 7.33569 15.458C7.31228 15.4816 7.29136 15.507 7.27343 15.5332ZM7.71051 16.57L9.42992 18.2894L8.81602 18.9035C8.71815 19.0009 8.58565 19.0565 8.44743 19.0565C8.30921 19.0565 8.17672 19.0009 8.0791 18.9035C7.76829 18.593 7.40717 18.2314 7.09636 17.9211C6.99874 17.8234 6.9437 17.6907 6.9437 17.5525C6.9437 17.414 6.99874 17.2815 7.09636 17.1839L7.71051 16.57ZM10.1606 17.546L8.44096 15.8266L9.0551 15.2127C9.15298 15.115 9.28547 15.0602 9.42369 15.0602C9.56191 15.0602 9.6944 15.115 9.79203 15.2127C10.1028 15.523 10.4637 15.8846 10.7745 16.1952C10.8724 16.2925 10.9272 16.4253 10.9272 16.5635C10.9272 16.702 10.8724 16.8345 10.7745 16.9321L10.1606 17.546ZM18.3487 15.3681C18.8697 14.9001 19.1813 14.2409 19.2104 13.5383C19.2406 12.8109 18.9646 12.1033 18.4496 11.588C17.1957 10.3341 15.6658 8.80443 14.4118 7.55047C13.8965 7.0352 13.1893 6.75925 12.4613 6.78988C11.7592 6.81852 11.1 7.13033 10.6316 7.65109L11.8392 8.85872C12.2765 9.29605 12.3198 9.99039 11.94 10.4788C11.3374 11.2533 11.4061 12.3556 12.0999 13.0499C12.3794 13.3291 12.6707 13.6205 12.9499 13.8999C13.644 14.5943 14.7463 14.6623 15.5211 14.0598C16.0092 13.6798 16.7038 13.7234 17.1411 14.1607L18.3487 15.3681ZM15.5955 10.4048C14.9854 9.79464 13.9949 9.79464 13.3848 10.4048C12.7746 11.0142 12.7746 12.0049 13.3848 12.6151C13.9949 13.2253 14.9854 13.2253 15.5955 12.6151C16.2057 12.0049 16.2057 11.0142 15.5955 10.4048ZM13.8731 5.98571C14.3466 6.16677 14.7824 6.4467 15.1487 6.81329C16.4027 8.0675 17.9326 9.5969 19.1865 10.8511C19.5529 11.2177 19.8328 11.653 20.0139 12.1267L20.8768 11.2643L14.7358 5.12326L13.8731 5.98571ZM14.8586 11.1412C15.0618 11.3445 15.0618 11.6747 14.8586 11.8782C14.6551 12.0816 14.3252 12.0816 14.1217 11.8782C13.9185 11.6747 13.9185 11.3445 14.1217 11.1412C14.3252 10.9378 14.6551 10.9378 14.8586 11.1412ZM21.5891 8.83257L17.1675 4.41098C16.5571 3.80032 16.5571 2.81086 17.1675 2.19994L17.7973 1.5701C17.8584 1.50958 17.8927 1.42665 17.8927 1.34048C17.8927 1.25381 17.8584 1.17088 17.7973 1.11036C17.7266 1.03963 17.6185 1.0217 17.5291 1.06628L16.201 1.73074C16.1509 1.75564 16.1051 1.78877 16.0655 1.82836L14.4903 3.40359L22.5962 11.5096L24.1714 9.93411C24.211 9.89476 24.2441 9.84868 24.269 9.79912L24.9332 8.47095C24.9778 8.38105 24.9604 8.27346 24.8897 8.20273C24.7627 8.07571 24.5567 8.07571 24.4297 8.20273L23.7998 8.83257C23.1894 9.44274 22.1995 9.44274 21.5891 8.83257Z" fill="#666666" fill-opacity="0.15"></path></svg> 