<?xml version="1.0" encoding="UTF-8"?> <svg xmlns="http://www.w3.org/2000/svg" width="330" height="165" viewBox="0 0 330 165" fill="none"><rect width="330" height="165" fill="white"></rect><path d="M221.054 90.1622C221.119 89.5663 221.157 88.9644 221.157 88.355C221.157 79.1291 213.487 71.6544 204.024 71.6544C194.564 71.6544 186.895 79.1291 186.895 88.355C186.895 97.578 194.564 105.05 204.024 105.05C211.221 105.05 217.373 100.733 219.916 94.6007L212.531 93.311C210.895 96.2949 207.8 98.3049 204.262 98.3049C199.565 98.3049 195.676 94.784 194.894 90.162L221.054 90.1622ZM204.262 78.5855C208.272 78.5855 211.698 81.1597 213.096 84.8036H195.418C196.812 81.1599 200.245 78.5855 204.262 78.5855Z" fill="#005BAA"></path><path d="M182.29 72.354H173.541V104.45H182.29V72.354Z" fill="#005BAA"></path><path d="M177.918 59.2671C175.218 59.2671 173.037 61.4524 173.037 64.1333C173.037 66.81 175.218 68.9895 177.918 68.9895C180.608 68.9895 182.794 66.81 182.794 64.1333C182.794 61.4524 180.608 59.2671 177.918 59.2671Z" fill="#005BAA"></path><path d="M119.991 62.0632V79.3415H101.132V62.0632H91.5684V104.422H101.132V87.1425H119.991V104.422H129.563V62.0632H119.991Z" fill="#005BAA"></path><path d="M159.481 72.3688V74.091C156.938 72.5552 153.958 71.673 150.765 71.673C141.49 71.673 133.967 79.143 133.967 88.3616C133.967 97.5784 141.49 105.05 150.765 105.05C153.875 105.05 156.781 104.208 159.279 102.75V104.422H167.816V72.3688H159.481ZM151.191 98.0139C145.778 98.0139 141.402 93.6964 141.402 88.3654C141.402 83.0299 145.778 78.7091 151.191 78.7091C156.603 78.7091 160.986 83.0299 160.986 88.3654C160.986 93.6964 156.603 98.0139 151.191 98.0139Z" fill="#005BAA"></path><path d="M239.247 69.3732C231.19 70.7742 225.065 77.7612 224.971 86.188V104.45H233.348L233.352 85.8447C233.352 81.5854 236.56 78.0704 240.695 77.566L239.247 69.3732Z" fill="#005BAA"></path></svg> 