<?xml version="1.0" encoding="UTF-8"?> <svg xmlns="http://www.w3.org/2000/svg" width="60" height="34" viewBox="0 0 60 34" fill="none"><g clip-path="url(#clip0_34_87)"><path d="M53.3333 0H6.66667C2.98477 0 0 3.04446 0 6.8V27.2C0 30.9555 2.98477 34 6.66667 34H53.3333C57.0152 34 60 30.9555 60 27.2V6.8C60 3.04446 57.0152 0 53.3333 0Z" fill="white" fill-opacity="0.9"></path><mask id="mask0_34_87" style="mask-type:luminance" maskUnits="userSpaceOnUse" x="12" y="12" width="35" height="11"><path d="M46.5155 12.7517H12.916V22.0337H46.5155V12.7517Z" fill="white"></path></mask><g mask="url(#mask0_34_87)"><path fill-rule="evenodd" clip-rule="evenodd" d="M21.97 12.75V12.7541C21.9658 12.7541 20.6576 12.75 20.3087 13.97C19.9889 15.0888 19.0877 18.1773 19.0628 18.2624H18.8136C18.8136 18.2624 17.8915 15.1049 17.5676 13.966C17.2188 12.7459 15.9063 12.75 15.9063 12.75H12.916V22.032H15.9063V16.5196H16.0309H16.1555L17.8998 22.032H19.9764L21.7208 16.5236H21.97V22.032H24.9603V12.75H21.97Z" fill="#2B654B"></path><path fill-rule="evenodd" clip-rule="evenodd" d="M32.8912 12.75C32.8912 12.75 32.0148 12.827 31.6037 13.7228L29.4856 18.2624H29.2363V12.75H26.2461V22.032H29.0703C29.0703 22.032 29.9881 21.9509 30.3993 21.0592L32.4758 16.5196H32.7251V22.032H35.7153V12.75H32.8912Z" fill="#2B654B"></path><path fill-rule="evenodd" clip-rule="evenodd" d="M37.0469 16.9661V22.0326H40.0372V19.0737H43.2767C44.6888 19.0737 45.885 18.1941 46.3293 16.9661H37.0469Z" fill="#2B654B"></path><path fill-rule="evenodd" clip-rule="evenodd" d="M43.2743 12.75H36.625C36.9573 14.5172 38.3153 15.9359 40.0722 16.3979C40.4708 16.5033 40.8903 16.56 41.3223 16.56H46.4473C46.493 16.3493 46.5138 16.1344 46.5138 15.9116C46.5138 14.1646 45.0643 12.75 43.2743 12.75Z" fill="url(#paint0_linear_34_87)"></path></g></g><defs><linearGradient id="paint0_linear_34_87" x1="36.6258" y1="14.655" x2="46.5138" y2="14.655" gradientUnits="userSpaceOnUse"><stop offset="0.3" stop-color="#00B4E6"></stop><stop offset="1" stop-color="#088CCB"></stop></linearGradient><clipPath id="clip0_34_87"><rect width="60" height="34" fill="white"></rect></clipPath></defs></svg> 