<?xml version="1.0" encoding="UTF-8"?> <svg xmlns="http://www.w3.org/2000/svg" width="30" height="30" viewBox="0 0 30 30" fill="none"><path fill-rule="evenodd" clip-rule="evenodd" d="M11.5088 8.20251C13.162 6.7408 15.2933 5.93507 17.5001 5.93751C22.5013 5.93751 26.5626 9.99876 26.5626 15C26.5626 20.0013 22.5013 24.0625 17.5001 24.0625C15.2933 24.0649 13.162 23.2592 11.5088 21.7975C11.3218 21.6376 11.0795 21.5576 10.834 21.5747C10.5886 21.5919 10.3597 21.7048 10.1968 21.8892C10.0339 22.0736 9.95004 22.3147 9.96327 22.5604C9.97651 22.806 10.0858 23.0367 10.2676 23.2025C12.2629 24.9679 14.8359 25.9409 17.5001 25.9375C23.5363 25.9375 28.4376 21.0363 28.4376 15C28.4376 8.96376 23.5363 4.06251 17.5001 4.06251C14.8359 4.05912 12.2629 5.03213 10.2676 6.79751C10.173 6.87836 10.0956 6.9772 10.0396 7.08829C9.98368 7.19937 9.95041 7.32048 9.94174 7.44455C9.93306 7.56862 9.94916 7.69318 9.9891 7.81097C10.029 7.92876 10.092 8.03743 10.1744 8.13064C10.2567 8.22385 10.3568 8.29974 10.4687 8.3539C10.5807 8.40805 10.7023 8.43939 10.8265 8.44607C10.9507 8.45276 11.075 8.43467 11.1921 8.39286C11.3093 8.35104 11.4169 8.28634 11.5088 8.20251Z" fill="#FE6A08"></path><path fill-rule="evenodd" clip-rule="evenodd" d="M16.0625 9.5V14.5C16.0625 14.7488 16.1612 14.9875 16.3375 15.1625L20.3375 19.1625C20.5132 19.3382 20.7515 19.4369 21 19.4369C21.2485 19.4369 21.4868 19.3382 21.6625 19.1625C21.8382 18.9868 21.9369 18.7485 21.9369 18.5C21.9369 18.2515 21.8382 18.0132 21.6625 17.8375L17.9375 14.1112V9.5C17.9375 9.25136 17.8387 9.0129 17.6629 8.83709C17.4871 8.66127 17.2486 8.5625 17 8.5625C16.7514 8.5625 16.5129 8.66127 16.3371 8.83709C16.1613 9.0129 16.0625 9.25136 16.0625 9.5ZM2.5 11.5625H10C10.2486 11.5625 10.4871 11.4637 10.6629 11.2879C10.8387 11.1121 10.9375 10.8736 10.9375 10.625C10.9375 10.3764 10.8387 10.1379 10.6629 9.96209C10.4871 9.78627 10.2486 9.6875 10 9.6875H2.5C2.25136 9.6875 2.0129 9.78627 1.83709 9.96209C1.66127 10.1379 1.5625 10.3764 1.5625 10.625C1.5625 10.8736 1.66127 11.1121 1.83709 11.2879C2.0129 11.4637 2.25136 11.5625 2.5 11.5625ZM3.75 15.9375H11.25C11.4986 15.9375 11.7371 15.8387 11.9129 15.6629C12.0887 15.4871 12.1875 15.2486 12.1875 15C12.1875 14.7514 12.0887 14.5129 11.9129 14.3371C11.7371 14.1613 11.4986 14.0625 11.25 14.0625H3.75C3.50136 14.0625 3.2629 14.1613 3.08709 14.3371C2.91127 14.5129 2.8125 14.7514 2.8125 15C2.8125 15.2486 2.91127 15.4871 3.08709 15.6629C3.2629 15.8387 3.50136 15.9375 3.75 15.9375ZM5 20.3125H12.5C12.7486 20.3125 12.9871 20.2137 13.1629 20.0379C13.3387 19.8621 13.4375 19.6236 13.4375 19.375C13.4375 19.1264 13.3387 18.8879 13.1629 18.7121C12.9871 18.5363 12.7486 18.4375 12.5 18.4375H5C4.75136 18.4375 4.5129 18.5363 4.33709 18.7121C4.16127 18.8879 4.0625 19.1264 4.0625 19.375C4.0625 19.6236 4.16127 19.8621 4.33709 20.0379C4.5129 20.2137 4.75136 20.3125 5 20.3125Z" fill="#FE6A08"></path></svg> 