<?xml version="1.0" encoding="UTF-8"?> <svg xmlns="http://www.w3.org/2000/svg" width="24" height="24" viewBox="0 0 24 24" fill="none"><g clip-path="url(#clip0_31_409)"><path d="M10.0191 0.289795C4.57616 0.289795 0.142578 4.6693 0.142578 10.0459C0.142578 15.4225 4.57616 19.802 10.0191 19.802C12.386 19.802 14.5597 18.9717 16.2633 17.5935L22.1603 23.4186C22.2513 23.5122 22.3603 23.587 22.481 23.6385C22.6016 23.69 22.7314 23.7172 22.8628 23.7185C22.9942 23.7198 23.1245 23.6952 23.2462 23.6462C23.3678 23.5971 23.4784 23.5246 23.5713 23.4328C23.6642 23.341 23.7376 23.2318 23.7873 23.1117C23.837 22.9915 23.8619 22.8627 23.8605 22.7329C23.8592 22.6031 23.8317 22.4749 23.7795 22.3558C23.7274 22.2366 23.6517 22.1289 23.5569 22.039L17.6599 16.214C19.0552 14.5311 19.8957 12.3839 19.8957 10.0459C19.8957 4.6693 15.4621 0.289795 10.0191 0.289795ZM10.0191 2.24101C14.3946 2.24101 17.9204 5.72382 17.9204 10.0459C17.9204 14.368 14.3946 17.8508 10.0191 17.8508C5.64369 17.8508 2.11789 14.368 2.11789 10.0459C2.11789 5.72382 5.64369 2.24101 10.0191 2.24101Z" fill="#FE6A08"></path></g><defs><clipPath id="clip0_31_409"><rect width="24" height="24" fill="white"></rect></clipPath></defs></svg> 