<?xml version="1.0" encoding="UTF-8"?> <svg xmlns="http://www.w3.org/2000/svg" width="35" height="42" viewBox="0 0 35 42" fill="none"><path fill-rule="evenodd" clip-rule="evenodd" d="M12.5151 32.3831V35.2632H10.0621C7.97776 35.2632 6.15856 36.6377 5.64172 38.6008L5.23304 40.1556C5.11572 40.5975 5.21647 41.0674 5.50564 41.4292C5.7935 41.7896 6.23664 42 6.70594 42H27.9816C28.4517 42 28.8953 41.7896 29.1832 41.4292C29.4715 41.0674 29.5718 40.5975 29.4558 40.1556L29.0458 38.6008C28.5298 36.6377 26.7102 35.2632 24.6254 35.2632H22.1724V32.3831C29.2054 30.358 34.3437 24.0232 34.3437 16.5298C34.3437 7.4065 26.7267 0 17.3442 0C7.96075 0 0.34375 7.4065 0.34375 16.5298C0.34375 24.0232 5.48209 30.358 12.5151 32.3831ZM10.0621 37.0384H24.6254C25.8758 37.0384 26.9679 37.8625 27.2785 39.0415L27.5899 40.226H7.0976L7.41033 39.0415C7.71956 37.8625 8.81169 37.0384 10.0621 37.0384ZM14.3408 32.8021V35.2632H20.3467V32.8021C19.3719 32.9713 18.3683 33.0604 17.3442 33.0604C16.3192 33.0604 15.3156 32.9713 14.3408 32.8021ZM17.3442 1.77401C25.7197 1.77401 32.5184 8.38575 32.5184 16.5298C32.5184 24.6734 25.7197 31.2855 17.3442 31.2855C8.96914 31.2855 2.16906 24.6734 2.16906 16.5298C2.16906 8.38575 8.96914 1.77401 17.3442 1.77401ZM14.8141 13.6145C14.524 13.8533 14.2693 14.1323 14.0604 14.4419L10.9441 13.8978C9.07164 13.5712 7.1591 14.2104 5.88858 15.587C4.61763 16.964 4.17101 18.8823 4.70704 20.6575C5.25093 22.4587 7.33008 25.5648 9.58979 26.3888C10.3836 26.7082 11.0557 26.6895 11.5996 26.4419C12.3197 26.1161 12.9185 25.2891 13.1314 23.8179C13.2858 22.7433 13.8955 21.7789 14.811 21.1588L16.2412 20.1915C16.5626 20.2839 16.9011 20.3361 17.2504 20.3437L18.6841 23.4672C19.4604 25.1556 21.0803 26.3346 22.9662 26.581C24.8508 26.8274 26.7333 26.1064 27.9406 24.6767C29.1653 23.2263 30.6369 19.8072 30.0664 17.5272C29.8902 16.71 29.4959 16.179 28.9799 15.8813C28.2978 15.4861 27.2584 15.4699 25.8871 16.1277C24.887 16.6078 23.7243 16.6608 22.6814 16.2723L21.1775 15.7129C21.0995 15.3656 20.973 15.0369 20.8046 14.7316L22.9405 11.7459C24.0269 10.228 24.228 8.27082 23.47 6.57357C22.7128 4.87674 21.106 3.68162 19.2236 3.41529C17.3145 3.14598 13.5427 3.68671 11.8299 5.34028C11.2009 5.90942 10.9375 6.51165 10.9419 7.09479C10.9467 7.86792 11.4701 8.74072 12.7576 9.54312C13.6975 10.1284 14.3443 11.0686 14.5419 12.1369L14.8141 13.6145ZM13.441 16.1375L10.6217 15.6447C9.37215 15.4267 8.09465 15.8533 7.24633 16.7728C6.39889 17.6914 6.10056 18.9726 6.45907 20.1571C6.72382 21.0329 7.4317 22.2946 8.34501 23.3107C8.91114 23.9405 9.55403 24.4825 10.234 24.7289C10.251 24.7353 10.2667 24.7408 10.282 24.7471C10.5009 24.8354 10.6784 24.9024 10.828 24.8341C10.9231 24.7908 10.982 24.6929 11.0448 24.5745C11.1765 24.3218 11.2638 23.985 11.3239 23.5703C11.5494 22.0058 12.4361 20.6041 13.769 19.702L14.5297 19.1872C13.8427 18.5001 13.421 17.5633 13.421 16.5298C13.421 16.397 13.4275 16.2668 13.441 16.1375ZM19.0718 19.9561L20.351 22.7428C20.8692 23.871 21.95 24.6572 23.2096 24.8222C24.4679 24.9859 25.724 24.505 26.53 23.5508C27.1254 22.8459 27.7997 21.566 28.149 20.2602C28.3658 19.4501 28.4653 18.6282 28.2921 17.942C28.2877 17.9268 28.2843 17.9106 28.2812 17.8941C28.2328 17.6685 28.1896 17.4882 28.0479 17.4068C27.9571 17.3538 27.8411 17.3614 27.705 17.3784C27.4159 17.4144 27.0809 17.534 26.6945 17.7194C25.2373 18.4187 23.5467 18.4946 22.0294 17.9301L21.1139 17.5892C20.8046 18.6295 20.0531 19.4857 19.0718 19.9561ZM18.8943 15.1561C18.51 14.7468 17.9574 14.4894 17.3442 14.4894C16.997 14.4894 16.669 14.5721 16.3807 14.7176C16.3183 14.7642 16.249 14.8054 16.174 14.8359C15.6135 15.2028 15.2454 15.8249 15.2454 16.5298C15.2454 17.6566 16.1853 18.5705 17.3442 18.5705C18.5022 18.5705 19.4425 17.6566 19.4425 16.5298C19.4425 16.4903 19.4412 16.4513 19.439 16.4136L19.4377 16.4068V16.397C19.4133 16.0247 19.2851 15.6786 19.0818 15.3872C19.0046 15.319 18.9423 15.2409 18.8943 15.1561ZM19.5516 13.3766L21.4423 10.7331C22.1681 9.71912 22.302 8.41289 21.796 7.27927C21.2901 6.14692 20.2171 5.34919 18.961 5.17191C18.032 5.04087 16.5574 5.14053 15.2262 5.52392C14.401 5.76269 13.6264 6.10366 13.1126 6.60283C13.1004 6.61513 13.0882 6.62573 13.0755 6.63761C12.9028 6.7941 12.7654 6.92345 12.7663 7.08418C12.7676 7.18597 12.8348 7.27842 12.9194 7.38275C13.1013 7.60498 13.3782 7.82212 13.7411 8.04817C15.1102 8.90019 16.0514 10.2683 16.3384 11.8231L16.5181 12.7989C16.7837 12.7438 17.0607 12.7145 17.3442 12.7145C18.1628 12.7145 18.9222 12.9588 19.5516 13.3766Z" fill="#666666" fill-opacity="0.15"></path></svg> 