<?xml version="1.0" encoding="UTF-8"?> <svg xmlns="http://www.w3.org/2000/svg" width="30" height="30" viewBox="0 0 30 30" fill="none"><path fill-rule="evenodd" clip-rule="evenodd" d="M21.4485 26.4089C21.8242 26.6749 22.3083 26.7414 22.74 26.5781C23.1717 26.4136 23.489 26.0449 23.5847 25.5981C24.5985 20.8334 27.0578 8.77361 27.9807 4.43942C28.0507 4.11276 27.934 3.77326 27.6773 3.55509C27.4207 3.33692 27.0648 3.27392 26.7475 3.39176C21.8557 5.20244 6.79047 10.8549 0.632798 13.1334C0.241965 13.2781 -0.0123692 13.6538 0.000464162 14.0656C0.0144642 14.4786 0.292132 14.8368 0.692298 14.9569C3.4538 15.7829 7.07863 16.9321 7.07863 16.9321C7.07863 16.9321 8.77263 22.0479 9.6558 24.6496C9.76663 24.9763 10.0221 25.2329 10.3593 25.3216C10.6953 25.4091 11.0547 25.3169 11.3055 25.0801C12.7242 23.7408 14.9175 21.6699 14.9175 21.6699C14.9175 21.6699 19.0848 24.7254 21.4485 26.4089ZM8.60347 16.2858L10.5623 22.7468L10.9975 18.6553C10.9975 18.6553 18.5657 11.8291 22.88 7.93827C23.006 7.82394 23.0235 7.63261 22.9185 7.49844C22.8147 7.36428 22.6233 7.33277 22.4798 7.42377C17.4795 10.6169 8.60347 16.2858 8.60347 16.2858Z" fill="white"></path></svg> 