<?xml version="1.0" encoding="UTF-8"?> <svg xmlns="http://www.w3.org/2000/svg" width="650" height="201" viewBox="0 0 650 201" fill="none"><g opacity="0.05"><path d="M29.6598 172.263C49.4541 191.138 74.839 200.575 105.746 200.575L544.584 200.575C564.642 200.575 582.793 196.378 599.037 188.053C615.278 179.789 627.838 167.7 636.716 151.971C645.529 136.181 650 119.837 650 102.999C650 80.9189 645.529 62.2318 636.716 46.8742C627.838 31.5166 614.884 19.8597 597.853 11.9036C580.818 3.94531 562.999 6.98342e-05 544.19 7.14785e-05L105.35 0.000109843C75.0348 0.000112493 49.9138 9.4976 29.9215 28.6193C9.99508 47.7366 -1.10717e-05 71.7904 -8.53727e-06 100.781C-6.01926e-06 129.583 9.8654 153.391 29.6598 172.263Z" fill="#FE6A08"></path><path fill-rule="evenodd" clip-rule="evenodd" d="M539.667 99.3638C539.667 115.769 553.002 129.146 569.353 129.146C585.702 129.146 599.039 115.769 599.039 99.3638C599.039 82.9582 585.702 69.5789 569.353 69.5789C553.002 69.5789 539.667 82.9582 539.667 99.3638Z" fill="#FEFEFE"></path><path d="M54.5938 69.3348C55.1064 69.2534 55.6191 69.0972 56.1317 69.0972C71.9285 69.0768 87.7251 69.07 103.522 69.0564C104.336 69.0564 104.994 69.0338 105.531 69.9732C111.183 79.8781 116.894 89.7468 122.621 99.6064C123.068 100.374 123.019 100.951 122.592 101.691C117.009 111.356 111.425 121.021 105.922 130.731C105.242 131.931 104.466 132.227 103.199 132.225C87.4986 132.207 71.7963 132.239 56.0941 132.227C55.5881 132.227 55.0822 131.92 54.5762 131.754C54.5542 131.994 54.5322 132.234 54.5124 132.474C54.5916 132.628 54.6641 132.789 54.7543 132.938C59.9444 141.734 66.8242 148.916 75.4596 154.314C106.827 173.927 147.46 163.074 165.026 130.421C165.514 129.514 166.049 129.242 167.024 129.244C175.019 129.274 183.012 129.251 191.007 129.246C241.711 129.215 426.168 129.179 521.481 129.154C516.097 120.485 512.931 110.297 512.931 99.3642C512.931 88.2936 516.174 77.979 521.686 69.2375C429.063 69.2782 249.528 69.3054 202.239 69.3439C189.841 69.353 177.441 69.4118 165.044 69.3892C164.586 69.3869 163.957 68.8822 163.697 68.443C158.72 60.0501 152.144 53.2031 144.11 47.7187C123.222 33.4634 94.1296 33.6875 73.4288 48.3231C71.2485 49.8645 69.1564 51.5327 67.0223 53.1443C65.3326 54.8441 63.6406 56.544 61.9487 58.2439C61.0136 59.4503 60.0369 60.6296 59.1502 61.8722C57.5243 64.156 55.9534 66.4761 54.3583 68.7826C54.4375 68.9659 54.5146 69.1515 54.5938 69.3348Z" fill="#FEFEFE"></path></g></svg> 