<?xml version="1.0" encoding="UTF-8"?> <svg xmlns="http://www.w3.org/2000/svg" width="30" height="30" viewBox="0 0 30 30" fill="none"><g clip-path="url(#clip0_6_377)"><circle cx="15" cy="15" r="15" fill="#2688EB"></circle><path d="M6 10.0088C6.14386 16.8783 9.65035 21 15.8002 21H16.1598V17.0721C18.4166 17.2922 20.1249 18.9127 20.8082 21H24C23.6725 19.8139 23.0923 18.7093 22.2973 17.759C21.5023 16.8087 20.5106 16.0342 19.3876 15.4868C20.3939 14.8865 21.263 14.0895 21.9405 13.1453C22.6181 12.2014 23.0896 11.1306 23.3257 10H20.4306C19.8012 12.1841 17.9311 14.1657 16.1598 14.3507V10.0088H13.2557V17.6181C11.4575 17.1777 9.19181 15.0464 9.09291 10.0088H6Z" fill="white"></path></g><defs><clipPath id="clip0_6_377"><rect width="30" height="30" fill="white"></rect></clipPath></defs></svg> 