<?xml version="1.0" encoding="UTF-8"?> <svg xmlns="http://www.w3.org/2000/svg" width="330" height="165" viewBox="0 0 330 165" fill="none"><rect width="330" height="165" fill="white"></rect><g clip-path="url(#clip0_149_168)"><path d="M104.616 83.7453C104.616 87.9893 101.243 91.3846 97.0255 91.3846C92.8083 91.3846 89.4346 87.9893 89.4346 83.7453C89.4346 79.5013 92.8083 76.1061 97.0255 76.1061H104.616V83.7453ZM113.051 52.3395H104.616V67.7878C101.749 67.7878 98.8811 67.7878 97.0255 67.7878C88.2538 67.7878 81.1689 74.9177 81.1689 83.7453C81.1689 92.5729 88.2538 99.7029 97.0255 99.7029C105.797 99.7029 112.882 92.5729 112.882 83.7453C112.882 79.3315 112.882 67.7878 112.882 67.7878L113.051 52.3395Z" fill="#231F20"></path><path d="M196.888 91.3847C201.105 91.3847 204.479 87.9894 204.479 83.7454C204.479 79.5014 201.105 76.1061 196.888 76.1061C192.671 76.1061 189.297 79.5014 189.297 83.7454C189.466 87.9894 192.84 91.3847 196.888 91.3847ZM181.2 83.7454C181.2 74.9178 188.285 67.7878 197.057 67.7878C205.828 67.7878 212.913 74.9178 212.913 83.7454C212.913 92.573 205.828 99.703 197.057 99.703C188.285 99.703 181.2 92.573 181.2 83.7454Z" fill="#231F20"></path><path d="M239.397 83.7454C239.397 79.6711 236.023 76.2759 231.975 76.2759C227.927 76.2759 224.553 79.6711 224.553 83.7454C224.553 85.7825 224.553 99.0239 224.553 99.0239C220.336 99.0239 216.287 99.0239 216.287 99.0239C216.287 99.0239 216.287 88.1592 216.287 83.7454C216.287 74.9178 223.372 67.7878 232.144 67.7878C240.915 67.7878 248 74.9178 248 83.7454C248 88.1592 248 99.0239 248 99.0239C248 99.0239 243.952 99.0239 239.735 99.0239C239.397 99.0239 239.397 85.7825 239.397 83.7454Z" fill="#231F20"></path><path d="M161.801 78.313C160.62 77.4642 160.958 76.1061 162.982 75.5968C165.512 74.9177 169.898 75.427 173.609 77.1246L177.489 71.6923C175.802 70.3342 172.091 68.4668 166.693 68.1273C166.693 68.1273 157.584 66.939 153.873 73.8992C153.873 73.8992 150.668 80.3501 157.078 84.4244C160.958 86.801 167.705 87.8196 169.898 88.8382C171.585 89.8567 171.079 91.7241 168.549 92.2334C164.163 93.252 158.427 90.7055 156.572 89.3474L152.523 94.9496C155.222 96.9867 158.596 98.8541 163.994 99.7029C163.994 99.7029 172.597 101.231 177.32 95.2891C178.164 94.2705 182.044 86.9708 174.284 82.7268C170.236 80.5199 163.825 79.5013 161.801 78.313Z" fill="#231F20"></path><path d="M123.003 105.135C123.341 105.305 127.22 108.021 130.931 108.021C140.041 108.191 140.547 98.6843 140.547 96.4774C138.86 98.3448 135.317 99.5331 133.124 99.5331C124.353 99.5331 117.437 92.7427 117.437 83.9151C117.437 79.5013 117.437 68.4668 117.437 68.4668C117.437 68.4668 121.485 68.4668 125.702 68.4668C125.702 68.4668 125.702 82.0477 125.702 83.9151C125.702 87.9893 129.076 91.3846 133.124 91.3846C137.173 91.3846 140.547 87.9893 140.547 83.9151C140.547 82.2175 140.547 68.4668 140.547 68.4668C144.764 68.4668 148.812 68.4668 148.812 68.4668V83.9151C148.812 97.6657 149.487 111.756 136.161 114.981C126.208 117.358 119.123 111.077 118.617 110.737L123.003 105.135Z" fill="#231F20"></path></g><defs><clipPath id="clip0_149_168"><rect width="167" height="64" fill="white" transform="translate(81 52)"></rect></clipPath></defs></svg> 