<?xml version="1.0" encoding="UTF-8"?> <svg xmlns="http://www.w3.org/2000/svg" width="400" height="740" viewBox="0 0 400 740" fill="none"><g clip-path="url(#clip0_3_283)"><mask id="mask0_3_283" style="mask-type:luminance" maskUnits="userSpaceOnUse" x="0" y="0" width="400" height="740"><path d="M0 0H400V740H0V0Z" fill="white"></path></mask><g mask="url(#mask0_3_283)"><path d="M0 706.953V200.01C0 89.5472 89.543 0 200 0C310.457 0 400 89.5472 400 200.01V706.953C400 731.885 373.416 747.813 351.433 736.052L218.869 665.127C213.064 662.021 206.583 660.396 200 660.396C193.417 660.396 186.936 662.021 181.131 665.127L48.567 736.052C26.584 747.813 0 731.885 0 706.953Z" fill="white"></path><path d="M99.417 457.723L112.801 478.886H103.192L93.64 463.786L83.916 478.886H75.623L89.293 457.895L76.48 437.932H86.204L95.07 452.003L104.165 437.932H112.401L99.417 457.723ZM128.085 472.309C129.077 472.309 130.011 472.137 130.888 471.794C131.797 471.417 132.616 470.852 133.291 470.135C133.995 469.384 134.556 468.512 134.949 467.561C135.369 466.532 135.578 465.35 135.578 464.015C135.578 462.718 135.369 461.555 134.949 460.526C134.53 459.496 133.977 458.638 133.291 457.952C132.611 457.27 131.791 456.743 130.888 456.408C130.004 456.025 129.049 455.83 128.085 455.836C127.094 455.836 126.141 456.026 125.226 456.408C124.345 456.753 123.546 457.279 122.88 457.952C122.194 458.638 121.641 459.496 121.222 460.526C120.802 461.555 120.593 462.718 120.593 464.015C120.593 465.35 120.802 466.532 121.222 467.561C121.615 468.512 122.176 469.384 122.88 470.135C123.541 470.842 124.339 471.406 125.226 471.794C126.14 472.137 127.109 472.311 128.085 472.309ZM128.085 479.458C125.95 479.458 123.929 479.115 122.022 478.429C120.183 477.723 118.495 476.674 117.046 475.34C115.635 474.006 114.51 472.385 113.671 470.478C112.871 468.572 112.47 466.417 112.47 464.015C112.47 461.651 112.871 459.534 113.671 457.666C114.51 455.759 115.635 454.139 117.046 452.804C118.487 451.474 120.179 450.444 122.022 449.773C123.929 449.048 125.95 448.686 128.085 448.686C130.221 448.686 132.223 449.048 134.091 449.773C135.998 450.459 137.657 451.469 139.068 452.804C140.517 454.139 141.661 455.759 142.499 457.666C143.338 459.534 143.758 461.651 143.758 464.015C143.758 466.417 143.338 468.572 142.499 470.478C141.699 472.385 140.574 474.006 139.125 475.34C137.714 476.675 136.055 477.704 134.149 478.429C132.242 479.115 130.221 479.458 128.085 479.458ZM155.473 449.258L155.645 453.204C156.767 451.772 158.22 450.634 159.878 449.887C161.593 449.086 163.481 448.686 165.54 448.686C167.332 448.686 169.048 449.01 170.688 449.658C172.328 450.268 173.777 451.202 175.035 452.461C176.293 453.719 177.285 455.283 178.009 457.151C178.772 459.02 179.153 461.174 179.153 463.615C179.153 466.208 178.734 468.495 177.895 470.478C177.094 472.423 176.027 474.063 174.692 475.397C173.39 476.71 171.833 477.742 170.116 478.429C168.438 479.115 166.741 479.458 165.025 479.458C163.119 479.458 161.403 479.153 159.878 478.543C158.388 477.956 157.027 477.081 155.874 475.969V489.011H147.923V449.258H155.473ZM171.088 464.072C171.088 462.737 170.879 461.536 170.459 460.469C170.04 459.401 169.487 458.505 168.8 457.78C168.126 457.064 167.307 456.499 166.398 456.122C165.474 455.738 164.482 455.544 163.481 455.55C162.49 455.55 161.517 455.74 160.564 456.122C159.633 456.515 158.794 457.099 158.104 457.837C157.38 458.562 156.808 459.458 156.388 460.526C155.969 461.555 155.759 462.757 155.759 464.129C155.759 465.502 155.969 466.722 156.388 467.79C156.808 468.858 157.38 469.754 158.104 470.478C158.819 471.158 159.653 471.701 160.564 472.08C161.489 472.463 162.48 472.658 163.481 472.652C164.511 472.652 165.483 472.461 166.398 472.08C167.307 471.703 168.126 471.138 168.8 470.421C169.505 469.628 170.067 468.719 170.459 467.733C170.879 466.665 171.088 465.445 171.088 464.072ZM197.293 472.309C198.285 472.309 199.219 472.137 200.096 471.794C201.005 471.417 201.824 470.852 202.498 470.135C203.202 469.384 203.764 468.512 204.157 467.561C204.577 466.532 204.786 465.35 204.786 464.015C204.786 462.718 204.577 461.555 204.157 460.526C203.738 459.496 203.185 458.638 202.498 457.952C201.819 457.27 200.999 456.743 200.096 456.408C199.212 456.025 198.257 455.83 197.293 455.836C196.302 455.836 195.349 456.026 194.433 456.408C193.552 456.753 192.753 457.279 192.088 457.952C191.402 458.638 190.849 459.496 190.429 460.526C190.01 461.555 189.8 462.718 189.8 464.015C189.8 465.35 190.01 466.532 190.429 467.561C190.849 468.553 191.402 469.411 192.088 470.135C192.749 470.842 193.547 471.406 194.433 471.794C195.347 472.137 196.316 472.311 197.293 472.309ZM197.293 479.458C195.158 479.458 193.137 479.115 191.23 478.429C189.391 477.723 187.703 476.674 186.254 475.34C184.843 474.006 183.718 472.385 182.879 470.478C182.079 468.572 181.678 466.417 181.678 464.015C181.678 461.651 182.079 459.534 182.879 457.666C183.718 455.759 184.843 454.139 186.254 452.804C187.695 451.474 189.387 450.444 191.23 449.773C193.137 449.048 195.158 448.686 197.293 448.686C199.429 448.686 201.431 449.048 203.299 449.773C205.206 450.459 206.864 451.469 208.275 452.804C209.724 454.139 210.868 455.759 211.707 457.666C212.546 459.534 212.966 461.651 212.966 464.015C212.966 466.417 212.546 468.572 211.707 470.478C210.906 472.385 209.782 474.006 208.333 475.34C206.922 476.675 205.263 477.704 203.356 478.429C201.45 479.115 199.429 479.458 197.293 479.458ZM217.131 449.258H225.081V472.194H234.691V449.258H242.641V472.194H252.193V449.258H260.144V478.886H217.131V449.258ZM280.365 479.458C277.848 479.458 275.598 479.096 273.615 478.372C271.632 477.609 269.954 476.56 268.582 475.226C267.209 473.891 266.141 472.29 265.379 470.421C264.654 468.515 264.292 466.436 264.292 464.186C264.292 461.784 264.692 459.63 265.493 457.723C266.332 455.816 267.438 454.196 268.81 452.861C270.217 451.529 271.868 450.481 273.672 449.773C275.551 449.046 277.549 448.678 279.564 448.686C281.661 448.686 283.587 449.086 285.341 449.887C287.133 450.65 288.62 451.774 289.802 453.262C291.022 454.749 291.9 456.598 292.433 458.81C293.005 460.983 293.139 463.481 292.834 466.303H272.643C273.138 468.248 274.149 469.849 275.674 471.107C277.238 472.328 279.392 472.938 282.138 472.938C283.815 472.938 285.512 472.709 287.228 472.251C288.944 471.756 290.393 471.069 291.575 470.192V476.484C290.355 477.361 288.754 478.086 286.771 478.658C284.788 479.192 282.652 479.458 280.365 479.458ZM279.278 454.806C277.562 454.806 276.113 455.359 274.931 456.465C273.749 457.532 272.948 458.981 272.528 460.812H285.226C285.112 459.096 284.54 457.666 283.51 456.522C282.481 455.378 281.07 454.806 279.278 454.806ZM311.533 479.458C309.016 479.458 306.767 479.096 304.784 478.372C302.801 477.609 301.123 476.56 299.75 475.226C298.378 473.891 297.31 472.29 296.547 470.421C295.823 468.515 295.46 466.436 295.46 464.186C295.46 461.784 295.861 459.63 296.662 457.723C297.501 455.816 298.606 454.196 299.979 452.861C301.386 451.529 303.037 450.481 304.841 449.773C306.72 449.046 308.718 448.678 310.732 448.686C312.83 448.686 314.755 449.086 316.509 449.887C318.302 450.65 319.789 451.774 320.971 453.262C322.191 454.749 323.068 456.598 323.602 458.81C324.174 460.983 324.307 463.481 324.002 466.303H303.811C304.307 468.248 305.318 469.849 306.843 471.107C308.406 472.328 310.561 472.938 313.306 472.938C315.026 472.932 316.737 472.701 318.397 472.251C320.113 471.756 321.562 471.069 322.744 470.192V476.484C321.524 477.361 319.922 478.086 317.939 478.658C315.957 479.192 313.821 479.458 311.533 479.458ZM310.446 454.806C308.73 454.806 307.281 455.359 306.099 456.465C304.917 457.532 304.116 458.981 303.697 460.812H316.395C316.281 459.096 315.709 457.666 314.679 456.522C313.65 455.378 312.239 454.806 310.446 454.806ZM132.822 498.258L140.83 515.188L149.181 498.258H158.847L158.904 527.886H150.954V508.496L142.832 525.599H137.455L129.79 508.325V527.886H122.927V498.258H132.822ZM179.178 528.458C176.661 528.458 174.412 528.096 172.429 527.372C170.446 526.609 168.768 525.56 167.395 524.226C166.023 522.891 164.955 521.29 164.192 519.421C163.468 517.515 163.105 515.436 163.105 513.186C163.105 510.784 163.506 508.63 164.307 506.723C165.145 504.816 166.251 503.196 167.624 501.861C169.031 500.529 170.682 499.481 172.486 498.773C174.365 498.046 176.363 497.678 178.377 497.686C180.475 497.686 182.4 498.086 184.154 498.887C185.947 499.65 187.434 500.774 188.616 502.262C189.836 503.749 190.713 505.598 191.247 507.81C191.819 509.983 191.952 512.481 191.647 515.303H171.456C171.952 517.248 172.963 518.849 174.488 520.107C176.051 521.328 178.206 521.938 180.951 521.938C182.671 521.932 184.382 521.701 186.042 521.251C187.758 520.756 189.207 520.069 190.389 519.192V525.484C189.169 526.361 187.567 527.086 185.584 527.658C183.601 528.192 181.466 528.458 179.178 528.458ZM178.091 503.806C176.375 503.806 174.926 504.359 173.744 505.465C172.562 506.532 171.761 507.981 171.342 509.812H184.04C183.926 508.096 183.354 506.666 182.324 505.522C181.294 504.378 179.884 503.806 178.091 503.806ZM210.118 528.458C207.754 528.458 205.599 528.096 203.655 527.372C201.71 526.647 200.032 525.637 198.621 524.34C197.248 523.006 196.181 521.404 195.418 519.536C194.655 517.629 194.274 515.493 194.274 513.129C194.274 510.803 194.655 508.687 195.418 506.78C196.219 504.874 197.325 503.253 198.736 501.918C200.185 500.584 201.901 499.554 203.883 498.83C205.866 498.067 208.078 497.686 210.518 497.686C212.234 497.686 213.779 497.857 215.151 498.201C216.562 498.544 217.764 498.982 218.755 499.516V506.723C217.764 505.96 216.62 505.388 215.323 505.007C214.049 504.591 212.717 504.379 211.376 504.378C208.707 504.378 206.534 505.16 204.856 506.723C203.216 508.286 202.396 510.346 202.396 512.9C202.396 514.235 202.606 515.455 203.025 516.561C203.46 517.596 204.103 518.53 204.913 519.307C205.73 520.08 206.68 520.7 207.716 521.137C208.822 521.557 210.023 521.766 211.319 521.766C212.616 521.766 213.912 521.576 215.209 521.194C216.503 520.814 217.722 520.214 218.812 519.421V526.228C217.897 526.914 216.677 527.467 215.151 527.886C213.626 528.268 211.948 528.458 210.118 528.458ZM247.816 498.258V504.95H238.836V527.886H230.885V504.95H222.076V498.258H247.816ZM264.406 521.309C265.398 521.309 266.332 521.137 267.209 520.794C268.118 520.417 268.937 519.852 269.611 519.135C270.315 518.384 270.877 517.512 271.27 516.561C271.69 515.532 271.899 514.35 271.899 513.015C271.899 511.718 271.69 510.555 271.27 509.526C270.851 508.496 270.298 507.638 269.611 506.952C268.932 506.27 268.112 505.743 267.209 505.408C266.325 505.025 265.37 504.83 264.406 504.836C263.415 504.836 262.462 505.026 261.546 505.408C260.665 505.753 259.866 506.279 259.201 506.952C258.515 507.638 257.962 508.496 257.543 509.526C257.123 510.555 256.913 511.718 256.913 513.015C256.913 514.35 257.123 515.532 257.543 516.561C257.936 517.512 258.497 518.384 259.201 519.135C259.862 519.842 260.66 520.406 261.546 520.794C262.46 521.137 263.429 521.311 264.406 521.309ZM264.406 528.458C262.271 528.458 260.25 528.115 258.343 527.429C256.504 526.723 254.816 525.674 253.367 524.34C251.956 523.006 250.831 521.385 249.992 519.478C249.192 517.572 248.791 515.417 248.791 513.015C248.791 510.651 249.192 508.534 249.992 506.666C250.831 504.759 251.956 503.139 253.367 501.804C254.808 500.474 256.5 499.444 258.343 498.773C260.25 498.048 262.271 497.686 264.406 497.686C266.542 497.686 268.544 498.048 270.412 498.773C272.319 499.459 273.978 500.469 275.389 501.804C276.838 503.139 277.982 504.759 278.82 506.666C279.659 508.534 280.079 510.651 280.079 513.015C280.079 515.417 279.659 517.572 278.82 519.478C278.02 521.385 276.895 523.006 275.446 524.34C274.035 525.675 272.376 526.704 270.469 527.429C268.563 528.115 266.542 528.458 264.406 528.458Z" fill="black"></path></g><path fill-rule="evenodd" clip-rule="evenodd" d="M154.972 585.943L147.326 590.821C147.135 590.942 146.915 591.001 146.692 590.991C146.469 590.981 146.254 590.902 146.075 590.763C145.895 590.625 145.759 590.435 145.683 590.216C145.607 589.996 145.595 589.759 145.649 589.532L147.865 580.309L141.437 575.083C141.257 574.938 141.124 574.74 141.054 574.514C140.985 574.288 140.982 574.046 141.046 573.819C141.111 573.592 141.239 573.39 141.415 573.24C141.591 573.091 141.806 573 142.033 572.981L150.443 572.258L153.952 563.713C154.038 563.501 154.183 563.321 154.367 563.194C154.551 563.067 154.767 563 154.988 563C155.209 563 155.424 563.068 155.609 563.195C155.792 563.323 155.936 563.504 156.023 563.716L159.501 572.258L167.968 572.983C168.193 573.003 168.409 573.093 168.584 573.242C168.76 573.392 168.888 573.593 168.953 573.82C169.018 574.046 169.016 574.288 168.946 574.514C168.877 574.739 168.745 574.937 168.566 575.083L162.111 580.309L164.323 589.537C164.378 589.764 164.366 590.002 164.291 590.221C164.215 590.441 164.079 590.632 163.899 590.771C163.72 590.909 163.504 590.989 163.281 590.999C163.058 591.009 162.837 590.95 162.646 590.829L154.972 585.94V585.943Z" fill="#FFCC00"></path><path fill-rule="evenodd" clip-rule="evenodd" d="M190.972 585.943L183.326 590.821C183.135 590.942 182.915 591.001 182.692 590.991C182.469 590.981 182.254 590.902 182.075 590.763C181.895 590.625 181.759 590.435 181.683 590.216C181.607 589.996 181.595 589.759 181.649 589.532L183.865 580.309L177.437 575.083C177.257 574.938 177.124 574.74 177.054 574.514C176.985 574.288 176.982 574.046 177.046 573.819C177.111 573.592 177.239 573.39 177.415 573.24C177.591 573.091 177.806 573 178.033 572.981L186.443 572.258L189.952 563.713C190.038 563.501 190.183 563.321 190.367 563.194C190.551 563.067 190.767 563 190.988 563C191.209 563 191.424 563.068 191.609 563.195C191.792 563.323 191.936 563.504 192.023 563.716L195.501 572.258L203.968 572.983C204.193 573.003 204.409 573.093 204.584 573.242C204.76 573.392 204.888 573.593 204.953 573.82C205.018 574.046 205.016 574.288 204.946 574.514C204.877 574.739 204.745 574.937 204.566 575.083L198.111 580.309L200.323 589.537C200.378 589.764 200.366 590.002 200.291 590.221C200.215 590.441 200.079 590.632 199.899 590.771C199.72 590.909 199.504 590.989 199.281 590.999C199.058 591.009 198.837 590.95 198.646 590.829L190.972 585.94V585.943Z" fill="#FFCC00"></path><path fill-rule="evenodd" clip-rule="evenodd" d="M226.972 585.943L219.326 590.821C219.135 590.942 218.915 591.001 218.692 590.991C218.469 590.981 218.254 590.902 218.075 590.763C217.895 590.625 217.759 590.435 217.683 590.216C217.607 589.996 217.595 589.759 217.649 589.532L219.865 580.309L213.437 575.083C213.257 574.938 213.124 574.74 213.054 574.514C212.985 574.288 212.982 574.046 213.046 573.819C213.111 573.592 213.239 573.39 213.415 573.24C213.591 573.091 213.806 573 214.033 572.981L222.443 572.258L225.952 563.713C226.038 563.501 226.183 563.321 226.367 563.194C226.551 563.067 226.767 563 226.988 563C227.209 563 227.424 563.068 227.609 563.195C227.792 563.323 227.936 563.504 228.023 563.716L231.501 572.258L239.968 572.983C240.193 573.003 240.409 573.093 240.584 573.242C240.76 573.392 240.888 573.593 240.953 573.82C241.018 574.046 241.016 574.288 240.946 574.514C240.877 574.739 240.745 574.937 240.566 575.083L234.111 580.309L236.323 589.537C236.378 589.764 236.366 590.002 236.291 590.221C236.215 590.441 236.079 590.632 235.899 590.771C235.72 590.909 235.504 590.989 235.281 590.999C235.058 591.009 234.837 590.95 234.646 590.829L226.972 585.94V585.943Z" fill="#FFCC00"></path><path fill-rule="evenodd" clip-rule="evenodd" d="M261.972 585.943L254.326 590.821C254.135 590.942 253.915 591.001 253.692 590.991C253.469 590.981 253.254 590.902 253.075 590.763C252.895 590.625 252.759 590.435 252.683 590.216C252.607 589.996 252.595 589.759 252.649 589.532L254.865 580.309L248.437 575.083C248.257 574.938 248.124 574.74 248.054 574.514C247.985 574.288 247.982 574.046 248.046 573.819C248.111 573.592 248.239 573.39 248.415 573.24C248.591 573.091 248.806 573 249.033 572.981L257.443 572.258L260.952 563.713C261.038 563.501 261.183 563.321 261.367 563.194C261.551 563.067 261.767 563 261.988 563C262.209 563 262.424 563.068 262.609 563.195C262.792 563.323 262.936 563.504 263.023 563.716L266.501 572.258L274.968 572.983C275.193 573.003 275.409 573.093 275.584 573.242C275.76 573.392 275.888 573.593 275.953 573.82C276.018 574.046 276.016 574.288 275.946 574.514C275.877 574.739 275.745 574.937 275.566 575.083L269.111 580.309L271.323 589.537C271.378 589.764 271.366 590.002 271.291 590.221C271.215 590.441 271.079 590.632 270.899 590.771C270.72 590.909 270.504 590.989 270.281 590.999C270.058 591.009 269.837 590.95 269.646 590.829L261.972 585.94V585.943Z" fill="#FFCC00"></path><path fill-rule="evenodd" clip-rule="evenodd" d="M297.972 585.943L290.326 590.821C290.135 590.942 289.915 591.001 289.692 590.991C289.469 590.981 289.254 590.902 289.075 590.763C288.895 590.625 288.759 590.435 288.683 590.216C288.607 589.996 288.595 589.759 288.649 589.532L290.865 580.309L284.437 575.083C284.257 574.938 284.124 574.74 284.054 574.514C283.985 574.288 283.982 574.046 284.046 573.819C284.111 573.592 284.239 573.39 284.415 573.24C284.591 573.091 284.806 573 285.033 572.981L293.443 572.258L296.952 563.713C297.038 563.501 297.183 563.321 297.367 563.194C297.551 563.067 297.767 563 297.988 563C298.209 563 298.424 563.068 298.609 563.195C298.792 563.323 298.936 563.504 299.023 563.716L302.501 572.258L310.968 572.983C311.193 573.003 311.409 573.093 311.584 573.242C311.76 573.392 311.888 573.593 311.953 573.82C312.018 574.046 312.016 574.288 311.946 574.514C311.877 574.739 311.744 574.937 311.566 575.083L305.111 580.309L307.323 589.537C307.378 589.764 307.366 590.002 307.291 590.221C307.215 590.441 307.079 590.632 306.899 590.771C306.72 590.909 306.504 590.989 306.281 590.999C306.058 591.009 305.837 590.95 305.646 590.829L297.972 585.94V585.943Z" fill="#FFCC00"></path><path d="M93.054 588.573C91.6596 588.573 90.4548 588.445 89.4409 588.189C88.4264 587.911 87.6127 587.569 87 587.164L87.8556 583.801C88.4051 584.164 89.113 584.516 89.9797 584.858C90.846 585.178 91.8392 585.338 92.9589 585.338C94.4804 585.338 95.6426 584.922 96.4456 584.089C97.2699 583.256 97.6817 582.178 97.6817 580.854C97.6817 579.552 97.365 578.548 96.731 577.843C96.097 577.139 95.1463 576.786 93.8783 576.786C93.0121 576.786 92.3042 576.915 91.7547 577.171C91.2265 577.427 90.8247 577.726 90.5499 578.068H87.6021V565.32H100.598V568.683H91.0575V574.673C91.4587 574.374 91.9556 574.117 92.5471 573.904C93.1598 573.69 93.9102 573.584 94.7977 573.584C95.8329 573.584 96.7735 573.744 97.6185 574.064C98.4847 574.384 99.2138 574.854 99.8059 575.473C100.419 576.071 100.894 576.808 101.232 577.683C101.57 578.559 101.739 579.562 101.739 580.694C101.739 581.868 101.538 582.936 101.137 583.897C100.735 584.858 100.154 585.69 99.3934 586.395C98.633 587.078 97.7136 587.612 96.6359 587.996C95.5794 588.381 94.3853 588.573 93.054 588.573ZM104.74 591.68C105.141 591.21 105.511 590.655 105.849 590.014C106.187 589.374 106.43 588.754 106.578 588.157C105.986 587.986 105.543 587.687 105.247 587.26C104.951 586.833 104.803 586.363 104.803 585.851C104.803 585.146 105.036 584.559 105.501 584.089C105.986 583.619 106.599 583.384 107.339 583.384C108.121 583.384 108.744 583.63 109.209 584.121C109.695 584.591 109.938 585.295 109.938 586.235C109.938 586.79 109.854 587.345 109.685 587.9C109.516 588.456 109.304 588.979 109.051 589.47C108.797 589.982 108.512 590.452 108.194 590.879C107.899 591.327 107.603 591.701 107.307 592L104.74 591.68ZM120.297 588.573C119.178 588.573 118.143 588.349 117.191 587.9C116.241 587.452 115.416 586.747 114.719 585.787C114.043 584.826 113.504 583.609 113.102 582.135C112.722 580.641 112.532 578.847 112.532 576.754C112.532 574.683 112.722 572.911 113.102 571.438C113.504 569.943 114.043 568.726 114.719 567.786C115.416 566.826 116.241 566.121 117.191 565.673C118.143 565.224 119.178 565 120.297 565C121.418 565 122.442 565.224 123.372 565.673C124.323 566.121 125.137 566.815 125.813 567.754C126.51 568.694 127.049 569.9 127.429 571.374C127.81 572.847 128 574.619 128 576.69C128 578.762 127.81 580.545 127.429 582.039C127.049 583.534 126.51 584.772 125.813 585.754C125.137 586.715 124.323 587.431 123.372 587.9C122.442 588.349 121.418 588.573 120.297 588.573ZM120.266 585.338C120.879 585.338 121.418 585.199 121.883 584.922C122.347 584.623 122.728 584.142 123.024 583.48C123.34 582.819 123.573 581.943 123.721 580.854C123.89 579.744 123.974 578.388 123.974 576.786C123.974 575.185 123.89 573.84 123.721 572.751C123.573 571.662 123.34 570.786 123.024 570.125C122.728 569.441 122.347 568.961 121.883 568.683C121.439 568.384 120.911 568.235 120.297 568.235C119.685 568.235 119.135 568.384 118.65 568.683C118.185 568.961 117.793 569.441 117.477 570.125C117.16 570.786 116.917 571.662 116.748 572.751C116.6 573.84 116.526 575.185 116.526 576.786C116.526 578.388 116.6 579.744 116.748 580.854C116.917 581.943 117.16 582.819 117.477 583.48C117.793 584.142 118.185 584.623 118.65 584.922C119.115 585.199 119.653 585.338 120.266 585.338Z" fill="black"></path><path d="M50.6001 200C50.6001 117.155 117.74 50 200.6 50C283.43 50 350.6 117.155 350.6 200C350.6 282.845 283.43 350 200.6 350C117.74 350 50.6001 282.845 50.6001 200Z" fill="#FC3F1D"></path><path d="M219.8 134.99H205.94C180.53 134.99 167.165 147.86 167.165 166.835C167.165 188.285 176.405 198.335 195.38 211.22L211.055 221.78L166.01 289.085H132.35L172.775 228.875C149.525 212.21 136.475 196.025 136.475 168.65C136.475 134.33 160.4 110.9 205.775 110.9H250.82V288.92H219.8V134.99Z" fill="white"></path><path d="M123.46 409.42H127.29V387.39H121.71C116.1 387.39 113.16 390.27 113.16 394.52C113.16 397.91 114.77 399.91 117.66 401.97L112.65 409.42H116.8L122.38 401.08L120.45 399.78C118.1 398.2 116.96 396.96 116.96 394.3C116.96 391.95 118.61 390.37 121.75 390.37H123.46V409.42ZM197.41 409.73C199.16 409.73 200.39 409.42 201.31 408.75V405.68C200.36 406.34 199.22 406.75 197.64 406.75C194.94 406.75 193.83 404.66 193.83 401.37C193.83 397.91 195.2 396.14 197.67 396.14C199.13 396.14 200.55 396.64 201.31 397.12V393.92C200.52 393.47 199.13 393.16 197.26 393.16C192.44 393.16 189.93 396.61 189.93 401.46C189.93 406.79 192.37 409.73 197.41 409.73ZM173.83 408.34V405.26C172.66 406.06 170.69 406.75 168.85 406.75C166.09 406.75 165.05 405.46 164.89 402.79H173.99V400.8C173.99 395.25 171.55 393.16 167.77 393.16C163.18 393.16 160.99 396.67 160.99 401.49C160.99 407.04 163.72 409.73 168.54 409.73C170.94 409.73 172.72 409.1 173.83 408.34ZM185.88 409.42H190.15L184.1 400.95L189.43 393.47H185.62L180.3 400.95V393.47H176.52V409.42H180.3V401.71L185.88 409.42ZM160.07 406.44H158.39V393.47H147.39V394.84C147.39 398.73 147.14 403.77 145.81 406.44H144.63V413.06H148.12V409.42H156.58V413.06H160.07V406.44ZM139.28 393.47V399.78H134.24V393.47H130.46V409.42H134.24V402.76H139.28V409.42H143.05V393.47H139.28ZM167.71 396.14C169.58 396.14 170.15 397.69 170.15 399.69V400H164.89C164.99 397.47 165.9 396.14 167.71 396.14ZM154.62 406.44H149.29C150.34 404.03 150.63 399.69 150.63 396.93V396.45H154.62V406.44ZM221 409.42H225.47L217.64 397.85L224.74 387.39H220.84L214.02 397.53V387.39H210.19V409.42H214.02V399.08L221 409.42ZM238.34 398.54C238.34 394.68 236.37 393.22 232.38 393.22C229.88 393.22 227.91 394.01 226.77 394.68V397.82C227.78 397.05 230 396.23 231.94 396.23C233.74 396.23 234.57 396.86 234.57 398.58V399.46H233.96C228.19 399.46 225.63 401.37 225.63 404.6C225.63 407.83 227.59 409.64 230.51 409.64C232.73 409.64 233.68 408.91 234.41 408.15H234.57C234.6 408.56 234.73 409.1 234.85 409.42H238.53C238.4 408.12 238.34 406.82 238.34 405.52V398.54ZM234.57 405.61C234.09 406.31 233.2 406.88 231.87 406.88C230.29 406.88 229.49 405.99 229.49 404.63C229.49 402.82 230.79 402.16 234.03 402.16H234.57V405.61ZM244.87 393.47H241.38V414.01H245.15V407.55C246.11 408.97 247.5 409.73 249.12 409.73C252.79 409.73 255.33 406.79 255.33 401.43C255.33 396.1 252.86 393.16 249.31 393.16C247.53 393.16 246.07 393.98 245.06 395.53L244.87 393.47ZM248.17 406.75C246.17 406.75 245.15 405.14 245.15 401.46C245.15 397.75 246.23 396.14 248.36 396.14C250.42 396.14 251.43 397.75 251.43 401.43C251.43 405.14 250.35 406.75 248.17 406.75ZM268.61 396.45V393.47H255.96V396.45H260.4V409.42H264.17V396.45H268.61ZM270.83 393.47V409.42H276.57C280.28 409.42 282.91 407.52 282.91 403.77C282.91 400.22 280.56 398.35 276.63 398.35H274.6V393.47H270.83ZM284.3 393.47V409.42H288.08V393.47H284.3ZM276.35 406.44H274.6V401.33H276.44C278.06 401.33 279.01 402.06 279.01 403.9C279.01 405.74 277.96 406.44 276.35 406.44Z" fill="black"></path><path d="M69.26 621V608.04H74.354C75.176 608.04 75.866 608.208 76.424 608.544C76.982 608.88 77.402 609.315 77.684 609.849C77.966 610.377 78.107 610.935 78.107 611.523C78.107 612.237 77.93 612.849 77.576 613.359C77.228 613.869 76.757 614.217 76.163 614.403L76.145 613.962C76.973 614.166 77.609 614.565 78.053 615.159C78.497 615.747 78.719 616.434 78.719 617.22C78.719 617.982 78.566 618.645 78.26 619.209C77.96 619.773 77.519 620.214 76.937 620.532C76.361 620.844 75.662 621 74.84 621H69.26ZM71.168 619.209H74.552C74.978 619.209 75.359 619.128 75.695 618.966C76.037 618.804 76.304 618.573 76.496 618.273C76.694 617.967 76.793 617.604 76.793 617.184C76.793 616.794 76.706 616.443 76.532 616.131C76.364 615.813 76.118 615.564 75.794 615.384C75.476 615.198 75.101 615.105 74.669 615.105H71.168V619.209ZM71.168 613.332H74.327C74.675 613.332 74.987 613.263 75.263 613.125C75.545 612.981 75.767 612.777 75.929 612.513C76.097 612.243 76.181 611.919 76.181 611.541C76.181 611.037 76.013 610.623 75.677 610.299C75.341 609.975 74.891 609.813 74.327 609.813H71.168V613.332ZM81.041 621V611.28H82.931V614.655H84.209C84.485 614.655 84.782 614.661 85.1 614.673C85.418 614.685 85.688 614.715 85.91 614.763C86.432 614.871 86.885 615.051 87.269 615.303C87.653 615.555 87.947 615.891 88.151 616.311C88.361 616.725 88.466 617.235 88.466 617.841C88.466 618.687 88.247 619.362 87.809 619.866C87.371 620.364 86.777 620.7 86.027 620.874C85.787 620.928 85.502 620.964 85.172 620.982C84.848 620.994 84.548 621 84.272 621H81.041ZM82.931 619.488H84.38C84.536 619.488 84.71 619.482 84.902 619.47C85.094 619.458 85.271 619.431 85.433 619.389C85.715 619.305 85.97 619.134 86.198 618.876C86.426 618.618 86.54 618.273 86.54 617.841C86.54 617.397 86.426 617.043 86.198 616.779C85.976 616.515 85.694 616.344 85.352 616.266C85.196 616.224 85.031 616.197 84.857 616.185C84.689 616.173 84.53 616.167 84.38 616.167H82.931V619.488ZM89.537 621V611.28H91.418V621H89.537ZM98.4708 621.279C97.5468 621.273 96.7608 621.072 96.1128 620.676C95.4648 620.28 94.9578 619.71 94.5918 618.966C94.2318 618.216 94.0218 617.313 93.9618 616.257C93.9318 615.747 93.9348 615.183 93.9708 614.565C94.0068 613.941 94.0728 613.338 94.1688 612.756C94.2708 612.174 94.3998 611.688 94.5558 611.298C94.7298 610.866 94.9668 610.47 95.2668 610.11C95.5668 609.744 95.8968 609.438 96.2568 609.192C96.6408 608.928 97.0668 608.724 97.5348 608.58C98.0028 608.43 98.4918 608.313 99.0018 608.229C99.5178 608.145 100.037 608.073 100.559 608.013C101.087 607.947 101.6 607.866 102.098 607.77L102.278 609.453C101.948 609.531 101.558 609.594 101.108 609.642C100.664 609.69 100.202 609.744 99.7218 609.804C99.2478 609.864 98.7948 609.948 98.3628 610.056C97.9308 610.164 97.5558 610.317 97.2378 610.515C96.7878 610.791 96.4428 611.193 96.2028 611.721C95.9688 612.249 95.8278 612.822 95.7798 613.44C96.1518 612.876 96.6258 612.471 97.2018 612.225C97.7778 611.973 98.3748 611.847 98.9928 611.847C99.8568 611.847 100.601 612.051 101.225 612.459C101.855 612.867 102.338 613.422 102.674 614.124C103.01 614.826 103.178 615.621 103.178 616.509C103.178 617.469 102.98 618.309 102.584 619.029C102.194 619.743 101.645 620.301 100.937 620.703C100.229 621.099 99.4068 621.291 98.4708 621.279ZM98.5698 619.506C99.4338 619.506 100.085 619.239 100.523 618.705C100.967 618.171 101.189 617.46 101.189 616.572C101.189 615.66 100.961 614.943 100.505 614.421C100.049 613.899 99.4038 613.638 98.5698 613.638C97.7238 613.638 97.0758 613.899 96.6258 614.421C96.1818 614.943 95.9598 615.66 95.9598 616.572C95.9598 617.496 96.1848 618.216 96.6348 618.732C97.0848 619.248 97.7298 619.506 98.5698 619.506ZM109.923 621.27C108.951 621.27 108.108 621.051 107.394 620.613C106.68 620.175 106.128 619.572 105.738 618.804C105.354 618.03 105.162 617.139 105.162 616.131C105.162 615.117 105.36 614.226 105.756 613.458C106.152 612.684 106.707 612.084 107.421 611.658C108.135 611.226 108.969 611.01 109.923 611.01C110.895 611.01 111.738 611.229 112.452 611.667C113.166 612.105 113.718 612.708 114.108 613.476C114.498 614.244 114.693 615.129 114.693 616.131C114.693 617.145 114.495 618.039 114.099 618.813C113.709 619.581 113.157 620.184 112.443 620.622C111.729 621.054 110.889 621.27 109.923 621.27ZM109.923 619.497C110.853 619.497 111.546 619.185 112.002 618.561C112.464 617.931 112.695 617.121 112.695 616.131C112.695 615.117 112.461 614.307 111.993 613.701C111.531 613.089 110.841 612.783 109.923 612.783C109.293 612.783 108.774 612.927 108.366 613.215C107.958 613.497 107.655 613.89 107.457 614.394C107.259 614.892 107.16 615.471 107.16 616.131C107.16 617.151 107.394 617.967 107.862 618.579C108.33 619.191 109.017 619.497 109.923 619.497ZM121.774 621.27C120.844 621.27 120.064 621.045 119.434 620.595C118.804 620.139 118.327 619.524 118.003 618.75C117.679 617.976 117.517 617.103 117.517 616.131C117.517 615.159 117.676 614.286 117.994 613.512C118.318 612.738 118.792 612.129 119.416 611.685C120.046 611.235 120.82 611.01 121.738 611.01C122.65 611.01 123.436 611.235 124.096 611.685C124.762 612.129 125.275 612.738 125.635 613.512C125.995 614.28 126.175 615.153 126.175 616.131C126.175 617.103 125.995 617.979 125.635 618.759C125.281 619.533 124.774 620.145 124.114 620.595C123.46 621.045 122.68 621.27 121.774 621.27ZM117.202 625.32V611.28H118.876V618.273H119.092V625.32H117.202ZM121.513 619.569C122.113 619.569 122.608 619.416 122.998 619.11C123.394 618.804 123.688 618.393 123.88 617.877C124.078 617.355 124.177 616.773 124.177 616.131C124.177 615.495 124.078 614.919 123.88 614.403C123.688 613.887 123.391 613.476 122.989 613.17C122.587 612.864 122.074 612.711 121.45 612.711C120.862 612.711 120.376 612.855 119.992 613.143C119.614 613.431 119.332 613.833 119.146 614.349C118.966 614.865 118.876 615.459 118.876 616.131C118.876 616.803 118.966 617.397 119.146 617.913C119.326 618.429 119.611 618.834 120.001 619.128C120.391 619.422 120.895 619.569 121.513 619.569ZM132.837 621V611.28H141.036V621H139.155V613.053H134.718V621H132.837ZM148.312 621.27C147.34 621.27 146.497 621.051 145.783 620.613C145.069 620.175 144.517 619.572 144.127 618.804C143.743 618.03 143.551 617.139 143.551 616.131C143.551 615.117 143.749 614.226 144.145 613.458C144.541 612.684 145.096 612.084 145.81 611.658C146.524 611.226 147.358 611.01 148.312 611.01C149.284 611.01 150.127 611.229 150.841 611.667C151.555 612.105 152.107 612.708 152.497 613.476C152.887 614.244 153.082 615.129 153.082 616.131C153.082 617.145 152.884 618.039 152.488 618.813C152.098 619.581 151.546 620.184 150.832 620.622C150.118 621.054 149.278 621.27 148.312 621.27ZM148.312 619.497C149.242 619.497 149.935 619.185 150.391 618.561C150.853 617.931 151.084 617.121 151.084 616.131C151.084 615.117 150.85 614.307 150.382 613.701C149.92 613.089 149.23 612.783 148.312 612.783C147.682 612.783 147.163 612.927 146.755 613.215C146.347 613.497 146.044 613.89 145.846 614.394C145.648 614.892 145.549 615.471 145.549 616.131C145.549 617.151 145.783 617.967 146.251 618.579C146.719 619.191 147.406 619.497 148.312 619.497ZM154.7 621V619.407C155.06 619.473 155.333 619.464 155.519 619.38C155.711 619.29 155.852 619.128 155.942 618.894C156.038 618.66 156.119 618.357 156.185 617.985C156.287 617.439 156.374 616.818 156.446 616.122C156.524 615.42 156.593 614.661 156.653 613.845C156.713 613.029 156.767 612.174 156.815 611.28H163.799V621H161.909V613.053H158.507C158.471 613.527 158.429 614.031 158.381 614.565C158.339 615.093 158.291 615.618 158.237 616.14C158.183 616.662 158.126 617.151 158.066 617.607C158.006 618.063 157.943 618.453 157.877 618.777C157.757 619.425 157.58 619.941 157.346 620.325C157.118 620.703 156.794 620.946 156.374 621.054C155.954 621.168 155.396 621.15 154.7 621ZM166.853 621V611.28H168.743V614.655H170.66C170.936 614.655 171.23 614.661 171.542 614.673C171.86 614.685 172.133 614.715 172.361 614.763C172.883 614.871 173.333 615.051 173.711 615.303C174.095 615.555 174.392 615.891 174.602 616.311C174.812 616.725 174.917 617.235 174.917 617.841C174.917 618.687 174.695 619.362 174.251 619.866C173.813 620.364 173.219 620.7 172.469 620.874C172.229 620.928 171.944 620.964 171.614 620.982C171.29 620.994 170.993 621 170.723 621H166.853ZM168.743 619.488H170.831C170.981 619.488 171.152 619.482 171.344 619.47C171.536 619.458 171.713 619.431 171.875 619.389C172.163 619.305 172.421 619.134 172.649 618.876C172.877 618.618 172.991 618.273 172.991 617.841C172.991 617.397 172.877 617.043 172.649 616.779C172.427 616.515 172.145 616.344 171.803 616.266C171.641 616.224 171.476 616.197 171.308 616.185C171.14 616.173 170.981 616.167 170.831 616.167H168.743V619.488ZM180.904 621.27C179.962 621.27 179.116 621.069 178.366 620.667C177.622 620.265 177.034 619.71 176.602 619.002L178.096 618.021C178.444 618.489 178.846 618.852 179.302 619.11C179.764 619.368 180.283 619.497 180.859 619.497C181.459 619.497 181.933 619.362 182.281 619.092C182.635 618.816 182.812 618.447 182.812 617.985C182.812 617.619 182.71 617.349 182.506 617.175C182.308 616.995 182.032 616.878 181.678 616.824C181.33 616.77 180.934 616.743 180.49 616.743H179.626V615.231H180.49C181.078 615.231 181.561 615.15 181.939 614.988C182.323 614.82 182.515 614.505 182.515 614.043C182.515 613.593 182.35 613.269 182.02 613.071C181.696 612.873 181.309 612.774 180.859 612.774C180.355 612.774 179.866 612.882 179.392 613.098C178.918 613.308 178.504 613.569 178.15 613.881L177.052 612.594C177.568 612.096 178.156 611.709 178.816 611.433C179.482 611.151 180.196 611.01 180.958 611.01C181.582 611.01 182.158 611.121 182.686 611.343C183.22 611.559 183.646 611.88 183.964 612.306C184.288 612.732 184.45 613.257 184.45 613.881C184.45 614.367 184.342 614.811 184.126 615.213C183.91 615.615 183.58 615.981 183.136 616.311L183.082 615.672C183.448 615.786 183.754 615.969 184 616.221C184.246 616.473 184.429 616.77 184.549 617.112C184.675 617.448 184.738 617.805 184.738 618.183C184.738 618.837 184.564 619.395 184.216 619.857C183.874 620.319 183.412 620.67 182.83 620.91C182.248 621.15 181.606 621.27 180.904 621.27ZM191.482 621.27C190.51 621.27 189.667 621.051 188.953 620.613C188.239 620.175 187.687 619.572 187.297 618.804C186.913 618.03 186.721 617.139 186.721 616.131C186.721 615.117 186.919 614.226 187.315 613.458C187.711 612.684 188.266 612.084 188.98 611.658C189.694 611.226 190.528 611.01 191.482 611.01C192.454 611.01 193.297 611.229 194.011 611.667C194.725 612.105 195.277 612.708 195.667 613.476C196.057 614.244 196.252 615.129 196.252 616.131C196.252 617.145 196.054 618.039 195.658 618.813C195.268 619.581 194.716 620.184 194.002 620.622C193.288 621.054 192.448 621.27 191.482 621.27ZM191.482 619.497C192.412 619.497 193.105 619.185 193.561 618.561C194.023 617.931 194.254 617.121 194.254 616.131C194.254 615.117 194.02 614.307 193.552 613.701C193.09 613.089 192.4 612.783 191.482 612.783C190.852 612.783 190.333 612.927 189.925 613.215C189.517 613.497 189.214 613.89 189.016 614.394C188.818 614.892 188.719 615.471 188.719 616.131C188.719 617.151 188.953 617.967 189.421 618.579C189.889 619.191 190.576 619.497 191.482 619.497ZM198.76 621V611.28H203.035C203.317 611.28 203.599 611.298 203.881 611.334C204.163 611.364 204.412 611.409 204.628 611.469C205.12 611.607 205.54 611.883 205.888 612.297C206.236 612.705 206.41 613.251 206.41 613.935C206.41 614.325 206.35 614.655 206.23 614.925C206.11 615.189 205.945 615.417 205.735 615.609C205.639 615.693 205.537 615.768 205.429 615.834C205.321 615.9 205.213 615.951 205.105 615.987C205.327 616.023 205.546 616.101 205.762 616.221C206.092 616.395 206.362 616.647 206.572 616.977C206.788 617.301 206.896 617.736 206.896 618.282C206.896 618.936 206.737 619.485 206.419 619.929C206.101 620.367 205.651 620.667 205.069 620.829C204.841 620.895 204.583 620.94 204.295 620.964C204.013 620.988 203.731 621 203.449 621H198.76ZM200.668 619.515H203.332C203.458 619.515 203.602 619.503 203.764 619.479C203.926 619.455 204.07 619.422 204.196 619.38C204.466 619.296 204.658 619.143 204.772 618.921C204.892 618.699 204.952 618.462 204.952 618.21C204.952 617.868 204.862 617.595 204.682 617.391C204.502 617.181 204.274 617.046 203.998 616.986C203.878 616.944 203.746 616.92 203.602 616.914C203.458 616.908 203.335 616.905 203.233 616.905H200.668V619.515ZM200.668 615.393H202.774C202.948 615.393 203.125 615.384 203.305 615.366C203.485 615.342 203.641 615.303 203.773 615.249C204.007 615.159 204.181 615.009 204.295 614.799C204.409 614.583 204.466 614.349 204.466 614.097C204.466 613.821 204.403 613.575 204.277 613.359C204.151 613.143 203.962 612.993 203.71 612.909C203.536 612.849 203.335 612.816 203.107 612.81C202.885 612.798 202.744 612.792 202.684 612.792H200.668V615.393ZM211.986 621.27C211.266 621.27 210.663 621.138 210.177 620.874C209.691 620.604 209.322 620.25 209.07 619.812C208.824 619.368 208.701 618.882 208.701 618.354C208.701 617.862 208.788 617.43 208.962 617.058C209.136 616.686 209.394 616.371 209.736 616.113C210.078 615.849 210.498 615.636 210.996 615.474C211.428 615.348 211.917 615.237 212.463 615.141C213.009 615.045 213.582 614.955 214.182 614.871C214.788 614.787 215.388 614.703 215.982 614.619L215.298 614.997C215.31 614.235 215.148 613.671 214.812 613.305C214.482 612.933 213.912 612.747 213.102 612.747C212.592 612.747 212.124 612.867 211.698 613.107C211.272 613.341 210.975 613.731 210.807 614.277L209.052 613.737C209.292 612.903 209.748 612.24 210.42 611.748C211.098 611.256 211.998 611.01 213.12 611.01C213.99 611.01 214.746 611.16 215.388 611.46C216.036 611.754 216.51 612.222 216.81 612.864C216.966 613.182 217.062 613.518 217.098 613.872C217.134 614.226 217.152 614.607 217.152 615.015V621H215.487V618.777L215.811 619.065C215.409 619.809 214.896 620.364 214.272 620.73C213.654 621.09 212.892 621.27 211.986 621.27ZM212.319 619.731C212.853 619.731 213.312 619.638 213.696 619.452C214.08 619.26 214.389 619.017 214.623 618.723C214.857 618.429 215.01 618.123 215.082 617.805C215.184 617.517 215.241 617.193 215.253 616.833C215.271 616.473 215.28 616.185 215.28 615.969L215.892 616.194C215.298 616.284 214.758 616.365 214.272 616.437C213.786 616.509 213.345 616.581 212.949 616.653C212.559 616.719 212.211 616.8 211.905 616.896C211.647 616.986 211.416 617.094 211.212 617.22C211.014 617.346 210.855 617.499 210.735 617.679C210.621 617.859 210.564 618.078 210.564 618.336C210.564 618.588 210.627 618.822 210.753 619.038C210.879 619.248 211.071 619.416 211.329 619.542C211.587 619.668 211.917 619.731 212.319 619.731ZM222.54 621V612.972H219.219V611.28H227.742V612.972H224.421V621H222.54ZM234.302 621.27C233.336 621.27 232.487 621.06 231.755 620.64C231.029 620.214 230.462 619.623 230.054 618.867C229.652 618.105 229.451 617.223 229.451 616.221C229.451 615.159 229.649 614.238 230.045 613.458C230.447 612.678 231.005 612.075 231.719 611.649C232.433 611.223 233.264 611.01 234.212 611.01C235.202 611.01 236.045 611.241 236.741 611.703C237.437 612.159 237.956 612.81 238.298 613.656C238.646 614.502 238.784 615.507 238.712 616.671H236.831V615.987C236.819 614.859 236.603 614.025 236.183 613.485C235.769 612.945 235.136 612.675 234.284 612.675C233.342 612.675 232.634 612.972 232.16 613.566C231.686 614.16 231.449 615.018 231.449 616.14C231.449 617.208 231.686 618.036 232.16 618.624C232.634 619.206 233.318 619.497 234.212 619.497C234.8 619.497 235.307 619.365 235.733 619.101C236.165 618.831 236.501 618.447 236.741 617.949L238.586 618.534C238.208 619.404 237.635 620.079 236.867 620.559C236.099 621.033 235.244 621.27 234.302 621.27ZM230.837 616.671V615.204H237.776V616.671H230.837ZM240.371 621V619.407C240.731 619.473 241.004 619.464 241.19 619.38C241.382 619.29 241.523 619.128 241.613 618.894C241.709 618.66 241.79 618.357 241.856 617.985C241.958 617.439 242.045 616.818 242.117 616.122C242.195 615.42 242.264 614.661 242.324 613.845C242.384 613.029 242.438 612.174 242.486 611.28H249.47V621H247.58V613.053H244.178C244.142 613.527 244.1 614.031 244.052 614.565C244.01 615.093 243.962 615.618 243.908 616.14C243.854 616.662 243.797 617.151 243.737 617.607C243.677 618.063 243.614 618.453 243.548 618.777C243.428 619.425 243.251 619.941 243.017 620.325C242.789 620.703 242.465 620.946 242.045 621.054C241.625 621.168 241.067 621.15 240.371 621ZM256.845 621.27C255.879 621.27 255.03 621.06 254.298 620.64C253.572 620.214 253.005 619.623 252.597 618.867C252.195 618.105 251.994 617.223 251.994 616.221C251.994 615.159 252.192 614.238 252.588 613.458C252.99 612.678 253.548 612.075 254.262 611.649C254.976 611.223 255.807 611.01 256.755 611.01C257.745 611.01 258.588 611.241 259.284 611.703C259.98 612.159 260.499 612.81 260.841 613.656C261.189 614.502 261.327 615.507 261.255 616.671H259.374V615.987C259.362 614.859 259.146 614.025 258.726 613.485C258.312 612.945 257.679 612.675 256.827 612.675C255.885 612.675 255.177 612.972 254.703 613.566C254.229 614.16 253.992 615.018 253.992 616.14C253.992 617.208 254.229 618.036 254.703 618.624C255.177 619.206 255.861 619.497 256.755 619.497C257.343 619.497 257.85 619.365 258.276 619.101C258.708 618.831 259.044 618.447 259.284 617.949L261.129 618.534C260.751 619.404 260.178 620.079 259.41 620.559C258.642 621.033 257.787 621.27 256.845 621.27ZM253.38 616.671V615.204H260.319V616.671H253.38ZM268.152 610.164C267.678 610.164 267.243 610.047 266.847 609.813C266.457 609.579 266.145 609.267 265.911 608.877C265.677 608.487 265.56 608.052 265.56 607.572H267.054C267.054 607.872 267.162 608.13 267.378 608.346C267.594 608.562 267.852 608.67 268.152 608.67C268.458 608.67 268.716 608.562 268.926 608.346C269.142 608.13 269.25 607.872 269.25 607.572H270.744C270.744 608.052 270.627 608.487 270.393 608.877C270.159 609.267 269.844 609.579 269.448 609.813C269.058 610.047 268.626 610.164 268.152 610.164ZM272.004 611.28V621H270.195V614.241L265.335 621H263.805V611.28H265.614V617.904L270.483 611.28H272.004ZM279.023 616.077V614.565H284.423V616.077H279.023ZM291.085 620.991L291.094 619.317L296.737 614.259C297.193 613.857 297.502 613.473 297.664 613.107C297.832 612.741 297.916 612.375 297.916 612.009C297.916 611.547 297.814 611.133 297.61 610.767C297.406 610.395 297.124 610.101 296.764 609.885C296.404 609.669 295.99 609.561 295.522 609.561C295.042 609.561 294.613 609.675 294.235 609.903C293.863 610.125 293.572 610.422 293.362 610.794C293.152 611.166 293.05 611.568 293.056 612H291.13C291.13 611.16 291.319 610.425 291.697 609.795C292.081 609.159 292.606 608.664 293.272 608.31C293.938 607.95 294.7 607.77 295.558 607.77C296.374 607.77 297.106 607.956 297.754 608.328C298.402 608.694 298.912 609.198 299.284 609.84C299.662 610.482 299.851 611.214 299.851 612.036C299.851 612.63 299.773 613.134 299.617 613.548C299.461 613.962 299.227 614.346 298.915 614.7C298.603 615.054 298.213 615.438 297.745 615.852L293.389 619.74L293.182 619.2H299.851V620.991H291.085ZM307.067 621.27C306.185 621.27 305.405 621.078 304.727 620.694C304.049 620.304 303.515 619.77 303.125 619.092C302.741 618.414 302.549 617.634 302.549 616.752V612.288C302.549 611.406 302.741 610.626 303.125 609.948C303.515 609.27 304.049 608.739 304.727 608.355C305.405 607.965 306.185 607.77 307.067 607.77C307.949 607.77 308.729 607.965 309.407 608.355C310.085 608.739 310.616 609.27 311 609.948C311.39 610.626 311.585 611.406 311.585 612.288V616.752C311.585 617.634 311.39 618.414 311 619.092C310.616 619.77 310.085 620.304 309.407 620.694C308.729 621.078 307.949 621.27 307.067 621.27ZM307.067 619.47C307.547 619.47 307.982 619.356 308.372 619.128C308.768 618.894 309.083 618.582 309.317 618.192C309.551 617.796 309.668 617.355 309.668 616.869V612.153C309.668 611.673 309.551 611.238 309.317 610.848C309.083 610.452 308.768 610.14 308.372 609.912C307.982 609.678 307.547 609.561 307.067 609.561C306.587 609.561 306.149 609.678 305.753 609.912C305.363 610.14 305.051 610.452 304.817 610.848C304.583 611.238 304.466 611.673 304.466 612.153V616.869C304.466 617.355 304.583 617.796 304.817 618.192C305.051 618.582 305.363 618.894 305.753 619.128C306.149 619.356 306.587 619.47 307.067 619.47ZM314.278 620.991L314.287 619.317L319.93 614.259C320.386 613.857 320.695 613.473 320.857 613.107C321.025 612.741 321.109 612.375 321.109 612.009C321.109 611.547 321.007 611.133 320.803 610.767C320.599 610.395 320.317 610.101 319.957 609.885C319.597 609.669 319.183 609.561 318.715 609.561C318.235 609.561 317.806 609.675 317.428 609.903C317.056 610.125 316.765 610.422 316.555 610.794C316.345 611.166 316.243 611.568 316.249 612H314.323C314.323 611.16 314.512 610.425 314.89 609.795C315.274 609.159 315.799 608.664 316.465 608.31C317.131 607.95 317.893 607.77 318.751 607.77C319.567 607.77 320.299 607.956 320.947 608.328C321.595 608.694 322.105 609.198 322.477 609.84C322.855 610.482 323.044 611.214 323.044 612.036C323.044 612.63 322.966 613.134 322.81 613.548C322.654 613.962 322.42 614.346 322.108 614.7C321.796 615.054 321.406 615.438 320.938 615.852L316.582 619.74L316.375 619.2H323.044V620.991H314.278ZM330.881 621V618.741H325.031V616.959L329.243 608.04H331.394L327.182 616.959H330.881V613.449H332.789V616.959H334.076V618.741H332.789V621H330.881Z" fill="black"></path></g><defs><clipPath id="clip0_3_283"><rect width="400" height="740" fill="white"></rect></clipPath></defs></svg> 