<?xml version="1.0" encoding="UTF-8"?> <svg xmlns="http://www.w3.org/2000/svg" width="60" height="34" viewBox="0 0 60 34" fill="none"><g clip-path="url(#clip0_34_97)"><path d="M53.3333 0H6.66667C2.98477 0 0 3.04446 0 6.8V27.2C0 30.9555 2.98477 34 6.66667 34H53.3333C57.0152 34 60 30.9555 60 27.2V6.8C60 3.04446 57.0152 0 53.3333 0Z" fill="white" fill-opacity="0.9"></path><path fill-rule="evenodd" clip-rule="evenodd" d="M20.6754 22.2784H17.8454L15.7233 13.8311C15.6225 13.4426 15.4087 13.099 15.0941 12.9371C14.3089 12.5302 13.4438 12.2064 12.5 12.0432V11.7179H17.0589C17.6881 11.7179 18.16 12.2064 18.2387 12.7738L19.3398 18.8671L22.1683 11.7179H24.9197L20.6754 22.2784ZM26.4927 22.2792H23.8199L26.0207 11.7187H28.6934L26.4927 22.2792ZM32.1514 14.6442C32.23 14.0754 32.7019 13.7502 33.2525 13.7502C34.1176 13.6686 35.06 13.8319 35.8465 14.2373L36.3184 11.9636C35.5319 11.6384 34.6667 11.4751 33.8817 11.4751C31.2876 11.4751 29.4 12.9379 29.4 14.9681C29.4 16.5125 30.7371 17.3234 31.6808 17.8119C32.7019 18.2991 33.0952 18.6244 33.0165 19.1114C33.0165 19.8422 32.23 20.1674 31.4449 20.1674C30.5012 20.1674 29.5573 19.9238 28.6936 19.5169L28.2217 21.7921C29.1655 22.1975 30.1865 22.3609 31.1303 22.3609C34.039 22.4411 35.8465 20.9797 35.8465 18.7862C35.8465 16.024 32.1514 15.862 32.1514 14.6442ZM45.1991 22.2791L43.0769 11.7186H40.7975C40.3256 11.7186 39.8537 12.0438 39.6964 12.531L35.7667 22.2791H38.518L39.0672 20.7361H42.4478L42.7623 22.2791H45.1991ZM41.1921 14.5629L41.9772 18.5429H39.7763L41.1921 14.5629Z" fill="#172B85"></path></g><defs><clipPath id="clip0_34_97"><rect width="60" height="34" fill="white"></rect></clipPath></defs></svg> 