<?xml version="1.0" encoding="UTF-8"?> <svg xmlns="http://www.w3.org/2000/svg" width="330" height="165" viewBox="0 0 330 165" fill="none"><rect width="330" height="165" fill="white"></rect><g clip-path="url(#clip0_149_182)"><path d="M139.346 98C133 98 127.12 96.0977 123.2 92.5503C121.798 91.2826 120.681 89.7285 119.924 87.9917C119.166 86.2549 118.786 84.3755 118.808 82.4789C118.803 80.5901 119.192 78.7213 119.948 76.9928C120.705 75.2642 121.812 73.7143 123.2 72.4426C126.84 69.1136 133.28 67 139.346 67C146.055 67 151.428 68.7015 155.533 72.4497C156.915 73.7209 158.015 75.2711 158.762 76.9992C159.509 78.7274 159.885 80.5945 159.866 82.4789C159.857 84.3651 159.468 86.2298 158.723 87.9608C157.979 89.6917 156.893 91.2529 155.533 92.5503C151.708 96.1189 145.702 98 139.346 98V93.9207C142.709 93.9207 145.831 92.7511 148.012 90.567C150.192 88.383 151.183 85.7339 151.183 82.4648C151.183 79.3436 150.094 76.4268 148.012 74.3625C145.859 72.2312 142.664 71.03 139.346 71.03C136.028 71.03 132.818 72.2207 130.666 74.3625C128.59 76.4303 127.516 79.3577 127.516 82.4648C127.484 83.9576 127.747 85.4418 128.287 86.8323C128.828 88.2227 129.636 89.492 130.666 90.567C132.818 92.7265 136.007 93.9207 139.346 93.9207V98ZM93.0125 67C89.621 67 85.7675 67.6411 82.5125 69.1136C79.4745 70.4805 77 72.6751 77 76.3141C76.9955 78.2197 77.7155 80.0549 79.0125 81.4432C79.891 82.2605 81.3085 83.6484 85.0115 84.4657C86.667 84.818 90.2055 85.3851 93.73 85.7585C97.2545 86.1319 100.671 86.4631 102.071 86.84C103.184 87.1253 105.056 87.5128 105.056 89.6265C105.056 91.7401 103.086 92.3742 102.743 92.5116C102.4 92.649 100.034 93.741 95.7845 93.741C92.9693 93.6624 90.1797 93.1796 87.5 92.3073C85.9145 91.7366 84.252 90.9863 82.7015 89.0805C82.0758 88.183 81.7286 87.1188 81.704 86.0227H77.854V96.8727H82.131V95.4037C82.1303 95.2948 82.1585 95.1876 82.2127 95.0933C82.2669 94.9989 82.345 94.9208 82.4392 94.867C82.5333 94.8132 82.64 94.7856 82.7482 94.787C82.8565 94.7885 82.9624 94.819 83.055 94.8753C85.0701 95.7578 87.166 96.4398 89.313 96.9115C91.56 97.3835 93.0125 97.7252 95.8055 97.7252C98.7527 97.7816 101.69 97.3642 104.507 96.4887C106.377 95.9728 108.132 95.1011 109.676 93.9207C110.545 93.2491 111.247 92.3839 111.727 91.3931C112.208 90.4022 112.453 89.3128 112.445 88.2103C112.459 86.1159 111.656 84.0994 110.208 82.5951C109.403 81.8087 108.47 81.1665 107.45 80.6964C106.353 80.1977 105.215 79.798 104.048 79.5022C101.829 78.9561 96.845 78.2727 94.4615 78.0332C91.9625 77.7725 87.626 77.4097 85.8935 76.8707C85.3685 76.7051 84.2975 76.1943 84.2975 74.9437C84.2975 74.0525 84.7875 73.2986 85.7535 72.6892C87.29 71.7205 90.391 71.1181 93.625 71.1181C96.7553 71.08 99.86 71.6904 102.746 72.9111C103.521 73.2511 104.251 73.6891 104.916 74.2145C106.001 75.147 106.752 76.4117 107.055 77.8148H110.509V68.3703H106.659V69.4659C106.659 69.8182 106.309 70.2832 105.609 69.8992C103.873 68.9903 98.994 67.0247 93.0125 67ZM177.534 68.7332L196.35 85.8219L196.158 74.3167C196.137 72.8055 195.864 72.1749 194.24 72.1749H190.705V68.7332H206.805V72.1749H203.35C201.698 72.1749 201.6 72.7103 201.572 74.3167L201.863 96.302H196.35L174.675 76.8355V90.6481C174.692 92.1523 174.762 92.8603 176.299 92.8603H180.149V96.302H164.367V92.8603H168.063C169.442 92.8603 169.386 91.5358 169.386 90.5706V74.447C169.386 73.3902 169.239 72.1784 167.076 72.1784H164.08V68.7332H177.534ZM225.173 92.8533C225.491 92.8533 225.809 92.8333 226.125 92.7934C226.289 92.7439 226.44 92.6589 226.568 92.5446C226.696 92.4302 226.798 92.2891 226.866 92.1311C226.915 91.8864 226.939 91.6374 226.94 91.3878V85.9452C226.94 85.762 226.94 85.7585 226.709 85.4697C226.478 85.1808 216.853 74.1969 216.415 73.7037C215.869 73.1049 214.91 72.1784 213.451 72.1784H210.109V68.7332H228.974V72.1714H226.699C226.174 72.1714 225.824 72.6751 226.272 73.2282C226.272 73.2282 232.62 80.8725 232.68 80.9535C232.739 81.0345 232.792 81.0522 232.872 80.9782C232.953 80.9042 239.379 73.2986 239.428 73.2282C239.504 73.1279 239.55 73.0077 239.56 72.8819C239.57 72.7562 239.544 72.6302 239.485 72.5189C239.426 72.4076 239.336 72.3157 239.227 72.2541C239.118 72.1925 238.993 72.1638 238.868 72.1714H236.534V68.7332H252V72.1784H248.545C247.292 72.1784 246.795 72.4109 245.84 73.4818L235.428 85.438C235.326 85.586 235.281 85.7663 235.302 85.9452V91.3843C235.303 91.634 235.329 91.8829 235.379 92.1276C235.446 92.2858 235.547 92.4271 235.674 92.5415C235.802 92.656 235.953 92.7408 236.117 92.7899C236.43 92.8315 236.746 92.8516 237.062 92.8498H240.593V96.295H221.826V92.8498L225.173 92.8533Z" fill="black"></path></g><defs><clipPath id="clip0_149_182"><rect width="175" height="31" fill="white" transform="translate(77 67)"></rect></clipPath></defs></svg> 