<?xml version="1.0" encoding="UTF-8"?> <svg xmlns="http://www.w3.org/2000/svg" width="24" height="24" viewBox="0 0 24 24" fill="none"><g clip-path="url(#clip0_31_411)"><path d="M18.214 9.098C18.3996 9.28738 18.5024 9.54273 18.4998 9.8079C18.4972 10.0731 18.3893 10.3263 18.2 10.512L13.774 14.857C13.0285 15.5941 12.0224 16.0077 10.974 16.008C9.937 16.0073 8.94113 15.6023 8.198 14.879L6.299 13.012C6.20305 12.9205 6.12625 12.8108 6.07309 12.6893C6.01992 12.5679 5.99145 12.437 5.98931 12.3044C5.98718 12.1719 6.01144 12.0402 6.06068 11.9171C6.10991 11.7939 6.18314 11.6818 6.2761 11.5873C6.36907 11.4927 6.4799 11.4176 6.60217 11.3663C6.72443 11.315 6.85568 11.2885 6.98828 11.2884C7.12088 11.2882 7.25218 11.3145 7.37454 11.3656C7.49689 11.4167 7.60787 11.4916 7.701 11.586L9.594 13.447C10.37 14.197 11.595 14.193 12.375 13.429L16.8 9.085C16.8936 8.99278 17.0044 8.91995 17.1262 8.87067C17.248 8.8214 17.3783 8.79666 17.5097 8.79786C17.6411 8.79907 17.7709 8.82621 17.8918 8.87771C18.0126 8.92922 18.1221 9.00408 18.214 9.098ZM24 12C24 18.617 18.617 24 12 24C5.383 24 0 18.617 0 12C0 5.383 5.383 0 12 0C18.617 0 24 5.383 24 12ZM22 12C22 6.486 17.514 2 12 2C6.486 2 2 6.486 2 12C2 17.514 6.486 22 12 22C17.514 22 22 17.514 22 12Z" fill="#FE6A08"></path></g><defs><clipPath id="clip0_31_411"><rect width="24" height="24" fill="white"></rect></clipPath></defs></svg> 