<?xml version="1.0" encoding="UTF-8"?> <svg xmlns="http://www.w3.org/2000/svg" width="330" height="165" viewBox="0 0 330 165" fill="none"><rect width="330" height="165" fill="white"></rect><g clip-path="url(#clip0_149_180)"><path d="M130.481 65.3632C126.034 65.6368 124.105 67.7492 122.657 69.2496C121.106 70.8511 120.244 74.224 120.244 74.224V65.4319H102.907C101.597 65.4319 100.355 65.9765 99.4248 67.272C98.4601 68.5338 94.4963 75.0086 94.4963 75.0086H163.055V65.3632H130.481ZM216.791 65.3632C212.38 65.6368 210.415 67.7492 208.968 69.2496C207.416 70.8511 206.554 74.224 206.554 74.224V75.0086H251.64V65.3632H216.791ZM164.743 65.3982V75.0086H174.499V65.3982H164.743ZM196.731 65.3982V75.0086H206.45V65.3982H196.731ZM94.0815 75.5882L77.3301 101.626H88.7738L104.906 76.7462L94.0815 75.5882ZM164.846 75.7244V89.7442C164.831 89.4571 164.812 89.05 164.812 89.05C164.571 87.6183 161.813 81.2797 155.885 80.7338C152.334 80.3927 120.727 77.9055 120.727 77.9055C121.348 81.0411 122.761 82.6426 123.726 83.5283C125.932 85.607 129.413 86.2217 129.413 86.2217C130.24 86.2891 153.782 88.2317 153.782 88.2317C154.541 88.2654 155.954 88.4703 155.92 90.3104C155.92 90.549 155.713 92.1519 153.92 92.1519H119.83V77.8368L110.351 77.156C110.317 77.156 110.317 101.626 110.317 101.626H155.885C163.812 100.058 164.64 92.9014 164.64 92.9014C164.78 92.1195 164.827 91.4307 164.846 90.82V92.7989C166.398 100.978 173.878 101.626 173.878 101.626C173.878 101.626 174.636 101.66 174.774 101.693H197.007C197.007 101.693 206.52 100.944 206.52 91.8782L206.45 78.4852L196.869 77.9055V89.05C196.869 89.05 196.833 92.253 193.698 92.253H177.29C177.29 92.253 174.499 92.0144 174.499 89.0837V76.4065L164.846 75.7244ZM207.141 78.4852C208.071 81.7219 209.347 82.7114 210.312 83.5971C212.518 85.7095 215.791 86.1867 215.791 86.1867C216.619 86.2554 240.403 88.2317 240.403 88.2317C241.161 88.2654 242.712 88.3342 242.712 90.1743C242.712 90.7202 242.436 91.2999 242.091 91.6059C242.091 91.6059 241.264 92.0494 240.472 92.0494H206.623L206.52 101.693H241.402C250.158 101.183 251.398 92.9688 251.398 92.9688C251.708 90.8227 251.468 89.05 251.468 89.05C251.226 87.1074 248.435 81.2447 242.471 80.6664C238.956 80.3253 207.141 78.4852 207.141 78.4852Z" fill="black"></path></g><defs><clipPath id="clip0_149_180"><rect width="175" height="37" fill="white" transform="translate(77 65)"></rect></clipPath></defs></svg> 