<?xml version="1.0" encoding="UTF-8"?> <svg xmlns="http://www.w3.org/2000/svg" width="43" height="33" viewBox="0 0 43 33" fill="none"><path fill-rule="evenodd" clip-rule="evenodd" d="M35.1062 14.0499H29.1196V11.816C29.1196 11.4429 28.9712 11.0867 28.7075 10.8226C28.4437 10.5598 28.0865 10.4125 27.7135 10.4125C26.1696 10.4125 21.8784 10.4125 20.3345 10.4125C19.9619 10.4125 19.6039 10.5598 19.3401 10.8226C19.0768 11.0867 18.9285 11.4429 18.9285 11.816V14.0604C10.6736 14.3252 3.49624 19.8809 1.21479 27.8532L0.352697 30.8652C0.227697 31.3019 0.315197 31.772 0.58939 32.1346C0.863582 32.4973 1.29261 32.7114 1.74785 32.7114C6.97647 32.7114 36.0461 32.7114 40.8461 32.7114C41.2558 32.7114 41.6469 32.5375 41.9219 32.2345C42.1969 31.9306 42.3304 31.5257 42.2897 31.1187L40.6651 14.9C40.6655 14.8662 40.6635 14.8319 40.6598 14.7969C40.6598 14.7969 39.7062 6.43418 39.309 2.95134C39.1635 1.67501 38.0812 0.711426 36.7941 0.711426C32.7175 0.711426 21.4881 0.711426 17.2075 0.711426C15.8099 0.711426 14.6769 1.84285 14.6769 3.23792C14.6769 3.32768 14.6769 3.41744 14.6769 3.50679C14.6769 4.17655 14.9434 4.81975 15.418 5.29349C15.8926 5.76764 16.5365 6.03329 17.2075 6.03329H34.0131L35.1062 14.0499ZM40.3893 29.0732H2.62043L2.06116 31.027H40.5848L40.3893 29.0732ZM36.0607 15.7348H19.547C12.1144 15.7348 5.54462 20.4456 3.13092 27.3884H40.2203L39.053 15.7348H36.0788C36.0752 15.7348 36.0716 15.7348 36.0683 15.7348H36.0607ZM27.4321 14.0499H20.6159V12.0962H27.4321V14.0499ZM38.8764 14.0499L37.6324 3.14213C37.584 2.71668 37.2232 2.39509 36.7941 2.39509H17.2075C16.7418 2.39509 16.3639 2.77223 16.3639 3.23792C16.3639 3.32768 16.3639 3.41744 16.3639 3.50679C16.3639 3.73058 16.4531 3.94471 16.6111 4.10249C16.7692 4.26027 16.9841 4.34882 17.2075 4.34882C21.8982 4.34882 34.7494 4.34882 34.7494 4.34882C35.1716 4.34882 35.5284 4.65996 35.5853 5.07735L36.8091 14.0499H38.8764Z" fill="#666666" fill-opacity="0.15"></path></svg> 