<?xml version="1.0" encoding="UTF-8"?> <svg xmlns="http://www.w3.org/2000/svg" width="40" height="44" viewBox="0 0 40 44" fill="none"><path fill-rule="evenodd" clip-rule="evenodd" d="M10.5579 5.92445H7.74113C7.52847 5.92315 4.49435 5.91663 2.61798 6.58137C1.41537 7.006 0.67819 7.76496 0.6398 8.66546C0.611331 9.34236 1.12378 10.6618 1.95024 12.1411C3.40735 14.7488 5.73276 18.0143 6.35865 18.8823L5.63355 37.1302C4.98609 37.1767 4.37401 37.4559 3.91203 37.9218C3.4039 38.4328 3.11877 39.1253 3.11877 39.8491C3.11877 40.2915 3.11877 40.7648 3.11877 41.2072C3.11877 41.9297 3.4039 42.6222 3.91203 43.1337C4.41973 43.6448 5.10816 43.9326 5.82636 43.9326C11.1363 43.9326 26.6623 43.9326 31.9718 43.9326C32.69 43.9326 33.3789 43.6448 33.8866 43.1337C34.3943 42.6222 34.6794 41.9297 34.6794 41.2072V39.8491C34.6794 39.1253 34.3943 38.4328 33.8866 37.9218C33.4246 37.4559 32.8125 37.1767 32.1647 37.1302L31.9037 30.5545H33.6442C34.572 30.5545 35.4382 30.0856 35.9493 29.3062C36.8224 27.9746 38.4939 25.4259 39.1819 24.3769C39.4799 23.9219 39.6387 23.3896 39.6387 22.8451C39.6387 21.2521 39.6387 13.1871 39.6387 10.5763C39.6387 9.04103 38.402 7.79622 36.8767 7.79622H30.8818C30.5074 6.70381 29.4765 5.92445 28.2708 5.92445H27.2408V3.658C27.2408 2.93465 26.9552 2.24212 26.4475 1.73065C25.9398 1.21918 25.251 0.932617 24.5332 0.932617C21.6716 0.932617 16.1266 0.932617 13.2654 0.932617C12.5472 0.932617 11.8588 1.21918 11.3507 1.73065C10.843 2.24212 10.5579 2.93465 10.5579 3.658V5.92445ZM31.9718 38.9399H5.82636C5.58696 38.9399 5.35749 39.0354 5.1884 39.2065C5.01887 39.3767 4.92398 39.6077 4.92398 39.8491C4.92398 40.2915 4.92398 40.7648 4.92398 41.2072C4.92398 41.4473 5.01887 41.6783 5.1884 41.8485C5.35749 42.0196 5.58696 42.1156 5.82636 42.1156C11.1363 42.1156 26.6623 42.1156 31.9718 42.1156C32.2112 42.1156 32.4407 42.0196 32.6102 41.8485C32.7793 41.6783 32.8747 41.4473 32.8747 41.2072V39.8491C32.8747 39.6077 32.7793 39.3767 32.6102 39.2065C32.4407 39.0354 32.2112 38.9399 31.9718 38.9399ZM11.4602 7.74065H8.60815L7.44048 37.1237H30.3582L30.0812 30.1598C29.9872 30.0222 29.9303 29.8563 29.9242 29.6766L29.8069 26.1427C29.7883 26.075 29.7776 26.0029 29.7754 25.9295L29.577 19.2036L29.2302 8.73754L29.2272 8.66633C29.2064 8.14965 28.7846 7.74065 28.2708 7.74065H11.4602ZM22.9014 15.5681C22.9014 14.8309 22.6102 14.124 22.0922 13.6026C21.5741 13.0803 20.8715 12.7881 20.139 12.7881C19.3548 12.7881 18.4438 12.7881 17.6592 12.7881C16.9267 12.7881 16.2241 13.0803 15.706 13.6026C15.188 14.124 14.8972 14.8309 14.8972 15.5681C14.8972 18.927 14.8972 25.9374 14.8972 29.2962C14.8972 30.033 15.188 30.7403 15.706 31.2626C16.2241 31.7837 16.9267 32.0763 17.6592 32.0763C18.4438 32.0763 19.3548 32.0763 20.139 32.0763C20.8715 32.0763 21.5741 31.7837 22.0922 31.2626C22.6102 30.7403 22.9014 30.033 22.9014 29.2962V15.5681ZM16.702 27.7088V29.2962C16.702 29.552 16.803 29.7964 16.9824 29.9775C17.1618 30.1576 17.4055 30.2601 17.6592 30.2601C18.4438 30.2601 19.3548 30.2601 20.139 30.2601C20.3927 30.2601 20.6364 30.1576 20.8158 29.9775C20.9953 29.7964 21.0962 29.552 21.0962 29.2962V15.5681C21.0962 15.3124 20.9953 15.068 20.8158 14.8865C20.6364 14.7067 20.3927 14.6056 20.139 14.6056C19.3548 14.6056 18.4438 14.6056 17.6592 14.6056C17.4055 14.6056 17.1618 14.7067 16.9824 14.8865C16.803 15.068 16.702 15.3124 16.702 15.5681V17.1564H18.8993C19.3971 17.1564 19.8017 17.5632 19.8017 18.0643C19.8017 18.5658 19.3971 18.9726 18.8993 18.9726H16.702V21.5234H18.8993C19.3971 21.5234 19.8017 21.9303 19.8017 22.4326C19.8017 22.9341 19.3971 23.3409 18.8993 23.3409H16.702V25.8918H18.8993C19.3971 25.8918 19.8017 26.2986 19.8017 26.7997C19.8017 27.3011 19.3971 27.7088 18.8993 27.7088H16.702ZM31.0712 9.61242L31.148 11.5398H35.0167C35.5154 11.5398 35.9196 11.9466 35.9196 12.449V22.1591C35.9196 22.338 35.8665 22.5138 35.7677 22.6627L33.2883 26.4063C33.121 26.6598 32.8389 26.8109 32.5373 26.8109H31.7549L31.8312 28.7383H33.6442C33.9655 28.7383 34.2658 28.5759 34.443 28.305L37.6756 23.3752C37.7787 23.2172 37.8339 23.0327 37.8339 22.8451V10.5763C37.8339 10.0449 37.4051 9.61242 36.8767 9.61242H31.0712ZM31.22 13.3573H34.1144V21.8834L32.0542 24.9947H31.6824L31.22 13.3573ZM6.80079 7.75715C6.03859 7.78754 4.93002 7.8696 3.95559 8.08756C3.46817 8.19741 3.01568 8.33548 2.6857 8.53651C2.6197 8.57645 2.56017 8.61857 2.51014 8.66416C2.4821 8.69108 2.445 8.70758 2.44328 8.74318C2.43724 8.89124 2.50539 9.08792 2.59296 9.3289C2.78793 9.86599 3.12136 10.5307 3.52381 11.2506C4.38263 12.7881 5.55246 14.5608 6.47684 15.9068L6.80079 7.75715ZM25.4356 5.92445H12.3626V3.658C12.3626 3.41703 12.458 3.18561 12.627 3.01541C12.7961 2.84434 13.026 2.74882 13.2654 2.74882C16.1266 2.74882 21.6716 2.74882 24.5332 2.74882C24.7726 2.74882 25.0021 2.84434 25.1712 3.01541C25.3407 3.18561 25.4356 3.41703 25.4356 3.658V5.92445Z" fill="#666666" fill-opacity="0.15"></path></svg> 