<?xml version="1.0" encoding="UTF-8"?> <svg xmlns="http://www.w3.org/2000/svg" width="330" height="165" viewBox="0 0 330 165" fill="none"><rect width="330" height="165" fill="white"></rect><path d="M211.989 86.9967H218.514V93.0926C217.317 93.5513 214.966 94.0101 212.738 94.0101C205.521 94.0101 203.121 90.3305 203.121 82.8584C203.121 75.7274 205.406 71.5309 212.616 71.5309C216.635 71.5309 218.914 72.7972 220.804 75.2119L225.79 70.6118C222.745 66.2519 217.432 64.9305 212.443 64.9305C201.226 64.9261 195.328 71.0707 195.328 82.799C195.328 94.469 200.657 100.795 212.383 100.795C217.767 100.795 223.029 99.4188 225.895 97.4017V80.4999H211.989L211.989 86.9967ZM177.763 93.4936H194.368V100.278H169.75V65.4418H177.764L177.763 93.4936Z" fill="#6B6C6B"></path><path d="M149.889 102.051C160.364 91.531 160.363 74.4729 149.888 63.9549C139.412 53.435 122.428 53.4337 111.956 63.9539C101.48 74.474 101.481 91.5323 111.957 102.05C122.432 112.571 139.416 112.571 149.889 102.051Z" fill="#A50034"></path><path d="M122.783 77.7483C123.395 77.7454 123.992 77.5604 124.499 77.2169C125.006 76.8735 125.401 76.387 125.633 75.8186C125.865 75.2502 125.924 74.6255 125.803 74.0235C125.681 73.4213 125.385 72.8688 124.952 72.4355C124.518 72.0023 123.967 71.7076 123.367 71.5889C122.767 71.4702 122.145 71.5326 121.58 71.7683C121.015 72.0042 120.533 72.4026 120.193 72.9137C119.854 73.4246 119.673 74.025 119.673 74.6393C119.674 75.0485 119.755 75.4537 119.912 75.8314C120.069 76.2092 120.298 76.5522 120.587 76.8409C120.876 77.1296 121.219 77.3583 121.595 77.514C121.972 77.6698 122.376 77.7493 122.783 77.7483ZM151.154 83.8562H137.514V81.827H153.154C153.175 82.22 153.186 82.6129 153.186 83.0106C153.186 95.2298 143.27 105.135 131.041 105.135C118.812 105.135 108.895 95.2359 108.895 83.0106C108.895 70.7863 118.809 60.8862 131.039 60.8862C131.362 60.8862 131.683 60.8928 132.003 60.9061V62.9202C131.683 62.9058 131.363 62.8988 131.042 62.8988C119.926 62.8988 110.912 71.9033 110.912 83.0085C110.912 94.114 119.925 103.12 131.042 103.12C141.853 103.12 150.685 94.6005 151.153 83.9127L151.154 83.8562ZM137.483 92.3105H132.001V71.626H129.974V94.3536H132.006V94.34H137.487L137.483 92.3105Z" fill="white"></path></svg> 