<?xml version="1.0" encoding="UTF-8"?> <svg xmlns="http://www.w3.org/2000/svg" width="30" height="30" viewBox="0 0 30 30" fill="none"><path fill-rule="evenodd" clip-rule="evenodd" d="M16.8587 2.47071C16.7842 2.35337 16.6837 2.25473 16.565 2.18239C16.4463 2.11005 16.3126 2.06596 16.1742 2.05351C15.393 1.98216 14.607 1.98216 13.8258 2.05351C13.6874 2.06596 13.5537 2.11005 13.435 2.18239C13.3163 2.25473 13.2158 2.35337 13.1413 2.47071L11.8438 4.51559C11.1417 4.72647 10.4627 5.00764 9.81705 5.35483L7.45413 4.82637C7.31874 4.79599 7.17817 4.7972 7.04332 4.82991C6.90847 4.86263 6.78298 4.92597 6.67656 5.01502C6.07314 5.51687 5.51687 6.07314 5.01502 6.67656C4.92597 6.78298 4.86263 6.90847 4.82991 7.04332C4.7972 7.17817 4.79599 7.31874 4.82637 7.45413L5.35362 9.81826C5.00702 10.4642 4.72588 11.1431 4.51438 11.845L2.47071 13.1413C2.35337 13.2158 2.25473 13.3163 2.18239 13.435C2.11005 13.5537 2.06596 13.6874 2.05351 13.8258C1.98216 14.607 1.98216 15.393 2.05351 16.1742C2.06596 16.3126 2.11005 16.4463 2.18239 16.565C2.25473 16.6837 2.35337 16.7842 2.47071 16.8587L4.51559 18.1562C4.726 18.8576 5.00777 19.5372 5.35483 20.1829L4.82637 22.5459C4.79599 22.6813 4.7972 22.8218 4.82991 22.9567C4.86263 23.0915 4.92597 23.217 5.01502 23.3234C5.51687 23.9269 6.07314 24.4831 6.67656 24.985C6.78298 25.074 6.90847 25.1374 7.04332 25.1701C7.17817 25.2028 7.31874 25.204 7.45413 25.1736L9.81826 24.6464C10.4642 24.993 11.1431 25.2741 11.845 25.4856L13.1413 27.5293C13.2158 27.6466 13.3163 27.7453 13.435 27.8176C13.5537 27.8899 13.6874 27.934 13.8258 27.9465C14.607 28.0178 15.393 28.0178 16.1742 27.9465C16.3126 27.934 16.4463 27.8899 16.565 27.8176C16.6837 27.7453 16.7842 27.6466 16.8587 27.5293L18.1562 25.4844C18.8583 25.2735 19.5373 24.9924 20.1829 24.6452L22.5459 25.1736C22.6813 25.204 22.8218 25.2028 22.9567 25.1701C23.0915 25.1374 23.217 25.074 23.3234 24.985C23.9269 24.4831 24.4831 23.9269 24.985 23.3234C25.074 23.217 25.1374 23.0915 25.1701 22.9567C25.2028 22.8218 25.204 22.6813 25.1736 22.5459L24.6464 20.1817C24.993 19.5358 25.2741 18.8569 25.4856 18.155L27.5293 16.8587C27.6466 16.7842 27.7453 16.6837 27.8176 16.565C27.8899 16.4463 27.934 16.3126 27.9465 16.1742C28.0178 15.393 28.0178 14.607 27.9465 13.8258C27.934 13.6874 27.8899 13.5537 27.8176 13.435C27.7453 13.3163 27.6466 13.2158 27.5293 13.1413L25.4844 11.8438C25.2735 11.1417 24.9924 10.4627 24.6452 9.81705L25.1736 7.45413C25.204 7.31874 25.2028 7.17817 25.1701 7.04332C25.1374 6.90847 25.074 6.78298 24.985 6.67656C24.4831 6.07309 23.9269 5.51692 23.3234 5.01502C23.217 4.92597 23.0915 4.86263 22.9567 4.82991C22.8218 4.7972 22.6813 4.79599 22.5459 4.82637L20.1817 5.35362C19.5358 5.00702 18.8569 4.72588 18.155 4.51438L16.8587 2.47071ZM15.572 3.82872L16.8103 5.77928C16.9326 5.97193 17.123 6.1114 17.3436 6.16988C18.1296 6.37787 18.8842 6.69108 19.5868 7.0986C19.7839 7.21338 20.0171 7.24965 20.2398 7.20018L22.4951 6.69591C22.7781 6.95228 23.0477 7.22195 23.3029 7.50492L22.7998 9.76021C22.7503 9.98291 22.7866 10.2161 22.9014 10.4132C23.3089 11.1158 23.6221 11.8704 23.8301 12.6564C23.8886 12.877 24.0281 13.0674 24.2207 13.1897L26.1713 14.428C26.1906 14.8089 26.1906 15.1911 26.1713 15.572L24.2207 16.8103C24.0281 16.9326 23.8886 17.123 23.8301 17.3436C23.6218 18.1293 23.3095 18.8837 22.9014 19.5868C22.7866 19.7839 22.7503 20.0171 22.7998 20.2398L23.3041 22.4951C23.0482 22.7778 22.7782 23.0474 22.4951 23.3029L20.2398 22.7998C20.0171 22.7503 19.7839 22.7866 19.5868 22.9014C18.8837 23.3095 18.1293 23.6218 17.3436 23.8301C17.123 23.8886 16.9326 24.0281 16.8103 24.2207L15.572 26.1713C15.1909 26.1906 14.8091 26.1906 14.428 26.1713L13.1897 24.2207C13.0674 24.0281 12.877 23.8886 12.6564 23.8301C11.8707 23.6218 11.1163 23.3095 10.4132 22.9014C10.2161 22.7866 9.98291 22.7503 9.76021 22.7998L7.50492 23.3041C7.22221 23.0482 6.9526 22.7782 6.69712 22.4951L7.20018 20.2398C7.24965 20.0171 7.21338 19.7839 7.0986 19.5868C6.69049 18.8837 6.37816 18.1293 6.16988 17.3436C6.1114 17.123 5.97193 16.9326 5.77928 16.8103L3.82872 15.572C3.80938 15.1909 3.80938 14.8091 3.82872 14.428L5.77928 13.1897C5.97193 13.0674 6.1114 12.877 6.16988 12.6564C6.37787 11.8704 6.69108 11.1158 7.0986 10.4132C7.21338 10.2161 7.24965 9.98291 7.20018 9.76021L6.69591 7.50492C6.95228 7.22195 7.22195 6.95228 7.50492 6.69712L9.76021 7.20018C9.98291 7.24965 10.2161 7.21338 10.4132 7.0986C11.1163 6.69049 11.8707 6.37816 12.6564 6.16988C12.877 6.1114 13.0674 5.97193 13.1897 5.77928L14.428 3.82872C14.8089 3.80938 15.1923 3.80938 15.572 3.82872ZM15 9.12293C11.7567 9.12293 9.12293 11.7567 9.12293 15C9.12293 18.2433 11.7567 20.8771 15 20.8771C18.2433 20.8771 20.8771 18.2433 20.8771 15C20.8771 11.7567 18.2433 9.12293 15 9.12293ZM15 10.9368C17.242 10.9368 19.0632 12.758 19.0632 15C19.0632 17.242 17.242 19.0632 15 19.0632C12.758 19.0632 10.9368 17.242 10.9368 15C10.9368 12.758 12.758 10.9368 15 10.9368Z" fill="#FE6A08"></path></svg> 