<?xml version="1.0" encoding="UTF-8"?> <svg xmlns="http://www.w3.org/2000/svg" width="41" height="27" viewBox="0 0 41 27" fill="none"><path d="M6.05403 23.5729C4.65957 23.5729 3.45481 23.4449 2.44086 23.1886C1.42635 22.9111 0.612734 22.5694 0 22.1637L0.855588 18.8007C1.40509 19.1637 2.11295 19.516 2.97973 19.8577C3.84596 20.1779 4.8392 20.3381 5.95891 20.3381C7.48039 20.3381 8.64262 19.9217 9.44561 19.089C10.2699 18.2562 10.6817 17.178 10.6817 15.8541C10.6817 14.5516 10.365 13.548 9.73099 12.8435C9.097 12.1388 8.14628 11.7865 6.87828 11.7865C6.01206 11.7865 5.3042 11.9146 4.7547 12.1708C4.22646 12.4271 3.82469 12.726 3.54994 13.0676H0.602104V0.320315H13.5982V3.68331H4.05747V9.6726C4.45869 9.37365 4.95559 9.11746 5.54706 8.90395C6.15979 8.69039 6.91018 8.58364 7.79766 8.58364C8.83288 8.58364 9.77352 8.74377 10.6185 9.06408C11.4847 9.38434 12.2138 9.8541 12.8059 10.4733C13.4186 11.0712 13.8937 11.8078 14.2322 12.6833C14.5702 13.5587 14.7392 14.5623 14.7392 15.6939C14.7392 16.8683 14.5383 17.936 14.1371 18.8968C13.7353 19.8577 13.1545 20.6904 12.3934 21.395C11.633 22.0783 10.7136 22.6121 9.63587 22.9964C8.57939 23.3808 7.38526 23.5729 6.05403 23.5729ZM17.7396 26.6797C18.1414 26.21 18.5107 25.6549 18.8493 25.0143C19.1872 24.3737 19.4301 23.7544 19.5778 23.1566C18.9863 22.9858 18.5426 22.6869 18.2466 22.2598C17.9511 21.8327 17.8029 21.363 17.8029 20.8505C17.8029 20.1459 18.0356 19.5588 18.5006 19.089C18.9863 18.6192 19.5991 18.3844 20.3388 18.3844C21.1206 18.3844 21.7439 18.6299 22.2089 19.121C22.6952 19.5908 22.9381 20.2954 22.9381 21.2349C22.9381 21.79 22.8536 22.3452 22.6846 22.9004C22.5156 23.4556 22.3041 23.9786 22.0506 24.4698C21.7971 24.9822 21.5117 25.452 21.1944 25.879C20.899 26.3274 20.603 26.7011 20.3069 27L17.7396 26.6797ZM33.2975 23.5729C32.1778 23.5729 31.1425 23.3488 30.1913 22.9004C29.2405 22.452 28.4163 21.7473 27.7191 20.7865C27.0425 19.8256 26.5042 18.6086 26.1025 17.1353C25.7219 15.6406 25.5317 13.847 25.5317 11.7544C25.5317 9.68328 25.7219 7.91106 26.1025 6.43773C26.5042 4.94308 27.0425 3.726 27.7191 2.78648C28.4163 1.82565 29.2405 1.12101 30.1913 0.672631C31.1425 0.224191 32.1778 0 33.2975 0C34.4177 0 35.4423 0.224191 36.3723 0.672631C37.323 1.12101 38.1367 1.81496 38.8132 2.75448C39.5104 3.69394 40.0493 4.90039 40.4292 6.37367C40.8097 7.847 41 9.61922 41 11.6904C41 13.7616 40.8097 15.5445 40.4292 17.0392C40.0493 18.5338 39.5104 19.7723 38.8132 20.7545C38.1367 21.7153 37.323 22.4306 36.3723 22.9004C35.4423 23.3488 34.4177 23.5729 33.2975 23.5729ZM33.2661 20.3381C33.8789 20.3381 34.4177 20.1993 34.8827 19.9217C35.3472 19.6228 35.7277 19.1424 36.0237 18.4804C36.3404 17.8185 36.5732 16.9431 36.7209 15.8541C36.8899 14.7438 36.9744 13.3879 36.9744 11.7865C36.9744 10.185 36.8899 8.83989 36.7209 7.75088C36.5732 6.66192 36.3404 5.78647 36.0237 5.12458C35.7277 4.44132 35.3472 3.96087 34.8827 3.68331C34.439 3.38436 33.9108 3.23487 33.2975 3.23487C32.6847 3.23487 32.1352 3.38436 31.6495 3.68331C31.1845 3.96087 30.7934 4.44132 30.4766 5.12458C30.1599 5.78647 29.9165 6.66192 29.7475 7.75088C29.5998 8.83989 29.5259 10.185 29.5259 11.7865C29.5259 13.3879 29.5998 14.7438 29.7475 15.8541C29.9165 16.9431 30.1599 17.8185 30.4766 18.4804C30.7934 19.1424 31.1845 19.6228 31.6495 19.9217C32.1145 20.1993 32.6534 20.3381 33.2661 20.3381Z" fill="black"></path></svg> 