<?xml version="1.0" encoding="UTF-8"?> <svg xmlns="http://www.w3.org/2000/svg" width="96" height="12" viewBox="0 0 96 12" fill="none"><path fill-rule="evenodd" clip-rule="evenodd" d="M28.9879 9.83261L25.7112 11.9234C25.6294 11.9753 25.5348 12.0006 25.4393 11.9962C25.3438 11.9918 25.2519 11.9578 25.1748 11.8986C25.0978 11.8394 25.0395 11.7577 25.0068 11.6638C24.9744 11.5699 24.9694 11.468 24.9924 11.3711L25.9423 7.41833L23.1871 5.17839C23.1103 5.11623 23.0532 5.03124 23.0232 4.93457C22.9935 4.83787 22.9923 4.73403 23.0199 4.63664C23.0475 4.53922 23.1024 4.4528 23.178 4.38869C23.2534 4.32459 23.3455 4.28578 23.4425 4.27738L27.0471 3.96759L28.5507 0.305736C28.5879 0.21492 28.6498 0.137521 28.7287 0.0831605C28.8077 0.0288005 28.9003 -0.000119628 28.9949 3.71932e-07C29.0895 0.000120372 29.1819 0.029256 29.2608 0.083784C29.3395 0.138336 29.4012 0.215881 29.4384 0.306793L30.9291 3.96759L34.5576 4.27841C34.6543 4.28686 34.7465 4.32562 34.8219 4.38958C34.8972 4.45354 34.9522 4.53977 34.98 4.63697C35.0076 4.7342 35.0067 4.83787 34.9769 4.93445C34.9474 5.03105 34.8905 5.11606 34.8139 5.17839L32.0477 7.41833L32.9957 11.3732C33.019 11.4702 33.0142 11.5722 32.9818 11.6663C32.9494 11.7604 32.8911 11.8424 32.814 11.9017C32.737 11.961 32.6446 11.9951 32.5491 11.9995C32.4535 12.0039 32.3587 11.9785 32.2769 11.9266L28.9879 9.83156V9.83261Z" fill="#FFCC00"></path><path fill-rule="evenodd" clip-rule="evenodd" d="M43.9879 9.83261L40.7112 11.9234C40.6294 11.9753 40.5348 12.0006 40.4393 11.9962C40.3438 11.9918 40.2519 11.9578 40.1748 11.8986C40.0978 11.8394 40.0395 11.7577 40.0068 11.6638C39.9744 11.5699 39.9694 11.468 39.9924 11.3711L40.9423 7.41833L38.1871 5.17839C38.1103 5.11623 38.0532 5.03124 38.0232 4.93457C37.9935 4.83787 37.9923 4.73403 38.0199 4.63664C38.0475 4.53922 38.1024 4.4528 38.178 4.38869C38.2534 4.32459 38.3455 4.28578 38.4425 4.27738L42.0471 3.96759L43.5507 0.305736C43.5879 0.21492 43.6498 0.137521 43.7287 0.0831605C43.8077 0.0288005 43.9003 -0.000119628 43.9949 3.71932e-07C44.0895 0.000120372 44.1819 0.029256 44.2608 0.083784C44.3395 0.138336 44.4012 0.215881 44.4384 0.306793L45.9291 3.96759L49.5576 4.27841C49.6543 4.28686 49.7465 4.32562 49.8219 4.38958C49.8972 4.45354 49.9522 4.53977 49.98 4.63697C50.0076 4.7342 50.0067 4.83787 49.9769 4.93445C49.9474 5.03105 49.8905 5.11606 49.8139 5.17839L47.0477 7.41833L47.9957 11.3732C48.019 11.4702 48.0142 11.5722 47.9818 11.6663C47.9494 11.7604 47.8911 11.8424 47.814 11.9017C47.737 11.961 47.6446 11.9951 47.5491 11.9995C47.4535 12.0039 47.3587 11.9785 47.2769 11.9266L43.9879 9.83156V9.83261Z" fill="#FFCC00"></path><path fill-rule="evenodd" clip-rule="evenodd" d="M59.9879 9.83261L56.7112 11.9234C56.6294 11.9753 56.5348 12.0006 56.4393 11.9962C56.3438 11.9918 56.2519 11.9578 56.1748 11.8986C56.0978 11.8394 56.0395 11.7577 56.0068 11.6638C55.9744 11.5699 55.9694 11.468 55.9924 11.3711L56.9423 7.41833L54.1871 5.17839C54.1103 5.11623 54.0532 5.03124 54.0232 4.93457C53.9935 4.83787 53.9923 4.73403 54.0199 4.63664C54.0475 4.53922 54.1024 4.4528 54.178 4.38869C54.2534 4.32459 54.3455 4.28578 54.4425 4.27738L58.0471 3.96759L59.5507 0.305736C59.5879 0.21492 59.6498 0.137521 59.7287 0.0831605C59.8077 0.0288005 59.9003 -0.000119628 59.9949 3.71932e-07C60.0895 0.000120372 60.1819 0.029256 60.2608 0.083784C60.3395 0.138336 60.4012 0.215881 60.4384 0.306793L61.9291 3.96759L65.5576 4.27841C65.6543 4.28686 65.7465 4.32562 65.8219 4.38958C65.8972 4.45354 65.9522 4.53977 65.98 4.63697C66.0076 4.7342 66.0067 4.83787 65.9769 4.93445C65.9474 5.03105 65.8905 5.11606 65.8139 5.17839L63.0477 7.41833L63.9957 11.3732C64.019 11.4702 64.0142 11.5722 63.9818 11.6663C63.9494 11.7604 63.8911 11.8424 63.814 11.9017C63.737 11.961 63.6446 11.9951 63.5491 11.9995C63.4535 12.0039 63.3587 11.9785 63.2769 11.9266L59.9879 9.83156V9.83261Z" fill="#FFCC00"></path><path fill-rule="evenodd" clip-rule="evenodd" d="M74.9879 9.83261L71.7112 11.9234C71.6294 11.9753 71.5348 12.0006 71.4393 11.9962C71.3438 11.9918 71.2519 11.9578 71.1748 11.8986C71.0978 11.8394 71.0395 11.7577 71.0068 11.6638C70.9744 11.5699 70.9694 11.468 70.9924 11.3711L71.9423 7.41833L69.1871 5.17839C69.1103 5.11623 69.0532 5.03124 69.0232 4.93457C68.9935 4.83787 68.9923 4.73403 69.0199 4.63664C69.0475 4.53922 69.1024 4.4528 69.178 4.38869C69.2534 4.32459 69.3455 4.28578 69.4425 4.27738L73.0471 3.96759L74.5507 0.305736C74.5879 0.21492 74.6498 0.137521 74.7287 0.0831605C74.8077 0.0288005 74.9003 -0.000119628 74.9949 3.71932e-07C75.0895 0.000120372 75.1819 0.029256 75.2608 0.083784C75.3395 0.138336 75.4012 0.215881 75.4384 0.306793L76.9291 3.96759L80.5576 4.27841C80.6543 4.28686 80.7465 4.32562 80.8219 4.38958C80.8972 4.45354 80.9522 4.53977 80.98 4.63697C81.0076 4.7342 81.0067 4.83787 80.9769 4.93445C80.9474 5.03105 80.8905 5.11606 80.8139 5.17839L78.0477 7.41833L78.9957 11.3732C79.019 11.4702 79.0142 11.5722 78.9818 11.6663C78.9494 11.7604 78.8911 11.8424 78.814 11.9017C78.737 11.961 78.6446 11.9951 78.5491 11.9995C78.4535 12.0039 78.3587 11.9785 78.2769 11.9266L74.9879 9.83156V9.83261Z" fill="#FFCC00"></path><path fill-rule="evenodd" clip-rule="evenodd" d="M89.9879 9.83261L86.7112 11.9234C86.6294 11.9753 86.5348 12.0006 86.4393 11.9962C86.3438 11.9918 86.2519 11.9578 86.1748 11.8986C86.0978 11.8394 86.0395 11.7577 86.0068 11.6638C85.9744 11.5699 85.9694 11.468 85.9924 11.3711L86.9423 7.41833L84.1871 5.17839C84.1103 5.11623 84.0532 5.03124 84.0232 4.93457C83.9935 4.83787 83.9923 4.73403 84.0199 4.63664C84.0475 4.53922 84.1024 4.4528 84.178 4.38869C84.2534 4.32459 84.3455 4.28578 84.4425 4.27738L88.0471 3.96759L89.5507 0.305736C89.5879 0.21492 89.6498 0.137521 89.7287 0.0831605C89.8077 0.0288005 89.9003 -0.000119628 89.9949 3.71932e-07C90.0895 0.000120372 90.1819 0.029256 90.2608 0.083784C90.3395 0.138336 90.4012 0.215881 90.4384 0.306793L91.9291 3.96759L95.5576 4.27841C95.6543 4.28686 95.7465 4.32562 95.8219 4.38958C95.8972 4.45354 95.9522 4.53977 95.98 4.63697C96.0076 4.7342 96.0067 4.83787 95.9769 4.93445C95.9474 5.03105 95.8905 5.11606 95.8139 5.17839L93.0477 7.41833L93.9957 11.3732C94.019 11.4702 94.0142 11.5722 93.9818 11.6663C93.9494 11.7604 93.8911 11.8424 93.814 11.9017C93.737 11.961 93.6446 11.9951 93.5491 11.9995C93.4536 12.0039 93.3587 11.9785 93.2769 11.9266L89.9879 9.83156V9.83261Z" fill="#FFCC00"></path><path d="M2.51021 10.6038C1.93202 10.6038 1.43248 10.5516 1.01206 10.4472C0.591415 10.3341 0.25406 10.195 0 10.0297L0.354756 8.65956C0.582598 8.80745 0.876103 8.95096 1.2355 9.09017C1.59466 9.22065 2.0065 9.28588 2.47077 9.28588C3.10162 9.28588 3.58353 9.11625 3.91647 8.777C4.25824 8.43772 4.429 7.99843 4.429 7.45909C4.429 6.92843 4.29768 6.51957 4.0348 6.23252C3.77192 5.94544 3.37773 5.80191 2.85197 5.80191C2.49281 5.80191 2.1993 5.85411 1.97146 5.95848C1.75244 6.06288 1.58585 6.18467 1.47193 6.32386H0.249653V1.1305H5.63828V2.50061H1.68237V4.94069C1.84872 4.8189 2.05476 4.71452 2.3 4.62754C2.55406 4.54053 2.8652 4.49704 3.23318 4.49704C3.66241 4.49704 4.05244 4.56227 4.40278 4.69277C4.76195 4.82325 5.06427 5.01463 5.30975 5.2669C5.56381 5.51048 5.76079 5.81059 5.90116 6.16726C6.0413 6.52392 6.11137 6.93279 6.11137 7.39383C6.11137 7.87228 6.02808 8.30725 5.86172 8.6987C5.69513 9.09017 5.45429 9.42942 5.13875 9.71649C4.82343 9.99486 4.44223 10.2123 3.99536 10.3689C3.55731 10.5255 3.06218 10.6038 2.51021 10.6038ZM7.35545 11.8695C7.52204 11.6781 7.67517 11.452 7.81554 11.191C7.95568 10.93 8.05638 10.6777 8.11763 10.4342C7.87239 10.3646 7.6884 10.2428 7.56566 10.0688C7.44315 9.89482 7.38167 9.70346 7.38167 9.49466C7.38167 9.20761 7.47819 8.96838 7.671 8.777C7.87239 8.58561 8.12645 8.48992 8.43318 8.48992C8.75731 8.48992 9.01577 8.58997 9.20858 8.79004C9.41021 8.98142 9.5109 9.26849 9.5109 9.65126C9.5109 9.87742 9.47587 10.1036 9.4058 10.3298C9.33573 10.556 9.24803 10.7691 9.14292 10.9692C9.03782 11.1779 8.91949 11.3693 8.78794 11.5433C8.66543 11.726 8.54269 11.8782 8.41995 12L7.35545 11.8695ZM13.8063 10.6038C13.342 10.6038 12.9128 10.5125 12.5183 10.3298C12.1241 10.1471 11.7824 9.86003 11.4933 9.46858C11.2128 9.07711 10.9896 8.58126 10.823 7.98104C10.6652 7.37208 10.5863 6.64136 10.5863 5.78885C10.5863 4.94504 10.6652 4.22303 10.823 3.62278C10.9896 3.01385 11.2128 2.518 11.4933 2.13523C11.7824 1.74378 12.1241 1.45671 12.5183 1.27403C12.9128 1.09134 13.342 1 13.8063 1C14.2708 1 14.6956 1.09134 15.0812 1.27403C15.4754 1.45671 15.8128 1.73943 16.0933 2.12219C16.3824 2.50494 16.6058 2.99645 16.7633 3.59668C16.9211 4.19693 17 4.91894 17 5.76275C17 6.60658 16.9211 7.33294 16.7633 7.94188C16.6058 8.55081 16.3824 9.05536 16.0933 9.45552C15.8128 9.84699 15.4754 10.1384 15.0812 10.3298C14.6956 10.5125 14.2708 10.6038 13.8063 10.6038ZM13.7933 9.28588C14.0473 9.28588 14.2708 9.22935 14.4636 9.11625C14.6561 8.99448 14.8139 8.79874 14.9367 8.52906C15.068 8.2594 15.1645 7.90274 15.2258 7.45909C15.2958 7.00673 15.3309 6.45433 15.3309 5.80191C15.3309 5.14946 15.2958 4.60144 15.2258 4.15776C15.1645 3.71412 15.068 3.35745 14.9367 3.08779C14.8139 2.80943 14.6561 2.61369 14.4636 2.50061C14.2796 2.37881 14.0606 2.31791 13.8063 2.31791C13.5522 2.31791 13.3244 2.37881 13.123 2.50061C12.9302 2.61369 12.768 2.80943 12.6367 3.08779C12.5053 3.35745 12.4044 3.71412 12.3343 4.15776C12.2731 4.60144 12.2425 5.14946 12.2425 5.80191C12.2425 6.45433 12.2731 7.00673 12.3343 7.45909C12.4044 7.90274 12.5053 8.2594 12.6367 8.52906C12.768 8.79874 12.9302 8.99448 13.123 9.11625C13.3158 9.22935 13.5392 9.28588 13.7933 9.28588Z" fill="black"></path></svg> 