<?xml version="1.0" encoding="UTF-8"?> <svg xmlns="http://www.w3.org/2000/svg" xmlns:xlink="http://www.w3.org/1999/xlink" width="422" height="423"><path fill="#FEFEFE" d="M118.182 40.6104C118.258 40.598 118.333 40.5813 118.408 40.5731C121.192 40.2736 124.196 40.4816 127.003 40.4832L143.381 40.5054L195.467 40.5001L269.909 40.5013L290.751 40.4838C297.853 40.4799 304.937 40.305 311.958 41.5625Q314.459 42.0081 316.924 42.6192Q319.389 43.2302 321.808 44.0041Q324.227 44.778 326.59 45.7113Q328.952 46.6446 331.247 47.7331Q333.542 48.8216 335.759 50.0605Q337.976 51.2994 340.106 52.6832Q342.236 54.067 344.269 55.5895Q346.302 57.1121 348.229 58.7666Q349.603 59.9668 350.916 61.2325Q352.23 62.4983 353.48 63.8266Q354.73 65.1549 355.914 66.5427Q357.098 67.9304 358.213 69.3742Q359.328 70.818 360.371 72.3145Q361.414 73.811 362.383 75.3566Q363.351 76.9022 364.244 78.4932Q365.136 80.0842 365.95 81.7169Q366.763 83.3495 367.496 85.0199Q368.229 86.6903 368.88 88.3944Q369.531 90.0986 370.097 91.8325Q370.664 93.5663 371.145 95.3258Q371.627 97.0852 372.022 98.866Q372.417 100.647 372.725 102.445Q373.033 104.243 373.252 106.054Q373.472 107.865 373.603 109.684C374.398 121.471 373.868 133.511 373.873 145.329L373.9 211.1L373.911 264.549L373.859 281.889C373.849 290.295 373.9 298.467 372.25 306.753Q371.769 309.117 371.135 311.445Q370.501 313.773 369.716 316.055Q368.931 318.336 367.999 320.561Q367.067 322.787 365.992 324.947Q364.917 327.106 363.702 329.191Q362.488 331.276 361.141 333.277Q359.793 335.279 358.317 337.188Q356.842 339.096 355.245 340.905C342.781 355.082 324.005 364.923 305.062 366.15C291.677 366.92 278.177 366.448 264.767 366.459L192.169 366.468L144.215 366.456C132.004 366.45 119.467 367.238 107.438 364.808Q105.048 364.315 102.695 363.667Q100.341 363.019 98.0357 362.218Q95.7299 361.418 93.4811 360.469Q91.2324 359.521 89.0503 358.427Q86.8682 357.334 84.762 356.101Q82.6558 354.867 80.6345 353.499Q78.6133 352.131 76.6855 350.634Q74.7577 349.137 72.9316 347.518Q71.5771 346.319 70.2827 345.055Q68.9883 343.792 67.7569 342.466Q66.5255 341.141 65.3602 339.757Q64.1949 338.374 63.0983 336.935Q62.0018 335.496 60.9766 334.006Q59.9514 332.515 59 330.977Q58.0487 329.438 57.1734 327.855Q56.2981 326.272 55.501 324.648Q54.7039 323.024 53.9868 321.363Q53.2697 319.702 52.6344 318.008Q51.9991 316.315 51.447 314.592Q50.895 312.869 50.4275 311.122Q49.96 309.374 49.5781 307.606Q49.1963 305.838 48.9011 304.053Q48.6059 302.268 48.3979 300.471Q48.19 298.674 48.0698 296.869C47.793 291.977 47.8948 287.026 47.8832 282.126L47.9253 254.882L47.9346 176.516L47.9022 130.682C47.917 120.976 47.2644 110.799 49.0786 101.222Q49.5582 98.7097 50.2075 96.2358Q50.8569 93.7619 51.673 91.3379Q52.4891 88.9139 53.4683 86.551Q54.4474 84.1882 55.585 81.8974Q56.7226 79.6066 58.0134 77.3985Q59.3042 75.1904 60.7422 73.0753Q62.1802 70.9601 63.7587 68.9476Q65.3373 66.9352 67.0491 65.0348Q68.2675 63.6869 69.5501 62.4Q70.8328 61.1131 72.1766 59.8903Q73.5205 58.6674 74.9224 57.5116Q76.3243 56.3557 77.7809 55.2696Q79.2374 54.1834 80.7452 53.1696Q82.253 52.1558 83.8085 51.2167Q85.3639 50.2776 86.9633 49.4154Q88.5627 48.5533 90.2022 47.7702Q91.8417 46.987 93.5174 46.2848Q95.1932 45.5825 96.9012 44.9628Q98.6092 44.343 100.345 43.8073Q102.082 43.2716 103.842 42.8212Q105.602 42.3708 107.382 42.0067Q109.162 41.6426 110.958 41.3658Q112.754 41.0889 114.561 40.9Q116.368 40.711 118.182 40.6104Z"></path><path fill="#FE4336" d="M217.706 264.605C209.674 270.171 197.881 283.94 194.717 293.33C193.657 296.477 193.942 300.955 191.784 303.56C190.681 304.892 188.811 305.599 187.101 305.653C180.956 305.846 181.14 297.046 179.678 293.029Q178.685 290.362 177.356 287.844Q176.028 285.327 174.387 283.001C163.799 267.811 147.519 257.151 133.889 244.952C117.473 230.259 107.239 210.389 106.05 188.256Q105.991 187.256 105.957 186.254Q105.923 185.253 105.914 184.251Q105.904 183.249 105.92 182.248Q105.935 181.246 105.975 180.245Q106.015 179.244 106.079 178.244Q106.144 177.244 106.233 176.246Q106.322 175.248 106.436 174.253Q106.549 173.257 106.687 172.265Q106.825 171.273 106.988 170.284Q107.15 169.295 107.337 168.311Q107.524 167.327 107.735 166.347Q107.946 165.368 108.181 164.394Q108.416 163.42 108.674 162.452Q108.933 161.484 109.216 160.523Q109.498 159.561 109.805 158.607Q110.111 157.653 110.44 156.707Q110.77 155.761 111.122 154.823Q111.475 153.886 111.851 152.957Q112.227 152.028 112.625 151.109Q113.023 150.189 113.444 149.28Q113.865 148.371 114.308 147.472Q114.751 146.574 115.217 145.686Q115.682 144.799 116.169 143.923Q116.655 143.048 117.164 142.184Q117.672 141.321 118.201 140.47Q118.731 139.62 119.281 138.782Q119.831 137.945 120.401 137.121Q120.972 136.298 121.562 135.488Q122.153 134.679 122.763 133.884Q123.374 133.09 124.004 132.311Q124.633 131.531 125.282 130.768Q125.931 130.004 126.598 129.257Q127.258 128.518 127.935 127.795Q128.613 127.072 129.308 126.366Q130.003 125.66 130.715 124.972Q131.427 124.283 132.155 123.612Q132.884 122.94 133.629 122.287Q134.374 121.634 135.134 120.999Q135.895 120.365 136.671 119.749Q137.447 119.133 138.238 118.536Q139.028 117.939 139.833 117.362Q140.638 116.784 141.457 116.227Q142.276 115.669 143.109 115.132Q143.941 114.595 144.786 114.078Q145.631 113.561 146.489 113.065Q147.346 112.569 148.216 112.094Q149.085 111.62 149.966 111.166Q150.847 110.713 151.739 110.281Q152.63 109.849 153.532 109.439Q154.434 109.029 155.346 108.642Q156.257 108.254 157.178 107.889Q158.099 107.523 159.029 107.181Q159.958 106.838 160.896 106.518Q161.833 106.198 162.779 105.902Q163.724 105.605 164.676 105.331Q165.628 105.057 166.586 104.807Q167.545 104.557 168.509 104.33Q169.474 104.103 170.443 103.9Q171.413 103.697 172.387 103.518Q173.362 103.338 174.34 103.183Q175.318 103.027 176.3 102.896Q177.282 102.764 178.267 102.657Q179.252 102.549 180.239 102.466Q181.226 102.382 182.215 102.323C202.13 101.319 221.347 106.854 237.162 119.174C241.147 122.278 244.484 125.837 248.206 129.212Q264.77 129.314 281.303 130.332C286.633 130.655 292.78 130.687 297.9 132.162C300.516 132.916 302.804 134.235 304.721 136.174C307.926 139.417 309.439 143.743 309.411 148.269C309.404 149.469 309.3 150.68 309.211 151.876C311.97 152.455 316.039 152.868 317.802 155.319C318.712 156.584 318.425 174.443 318.257 177.318Q318.121 179.888 317.578 182.403C316.811 185.834 315.293 189.446 312.222 191.413C311.341 191.978 310.493 192.253 309.462 192.384C309.251 209.156 309.414 225.95 309.414 242.724C309.414 250.009 309.756 257.508 309.367 264.772C309.362 267.814 310.239 279.544 308.384 281.387C307.511 282.255 306.045 282.674 304.86 282.863C301.295 283.433 291.11 283.22 287.209 282.987C285.833 282.905 283.513 282.624 282.501 281.629C280.496 279.658 278.817 268.479 277.776 265.182L277.665 264.98C275.85 264.294 266.698 264.803 264.14 264.817Q249.174 264.919 234.207 264.85C228.801 264.841 223.056 265.24 217.706 264.605Z"></path><path fill="#188DFE" d="M248.206 129.212Q264.77 129.314 281.303 130.332C286.633 130.655 292.78 130.687 297.9 132.162C300.516 132.916 302.804 134.235 304.721 136.174C307.926 139.417 309.439 143.743 309.411 148.269C309.404 149.469 309.3 150.68 309.211 151.876C311.97 152.455 316.039 152.868 317.802 155.319C318.712 156.584 318.425 174.443 318.257 177.318Q318.121 179.888 317.578 182.403C316.811 185.834 315.293 189.446 312.222 191.413C311.341 191.978 310.493 192.253 309.462 192.384C309.251 209.156 309.414 225.95 309.414 242.724C309.414 250.009 309.756 257.508 309.367 264.772C309.362 267.814 310.239 279.544 308.384 281.387C307.511 282.255 306.045 282.674 304.86 282.863C301.295 283.433 291.11 283.22 287.209 282.987C285.833 282.905 283.513 282.624 282.501 281.629C280.496 279.658 278.817 268.479 277.776 265.182L277.665 264.98C275.85 264.294 266.698 264.803 264.14 264.817Q249.174 264.919 234.207 264.85C228.801 264.841 223.056 265.24 217.706 264.605C219.72 261.835 230.942 253.204 234.083 250.647C245.699 240.85 253.111 232.907 260.395 219.505Q262.673 214.542 264.425 209.369C271.775 187.501 269.315 165.656 259.12 145.204C255.871 139.488 251.969 134.569 248.206 129.212Z"></path><path fill="#FEFEFE" d="M259.12 145.204Q267.888 145.474 276.653 145.842C280.728 146.019 285.353 145.88 289.286 146.994C291.558 147.638 293.59 148.786 295.201 150.52C296.761 152.199 297.926 154.314 298.398 156.567C299.166 160.244 299.17 164.311 299.408 168.065L300.654 188.899L301.603 203.346C301.774 205.979 302.099 208.733 301.995 211.364C301.9 213.765 300.775 215.792 299.002 217.365C297.894 218.349 296.899 218.951 295.428 219.28C291.868 220.077 287.79 219.72 284.153 219.718C276.237 219.713 268.304 219.476 260.395 219.505Q262.673 214.542 264.425 209.369C271.775 187.501 269.315 165.656 259.12 145.204Z"></path><path d="M277.776 265.182C277.928 265.071 278.053 264.905 278.233 264.848C279.777 264.361 305.551 264.769 309.367 264.772C309.362 267.814 310.239 279.544 308.384 281.387C307.511 282.255 306.045 282.674 304.86 282.863C301.295 283.433 291.11 283.22 287.209 282.987C285.833 282.905 283.513 282.624 282.501 281.629C280.496 279.658 278.817 268.479 277.776 265.182Z"></path><path fill="#1468C1" d="M234.083 250.647C235.165 251.437 236.578 251.342 237.872 251.399C246.412 251.778 256.652 249.149 261.898 257.774C262.825 259.299 263.784 261.098 264.074 262.879C264.18 263.529 264.182 264.162 264.14 264.817Q249.174 264.919 234.207 264.85C228.801 264.841 223.056 265.24 217.706 264.605C219.72 261.835 230.942 253.204 234.083 250.647Z"></path><path fill="#FEFEFE" d="M285.088 228.852Q285.419 228.811 285.751 228.785Q286.084 228.76 286.417 228.751Q286.751 228.743 287.084 228.75Q287.418 228.758 287.75 228.782Q288.083 228.806 288.414 228.846Q288.745 228.887 289.074 228.943Q289.402 229 289.728 229.073Q290.053 229.145 290.375 229.234Q290.696 229.322 291.013 229.427Q291.33 229.531 291.641 229.651Q291.953 229.77 292.258 229.905Q292.563 230.04 292.861 230.19Q293.159 230.34 293.449 230.504Q293.739 230.668 294.021 230.846Q294.303 231.025 294.576 231.216Q294.848 231.408 295.111 231.613Q295.374 231.819 295.627 232.036Q295.88 232.254 296.121 232.484Q296.363 232.714 296.593 232.956Q296.823 233.197 297.041 233.45Q297.258 233.702 297.464 233.965Q297.669 234.228 297.861 234.501Q298.053 234.773 298.231 235.055Q298.409 235.337 298.574 235.627Q298.738 235.918 298.888 236.216Q299.037 236.514 299.172 236.819Q299.307 237.124 299.427 237.435Q299.547 237.746 299.651 238.063Q299.756 238.38 299.844 238.701Q299.933 239.023 300.006 239.348Q300.078 239.674 300.135 240.002Q300.192 240.331 300.232 240.662Q300.272 240.993 300.296 241.326Q300.321 241.658 300.328 241.992Q300.336 242.325 300.327 242.659Q300.319 242.992 300.293 243.325Q300.268 243.657 300.227 243.988Q300.186 244.319 300.128 244.648Q300.07 244.976 299.997 245.301Q299.923 245.627 299.833 245.948Q299.744 246.269 299.638 246.586Q299.533 246.902 299.412 247.213Q299.292 247.524 299.156 247.828Q299.02 248.133 298.869 248.43Q298.718 248.728 298.553 249.018Q298.388 249.308 298.209 249.589Q298.03 249.87 297.837 250.142Q297.644 250.414 297.438 250.677Q297.232 250.939 297.014 251.191Q296.795 251.443 296.564 251.684Q296.334 251.924 296.091 252.154Q295.849 252.383 295.596 252.6Q295.343 252.817 295.079 253.021Q294.815 253.226 294.542 253.417Q294.269 253.608 293.986 253.785Q293.704 253.963 293.413 254.126Q293.122 254.289 292.824 254.438Q292.525 254.587 292.22 254.721Q291.914 254.855 291.603 254.974Q291.291 255.092 290.974 255.196Q290.657 255.299 290.335 255.387Q290.013 255.474 289.688 255.546Q289.362 255.618 289.033 255.673Q288.704 255.729 288.373 255.768Q288.043 255.807 287.712 255.83Q287.38 255.853 287.048 255.86Q286.716 255.867 286.384 255.857Q286.052 255.847 285.721 255.822Q285.39 255.796 285.061 255.754Q284.731 255.712 284.404 255.654Q284.077 255.596 283.753 255.522Q283.43 255.448 283.11 255.358Q282.79 255.268 282.475 255.163Q282.16 255.058 281.851 254.937Q281.541 254.816 281.238 254.681Q280.935 254.545 280.639 254.395Q280.342 254.245 280.054 254.08Q279.766 253.915 279.485 253.737Q279.205 253.558 278.934 253.366Q278.663 253.174 278.402 252.969Q278.141 252.764 277.89 252.546Q277.639 252.329 277.399 252.099Q277.159 251.869 276.931 251.628Q276.703 251.387 276.486 251.135Q276.27 250.883 276.066 250.621Q275.862 250.359 275.672 250.087Q275.481 249.815 275.304 249.534Q275.127 249.253 274.964 248.963Q274.801 248.674 274.652 248.377Q274.503 248.08 274.369 247.776Q274.235 247.472 274.116 247.162Q273.997 246.852 273.893 246.537Q273.79 246.221 273.702 245.901Q273.614 245.581 273.541 245.256Q273.469 244.932 273.413 244.605Q273.356 244.278 273.316 243.948Q273.276 243.618 273.252 243.287Q273.228 242.956 273.22 242.624Q273.212 242.292 273.22 241.96Q273.229 241.628 273.254 241.296Q273.278 240.965 273.319 240.635Q273.36 240.306 273.417 239.979Q273.474 239.651 273.547 239.327Q273.62 239.003 273.709 238.683Q273.797 238.363 273.902 238.048Q274.006 237.732 274.126 237.422Q274.245 237.113 274.38 236.809Q274.515 236.505 274.664 236.209Q274.813 235.912 274.977 235.623Q275.141 235.334 275.318 235.053Q275.496 234.773 275.687 234.501Q275.878 234.229 276.083 233.967Q276.287 233.706 276.504 233.454Q276.72 233.202 276.949 232.962Q277.178 232.721 277.419 232.492Q277.659 232.263 277.91 232.045Q278.162 231.828 278.423 231.624Q278.685 231.419 278.956 231.228Q279.228 231.036 279.508 230.858Q279.789 230.68 280.078 230.516Q280.366 230.352 280.663 230.202Q280.959 230.052 281.263 229.917Q281.566 229.782 281.876 229.662Q282.186 229.542 282.501 229.438Q282.816 229.333 283.136 229.244Q283.456 229.155 283.78 229.081Q284.104 229.008 284.431 228.951Q284.758 228.893 285.088 228.852Z"></path><path fill="#FEFEFE" d="M183.413 156.649Q184.074 156.554 184.739 156.491Q185.404 156.428 186.071 156.398Q186.738 156.368 187.406 156.371Q188.073 156.374 188.74 156.41Q189.407 156.446 190.071 156.514Q190.736 156.583 191.396 156.684Q192.056 156.785 192.71 156.919Q193.364 157.052 194.011 157.218Q194.658 157.383 195.296 157.58Q195.934 157.778 196.562 158.006Q197.189 158.234 197.805 158.493Q198.42 158.752 199.022 159.041Q199.625 159.33 200.212 159.648Q200.799 159.967 201.369 160.313Q201.94 160.66 202.493 161.035Q203.046 161.409 203.58 161.81Q204.114 162.211 204.627 162.638Q205.141 163.065 205.633 163.517Q206.124 163.969 206.593 164.444Q207.062 164.919 207.507 165.417Q207.952 165.915 208.372 166.434Q208.792 166.954 209.186 167.493Q209.58 168.032 209.947 168.59Q210.314 169.148 210.653 169.723Q210.992 170.299 211.303 170.89Q211.613 171.481 211.894 172.087Q212.174 172.693 212.425 173.312Q212.676 173.931 212.896 174.562Q213.116 175.192 213.304 175.833Q213.493 176.473 213.65 177.122Q213.806 177.772 213.931 178.428Q214.056 179.084 214.148 179.745Q214.24 180.406 214.3 181.072Q214.359 181.737 214.386 182.404Q214.413 183.071 214.407 183.739Q214.401 184.407 214.362 185.073Q214.323 185.74 214.251 186.404Q214.18 187.068 214.075 187.727Q213.971 188.387 213.834 189.041Q213.698 189.694 213.529 190.34Q213.36 190.987 213.16 191.624Q212.96 192.261 212.729 192.887Q212.497 193.513 212.235 194.128Q211.974 194.742 211.682 195.343Q211.39 195.943 211.069 196.529Q210.748 197.115 210.398 197.684Q210.049 198.253 209.672 198.804Q209.295 199.355 208.891 199.887Q208.488 200.419 208.058 200.93Q207.629 201.442 207.175 201.931Q206.721 202.421 206.243 202.888Q205.766 203.355 205.266 203.797Q204.766 204.24 204.245 204.658Q203.723 205.075 203.182 205.466Q202.641 205.858 202.082 206.222Q201.522 206.586 200.945 206.923Q200.368 207.259 199.775 207.566Q199.182 207.874 198.575 208.152Q197.968 208.43 197.348 208.678Q196.728 208.925 196.096 209.142Q195.465 209.359 194.823 209.545Q194.182 209.73 193.532 209.884Q192.882 210.038 192.225 210.159Q191.569 210.281 190.907 210.37Q190.249 210.459 189.588 210.515Q188.926 210.571 188.263 210.595Q187.6 210.619 186.936 210.61Q186.272 210.602 185.61 210.561Q184.947 210.52 184.288 210.446Q183.628 210.373 182.973 210.267Q182.317 210.162 181.668 210.024Q181.019 209.886 180.377 209.717Q179.735 209.548 179.102 209.348Q178.469 209.147 177.847 208.916Q177.225 208.685 176.615 208.424Q176.005 208.163 175.408 207.872Q174.811 207.581 174.229 207.262Q173.648 206.942 173.082 206.595Q172.517 206.247 171.969 205.872Q171.421 205.497 170.893 205.096Q170.364 204.695 169.855 204.268Q169.347 203.841 168.86 203.39Q168.373 202.939 167.909 202.465Q167.444 201.991 167.004 201.494Q166.563 200.998 166.147 200.48Q165.731 199.963 165.341 199.426Q164.951 198.889 164.588 198.333Q164.225 197.778 163.889 197.205Q163.554 196.632 163.247 196.044Q162.939 195.456 162.661 194.853Q162.383 194.25 162.135 193.635Q161.887 193.019 161.669 192.392Q161.451 191.765 161.264 191.128Q161.077 190.491 160.922 189.846Q160.766 189.201 160.642 188.549Q160.519 187.896 160.427 187.239Q160.335 186.582 160.276 185.921Q160.216 185.259 160.189 184.596Q160.162 183.933 160.168 183.269Q160.173 182.605 160.211 181.943Q160.249 181.28 160.319 180.62Q160.39 179.96 160.492 179.304Q160.595 178.648 160.729 177.998Q160.863 177.348 161.03 176.706Q161.196 176.063 161.393 175.429Q161.59 174.796 161.818 174.172Q162.046 173.549 162.305 172.937Q162.563 172.326 162.851 171.728Q163.139 171.13 163.456 170.547Q163.773 169.963 164.118 169.396Q164.463 168.829 164.835 168.28Q165.207 167.73 165.606 167.199Q166.005 166.669 166.429 166.158Q166.853 165.648 167.302 165.159Q167.75 164.669 168.223 164.203Q168.695 163.736 169.189 163.293Q169.683 162.85 170.199 162.432Q170.714 162.014 171.249 161.621Q171.785 161.229 172.339 160.863Q172.892 160.497 173.463 160.159Q174.034 159.82 174.621 159.51Q175.208 159.2 175.81 158.919Q176.411 158.638 177.026 158.387Q177.64 158.136 178.266 157.915Q178.892 157.695 179.528 157.505Q180.164 157.315 180.808 157.156Q181.453 156.998 182.105 156.871Q182.756 156.744 183.413 156.649Z"></path></svg> 