<?xml version="1.0" encoding="UTF-8"?> <svg xmlns="http://www.w3.org/2000/svg" width="27" height="23" viewBox="0 0 27 23" fill="none"><path fill-rule="evenodd" clip-rule="evenodd" d="M0.783203 1.45802V17.1365C0.783203 17.5237 0.936313 17.8941 1.20766 18.1675C1.4797 18.4411 1.8485 18.5943 2.23278 18.5943H9.8721L9.10354 20.1402H7.83779C7.46068 20.1402 7.0988 20.2906 6.8323 20.5594C6.56557 20.8269 6.41616 21.1908 6.41616 21.5701C6.41616 22.3602 7.05215 23 7.83779 23C10.3515 23 17.2147 23 19.7286 23C20.5143 23 21.1509 22.3602 21.1509 21.5701C21.1509 20.7807 20.5143 20.1402 19.7286 20.1402H18.4629L17.6943 18.5943H25.3336C25.7179 18.5943 26.0867 18.4411 26.3587 18.1675C26.6308 17.8941 26.7832 17.5237 26.7832 17.1365V1.45802C26.7832 0.652372 26.134 0 25.3336 0C21.3491 0 6.21732 0 2.23278 0C1.43236 0 0.783203 0.652372 0.783203 1.45802ZM7.83779 21.1123H19.7286C19.9803 21.1123 20.1842 21.3174 20.1842 21.5701C20.1842 21.8235 19.9803 22.0285 19.7286 22.0285C17.2147 22.0285 10.3515 22.0285 7.83779 22.0285C7.58607 22.0285 7.38216 21.8235 7.38216 21.5701C7.38216 21.4488 7.42996 21.3323 7.51564 21.2461C7.60085 21.1604 7.71678 21.1123 7.83779 21.1123ZM17.3821 20.1402H10.1843L10.9529 18.5943H16.6135L17.3821 20.1402ZM25.8165 14.8185V17.1365C25.8165 17.2657 25.7657 17.3892 25.6754 17.4803C25.5849 17.5718 25.4618 17.6229 25.3336 17.6229C21.3491 17.6229 6.21732 17.6229 2.23278 17.6229C2.10438 17.6229 1.98152 17.5718 1.891 17.4803C1.8007 17.3892 1.74966 17.2657 1.74966 17.1365V14.8185H25.8165ZM25.8165 13.8464H1.74966C1.74966 11.8409 1.74966 4.18503 1.74966 1.45802C1.74966 1.18909 1.96605 0.971474 2.23278 0.971474C6.21732 0.971474 21.3491 0.971474 25.3336 0.971474C25.6004 0.971474 25.8165 1.18909 25.8165 1.45802V13.8464Z" fill="#666666" fill-opacity="0.15"></path></svg> 