<?xml version="1.0" encoding="UTF-8"?> <svg xmlns="http://www.w3.org/2000/svg" width="60" height="34" viewBox="0 0 60 34" fill="none"><g clip-path="url(#clip0_34_100)"><path d="M53.3333 0H6.66667C2.98477 0 0 3.04446 0 6.8V27.2C0 30.9555 2.98477 34 6.66667 34H53.3333C57.0152 34 60 30.9555 60 27.2V6.8C60 3.04446 57.0152 0 53.3333 0Z" fill="white" fill-opacity="0.9"></path><path fill-rule="evenodd" clip-rule="evenodd" d="M25.3578 23.586V24.4633V25.3407H24.9566V25.1276C24.8294 25.2856 24.6363 25.3848 24.374 25.3848C23.8567 25.3848 23.4512 24.9995 23.4512 24.4633C23.4512 23.9276 23.8567 23.5419 24.374 23.5419C24.6363 23.5419 24.8294 23.641 24.9566 23.799V23.586H25.3578ZM24.4225 23.9017C24.0753 23.9017 23.8628 24.1551 23.8628 24.4635C23.8628 24.7718 24.0753 25.0252 24.4225 25.0252C24.7543 25.0252 24.9782 24.7828 24.9782 24.4635C24.9782 24.1441 24.7543 23.9017 24.4225 23.9017ZM38.911 24.4635C38.911 24.1551 39.1235 23.9017 39.4708 23.9017C39.8029 23.9017 40.0264 24.1441 40.0264 24.4635C40.0264 24.7828 39.8029 25.0252 39.4708 25.0252C39.1235 25.0252 38.911 24.7718 38.911 24.4635ZM40.4063 22.8813V24.4633V25.3407H40.0048V25.1276C39.8776 25.2856 39.6845 25.3848 39.4222 25.3848C38.9048 25.3848 38.4993 24.9995 38.4993 24.4633C38.4993 23.9276 38.9048 23.5419 39.4222 23.5419C39.6845 23.5419 39.8776 23.6411 40.0048 23.799V22.8813H40.4063ZM30.3362 23.8834C30.5946 23.8834 30.7607 24.0377 30.8031 24.3091H29.8458C29.8887 24.0557 30.0503 23.8834 30.3362 23.8834ZM29.4257 24.4633C29.4257 23.9162 29.8038 23.5419 30.3445 23.5419C30.8613 23.5419 31.2164 23.9162 31.2204 24.4633C31.2204 24.5145 31.2164 24.5625 31.2125 24.6099H29.8427C29.9005 24.9259 30.136 25.0398 30.3943 25.0398C30.5795 25.0398 30.7765 24.9734 30.9311 24.8562L31.1277 25.1389C30.9037 25.3188 30.6493 25.3848 30.3714 25.3848C29.8193 25.3848 29.4257 25.0213 29.4257 24.4633ZM35.1869 24.4635C35.1869 24.1551 35.3994 23.9017 35.7466 23.9017C36.0783 23.9017 36.3023 24.1441 36.3023 24.4635C36.3023 24.7828 36.0783 25.0252 35.7466 25.0252C35.3994 25.0252 35.1869 24.7718 35.1869 24.4635ZM36.6803 23.586V24.4633V25.3407H36.2793V25.1276C36.1516 25.2856 35.959 25.3848 35.6967 25.3848C35.1793 25.3848 34.7738 24.9995 34.7738 24.4633C34.7738 23.9276 35.1793 23.5419 35.6967 23.5419C35.959 23.5419 36.1516 23.641 36.2793 23.799V23.586H36.6803ZM32.9213 24.4633C32.9213 24.9956 33.3108 25.3848 33.9054 25.3848C34.1833 25.3848 34.3683 25.3259 34.5689 25.1755L34.3763 24.8671C34.2257 24.9701 34.0676 25.025 33.8935 25.025C33.5733 25.0213 33.3378 24.8012 33.3378 24.4633C33.3378 24.1255 33.5733 23.9053 33.8935 23.9015C34.0676 23.9015 34.2257 23.9566 34.3763 24.0595L34.5689 23.7512C34.3683 23.6007 34.1833 23.5419 33.9054 23.5419C33.3108 23.5419 32.9213 23.9309 32.9213 24.4633ZM37.6057 23.7988C37.7099 23.6446 37.8606 23.5416 38.0921 23.5416C38.1733 23.5416 38.2891 23.5563 38.3778 23.5896L38.2542 23.9492C38.1693 23.9161 38.0845 23.9051 38.0033 23.9051C37.7408 23.9051 37.6097 24.0664 37.6097 24.3568V25.3404H37.2082V23.5857H37.6057V23.7988ZM27.3413 23.7255C27.1483 23.6044 26.8823 23.5419 26.589 23.5419C26.1216 23.5419 25.8208 23.7549 25.8208 24.1036C25.8208 24.3898 26.0448 24.5662 26.4573 24.6213L26.6468 24.6469C26.8668 24.6763 26.9707 24.7314 26.9707 24.8306C26.9707 24.9662 26.824 25.0436 26.5501 25.0436C26.2723 25.0436 26.0717 24.9591 25.9365 24.86L25.7475 25.157C25.9674 25.3112 26.2453 25.3848 26.5462 25.3848C27.0788 25.3848 27.3877 25.1461 27.3877 24.812C27.3877 24.5037 27.1447 24.3423 26.7432 24.2872L26.5541 24.2612C26.3805 24.2394 26.2413 24.2066 26.2413 24.0889C26.2413 23.9603 26.3725 23.8835 26.5925 23.8835C26.8279 23.8835 27.0559 23.9679 27.1677 24.0339L27.3413 23.7255ZM32.0298 23.7988C32.1337 23.6446 32.2843 23.5417 32.5158 23.5417C32.597 23.5417 32.7128 23.5564 32.8015 23.5896L32.6778 23.9493C32.593 23.9161 32.5083 23.9052 32.4269 23.9052C32.1646 23.9052 32.0333 24.0665 32.0333 24.3568V25.3404H31.6323V23.5858H32.0298V23.7988ZM29.0924 23.586H28.4365V23.0536H28.0309V23.586H27.6568V23.9348H28.0309V24.7351C28.0309 25.1423 28.1971 25.3848 28.6715 25.3848C28.8455 25.3848 29.0461 25.3335 29.1733 25.249L29.0576 24.9221C28.9378 24.9881 28.8067 25.0213 28.7024 25.0213C28.5018 25.0213 28.4365 24.9037 28.4365 24.7276V23.9348H29.0924V23.586ZM23.0956 24.2391V25.3404H22.69V24.3639C22.69 24.0665 22.5588 23.9013 22.285 23.9013C22.0186 23.9013 21.8335 24.0631 21.8335 24.3677V25.3404H21.428V24.3639C21.428 24.0665 21.2933 23.9013 21.0269 23.9013C20.7526 23.9013 20.575 24.0631 20.575 24.3677V25.3404H20.1699V23.5858H20.5715V23.8022C20.7221 23.5967 20.9147 23.5417 21.1118 23.5417C21.3936 23.5417 21.5941 23.6594 21.7213 23.8538C21.8914 23.6077 22.1343 23.5379 22.3698 23.5417C22.8177 23.5455 23.0956 23.8244 23.0956 24.2391Z" fill="#231F20"></path><path d="M33.2882 20.6041H27.209V10.2124H33.2882V20.6041Z" fill="#FF5F00"></path><path d="M27.5932 15.409C27.5932 13.3011 28.6308 11.4234 30.2467 10.2132C29.065 9.3284 27.5738 8.80029 25.953 8.80029C22.1161 8.80029 19.0059 11.7591 19.0059 15.409C19.0059 19.0591 22.1161 22.0179 25.953 22.0179C27.5738 22.0179 29.065 21.4898 30.2467 20.6048C28.6308 19.3948 27.5932 17.517 27.5932 15.409Z" fill="#EB001B"></path><path d="M41.4873 15.409C41.4873 19.0591 38.3771 22.0179 34.5402 22.0179C32.9194 22.0179 31.4282 21.4898 30.2461 20.6048C31.8623 19.3948 32.9 17.517 32.9 15.409C32.9 13.3011 31.8623 11.4234 30.2461 10.2132C31.4282 9.3284 32.9194 8.80029 34.5402 8.80029C38.3771 8.80029 41.4873 11.7591 41.4873 15.409Z" fill="#F79E1B"></path></g><defs><clipPath id="clip0_34_100"><rect width="60" height="34" fill="white"></rect></clipPath></defs></svg> 