<?xml version="1.0" encoding="UTF-8"?> <svg xmlns="http://www.w3.org/2000/svg" width="512" height="512" viewBox="0 0 512 512"><g id="1"><path id="Path" fill="#22201e" stroke="none" d="M 376.045258 406.648499 L 113.001534 143.604767 C 107.143677 137.746887 107.143692 128.24939 113.001541 122.391571 C 118.859421 116.533661 128.356873 116.533691 134.214737 122.391541 L 397.258453 385.435272 C 403.116333 391.293152 403.116364 400.790588 397.258453 406.648499 C 391.400635 412.506317 381.903137 412.506348 376.045258 406.648499 Z"></path><path id="path1" fill="#22201e" stroke="none" d="M 397.258453 144.004761 L 134.214737 407.048462 C 128.356873 412.906342 118.859406 412.906342 113.001541 407.048462 C 107.143677 401.190613 107.143677 391.693146 113.001534 385.835266 L 376.045258 122.791534 C 381.903137 116.933685 391.400604 116.933685 397.258453 122.791534 C 403.116333 128.649414 403.116333 138.146881 397.258453 144.004761 Z"></path></g></svg> 