<?xml version="1.0" encoding="UTF-8"?> <svg xmlns="http://www.w3.org/2000/svg" width="64" height="18" viewBox="0 0 64 18" fill="none"><g clip-path="url(#clip0_34_169)"><mask id="mask0_34_169" style="mask-type:luminance" maskUnits="userSpaceOnUse" x="0" y="0" width="19" height="19"><path fill-rule="evenodd" clip-rule="evenodd" d="M4.49343 0.0081945L5.26699 0L13.3132 0.00327822C13.4354 0.00437086 13.5115 0.00600921 13.5871 0.0081945C13.9859 0.0185746 14.3886 0.0415205 14.7831 0.111996C15.1782 0.178477 15.5613 0.302931 15.9198 0.48131C16.277 0.660504 16.6047 0.894329 16.8879 1.17459C17.1712 1.45352 17.4085 1.77548 17.5908 2.12847C17.777 2.48741 17.8937 2.85508 17.9655 3.24953C18.0367 3.63851 18.0603 4.03514 18.0707 4.42849C18.0762 4.60878 18.0784 4.78906 18.0789 4.96989L18.08 5.29168V12.4141C18.08 12.6282 18.08 12.8429 18.0789 13.0577C18.0778 13.2379 18.0762 13.4182 18.0707 13.5985C18.0597 13.9919 18.0367 14.389 17.9655 14.7775C17.8979 15.1678 17.7716 15.5458 17.5908 15.8985C17.4084 16.2516 17.1712 16.5737 16.8879 16.853C16.6036 17.1331 16.2769 17.3671 15.9198 17.5462C15.5613 17.7246 15.1782 17.8491 14.7831 17.9155C14.3886 17.9855 13.9859 18.0084 13.5871 18.0194L12.3851 18.0286L4.7668 18.0243C4.67566 18.0233 4.58454 18.0215 4.49343 18.0188C4.0946 18.009 3.69193 17.9855 3.29748 17.9155C2.90253 17.8491 2.51964 17.7246 2.16125 17.5462C1.44387 17.1862 0.858742 16.6096 0.489226 15.8985C0.308699 15.5457 0.18238 15.1678 0.1145 14.7775C0.0432796 14.389 0.0202701 13.9919 0.00986103 13.5991C0.00438257 13.4188 0.00273937 13.2379 0.00164368 13.0577L0 12.7348V5.61346C0 5.3993 1.42097e-07 5.1846 0.00164368 4.97044C0.00273937 4.79015 0.00493042 4.60987 0.00986103 4.42904C0.0208179 4.03568 0.0438275 3.63905 0.1145 3.25007C0.182339 2.85977 0.308661 2.48185 0.489226 2.12902C0.858202 1.41775 1.44324 0.84103 2.1607 0.48131C2.51927 0.302924 2.90235 0.178469 3.29748 0.111996C3.69193 0.0420668 4.0946 0.0191209 4.49343 0.0081945Z" fill="white"></path></mask><g mask="url(#mask0_34_169)"><path d="M0 -0.00134277H18.0529V18.0003H0V-0.00134277Z" fill="#19AA1E"></path><path fill-rule="evenodd" clip-rule="evenodd" d="M0 -0.00134277H18.0529V5.90484L0 3.09248V-0.00134277Z" fill="#FFB919"></path><path fill-rule="evenodd" clip-rule="evenodd" d="M0 16.031L18.0529 13.2186V18.0001H0V16.031Z" fill="#82D714"></path><path fill-rule="evenodd" clip-rule="evenodd" d="M0 2.73718L6.30154 3.719C7.08595 3.22373 8.01915 2.95209 9.02619 2.95209C10.4211 2.95209 11.6748 3.473 12.5872 4.38718C12.7021 4.50282 12.8104 4.62336 12.9127 4.74882L18.0529 5.54955V6.26136L13.4345 5.54136C13.7802 6.20028 13.9613 6.93265 13.9624 7.67627C13.9624 8.64064 13.7463 9.60227 13.2989 10.5677L13.2857 10.5972L13.0954 11.003H12.6468C11.7191 11.003 11.1043 11.2795 10.7017 11.7699C10.3861 12.1545 10.2034 12.6737 10.1421 13.2399L10.1399 13.2574L10.1311 13.3479L10.1273 13.3872L10.1197 13.4641C10.0961 13.7172 10.0808 13.9315 10.0726 14.1061L18.0529 12.8625V13.5743L0 16.3872V15.6754L7.98906 14.4306L7.98578 14.2708L7.98468 14.2261L7.98359 14.2026L7.98249 14.1672C7.97538 13.9735 7.95733 13.7254 7.92889 13.4243L7.92342 13.367L7.91357 13.2683C7.85668 12.6988 7.67672 12.1735 7.36109 11.783C6.96342 11.2894 6.3546 11.0085 5.43398 11.003H4.95699L4.76718 10.5972C4.31097 9.62191 4.08998 8.65046 4.08998 7.67627C4.08998 6.45118 4.58831 5.26646 5.46571 4.38718L5.54229 4.31246L0 3.44846V2.73718Z" fill="white"></path><path fill-rule="evenodd" clip-rule="evenodd" d="M9.02603 3.65515C11.5466 3.65515 13.2571 5.58933 13.2571 7.67624C13.2571 8.51406 13.0739 9.3857 12.6461 10.2999C10.1665 10.2999 9.55444 12.0704 9.43848 13.1853L9.43082 13.259C9.39198 13.6571 9.36901 13.9762 9.36299 14.2162L8.69126 14.321V14.2992C8.68191 13.9447 8.65782 13.5907 8.61906 13.2382L8.61742 13.2186C8.5102 12.1064 7.91123 10.2999 5.40648 10.2999C4.97817 9.3857 4.79492 8.51406 4.79492 7.67624C4.79492 5.58933 6.50596 3.65515 9.02603 3.65515Z" fill="#0073FA"></path></g><path fill-rule="evenodd" clip-rule="evenodd" d="M26.7297 3.27271C23.9487 3.27271 21.8635 4.92161 21.881 7.78525H24.4656C24.43 6.6398 25.1783 5.5287 26.7297 5.5287C27.9057 5.5287 28.6546 6.29234 28.6546 7.26434C28.6546 8.27125 27.8341 8.82652 26.5158 9.45161C24.7867 10.2671 23.7528 10.6489 21.881 11.256V14.5538H31.5061V12.2973H25.3747C26.268 11.9345 27.1377 11.5363 27.9238 11.1693C30.009 10.1978 31.2386 9.10416 31.2386 7.14325C31.2386 4.78252 29.4209 3.27271 26.7297 3.27271ZM35.4276 5.70216H40.4185V3.44616H32.9322V14.5538H35.4276V5.70216ZM44.34 3.44616H41.8446V14.5538H44.322L48.9743 7.45525V14.5538H51.4698V3.44616H48.9743L44.34 10.5447V3.44616ZM64.0006 10.3882H61.416C61.0238 11.6209 59.8297 12.4713 58.4217 12.4713C56.3715 12.4713 55.0346 10.7531 55.0346 8.99998C55.0346 7.24689 56.3359 5.5287 58.4928 5.5287C59.9189 5.5287 61.0238 6.37961 61.416 7.6118H64.0006C63.6265 5.12998 61.6124 3.27271 58.4217 3.27271C54.8924 3.27271 52.5392 5.68525 52.5392 8.99998C52.5392 12.3147 54.8924 14.7273 58.4217 14.7273C61.6124 14.7273 63.6265 12.9054 64.0006 10.3882Z" fill="#262626"></path></g><defs><clipPath id="clip0_34_169"><rect width="64" height="18" fill="white"></rect></clipPath></defs></svg> 