<?xml version="1.0" encoding="UTF-8"?> <svg xmlns="http://www.w3.org/2000/svg" width="108" height="18" viewBox="0 0 108 18" fill="none"><path d="M1.5293 9C1.5293 4.85775 4.8863 1.5 9.0293 1.5C13.1708 1.5 16.5293 4.85775 16.5293 9C16.5293 13.1423 13.1708 16.5 9.0293 16.5C4.8863 16.5 1.5293 13.1423 1.5293 9Z" fill="#FC3F1D"></path><path d="M9.98969 5.74954H9.29669C8.02619 5.74954 7.35794 6.39304 7.35794 7.34179C7.35794 8.41429 7.81994 8.91679 8.76869 9.56104L9.55244 10.089L7.30019 13.4543H5.61719L7.63844 10.4438C6.47594 9.61054 5.82344 8.80129 5.82344 7.43254C5.82344 5.71654 7.01969 4.54504 9.28844 4.54504H11.5407V13.446H9.98969V5.74954Z" fill="white"></path><path d="M28.9281 14.2538H30.7503V3.58044H28.0955C25.4265 3.58044 24.0278 4.97578 24.0278 7.03486C24.0278 8.67729 24.7938 9.64627 26.1687 10.6443L23.7852 14.2538H25.7596L28.4143 10.2131L27.4961 9.58329C26.3781 8.81779 25.8357 8.21702 25.8357 6.92828C25.8357 5.78972 26.6207 5.02423 28.1146 5.02423H28.9281V14.2538ZM64.1106 14.404C64.9432 14.404 65.5284 14.2538 65.9661 13.9292V12.4418C65.5141 12.7615 64.9718 12.9602 64.2201 12.9602C62.9355 12.9602 62.4074 11.9476 62.4074 10.3536C62.4074 8.67729 63.0592 7.81974 64.2343 7.81974C64.929 7.81974 65.6045 8.06199 65.9661 8.29454V6.74417C65.5903 6.52615 64.929 6.37596 64.0393 6.37596C61.7461 6.37596 60.552 8.04745 60.552 10.3972C60.552 12.9796 61.7128 14.404 64.1106 14.404ZM52.8922 13.7305V12.2383C52.3356 12.6259 51.3983 12.9602 50.5229 12.9602C49.2098 12.9602 48.715 12.3352 48.6389 11.0416H52.9683V10.0775C52.9683 7.38854 51.8075 6.37596 50.0091 6.37596C47.8254 6.37596 46.7834 8.07652 46.7834 10.4118C46.7834 13.1007 48.0823 14.404 50.3754 14.404C51.5173 14.404 52.3641 14.0987 52.8922 13.7305ZM58.6251 14.2538H60.6566L57.7783 10.1501L60.3141 6.52615H58.5014L55.9704 10.1501V6.52615H54.172V14.2538H55.9704V10.5184L58.6251 14.2538ZM46.3457 12.81H45.5465V6.52615H40.3131V7.1899C40.3131 9.07457 40.1941 11.5164 39.5614 12.81H39V16.0173H40.6604V14.2538H44.6853V16.0173H46.3457V12.81ZM36.4547 6.52615V9.58329H34.0568V6.52615H32.2585V14.2538H34.0568V11.0271H36.4547V14.2538H38.2483V6.52615H36.4547ZM49.9805 7.81974C50.8702 7.81974 51.1414 8.5707 51.1414 9.53968V9.68988H48.6389C48.6865 8.46411 49.1194 7.81974 49.9805 7.81974ZM43.7528 12.81H41.217C41.7166 11.6424 41.8546 9.53968 41.8546 8.20249V7.96993H43.7528V12.81ZM75.3338 14.2538H77.4605L73.7353 8.64822L77.1132 3.58044H75.2577L72.013 8.49318V3.58044H70.1909V14.2538H72.013V9.24414L75.3338 14.2538ZM83.5835 8.98252C83.5835 7.11238 82.6463 6.40503 80.748 6.40503C79.5586 6.40503 78.6213 6.78777 78.079 7.11238V8.63368C78.5595 8.26063 79.6157 7.86334 80.5387 7.86334C81.395 7.86334 81.7899 8.16857 81.7899 9.0019V9.42825H81.4997C78.7546 9.42825 77.5366 10.3536 77.5366 11.9185C77.5366 13.4834 78.4691 14.3604 79.8583 14.3604C80.9145 14.3604 81.3665 14.0067 81.7138 13.6385H81.7899C81.8042 13.8371 81.866 14.0987 81.9231 14.2538H83.6739C83.6121 13.6239 83.5835 12.9941 83.5835 12.3643V8.98252ZM81.7899 12.4079C81.5616 12.747 81.1381 13.0232 80.5054 13.0232C79.7537 13.0232 79.3731 12.592 79.3731 11.9331C79.3731 11.0561 79.9915 10.7364 81.533 10.7364H81.7899V12.4079ZM86.6903 6.52615H85.0299V16.4776H86.8235V13.3478C87.2802 14.0358 87.9415 14.404 88.7122 14.404C90.4583 14.404 91.6667 12.9796 91.6667 10.3827C91.6667 7.80036 90.4916 6.37596 88.8026 6.37596C87.9558 6.37596 87.2612 6.77324 86.7807 7.5242L86.6903 6.52615ZM88.2603 12.9602C87.3087 12.9602 86.8235 12.1802 86.8235 10.3972C86.8235 8.59977 87.3373 7.81974 88.3507 7.81974C89.3307 7.81974 89.8112 8.59977 89.8112 10.3827C89.8112 12.1802 89.2974 12.9602 88.2603 12.9602ZM97.9848 7.96993V6.52615H91.9664V7.96993H94.0788V14.2538H95.8724V7.96993H97.9848ZM99.041 6.52615V14.2538H101.772C103.537 14.2538 104.788 13.3332 104.788 11.5164C104.788 9.79646 103.67 8.89047 101.8 8.89047H100.835V6.52615H99.041ZM105.45 6.52615V14.2538H107.248V6.52615H105.45ZM101.667 12.81H100.835V10.3342H101.71C102.481 10.3342 102.933 10.6879 102.933 11.5794C102.933 12.4709 102.433 12.81 101.667 12.81Z" fill="black"></path></svg> 