<?xml version="1.0" encoding="UTF-8"?> <svg xmlns="http://www.w3.org/2000/svg" width="30" height="30" viewBox="0 0 30 30" fill="none"><path fill-rule="evenodd" clip-rule="evenodd" d="M14.6652 15.6689L12.6699 13.6736C12.5024 13.512 12.2782 13.4227 12.0455 13.4248C11.8127 13.4269 11.5902 13.5204 11.4257 13.685C11.2612 13.8496 11.168 14.0723 11.166 14.305C11.1641 14.5378 11.2537 14.7619 11.4155 14.9292L13.632 17.147C13.7748 17.2901 13.9455 17.4025 14.1335 17.4771C14.3214 17.5516 14.5227 17.5868 14.7248 17.5805C14.9269 17.5742 15.1255 17.5265 15.3085 17.4403C15.4914 17.3541 15.6547 17.2313 15.7883 17.0795L19.8084 12.5221C19.9598 12.3451 20.0356 12.1157 20.0193 11.8833C20.0031 11.6509 19.8961 11.4343 19.7216 11.28C19.547 11.1258 19.3188 11.0464 19.0862 11.0589C18.8536 11.0714 18.6352 11.1749 18.4782 11.347L14.6652 15.6689Z" fill="#FE6A08"></path><path fill-rule="evenodd" clip-rule="evenodd" d="M26 8.27601C26 7.47128 25.5349 6.73992 24.8071 6.39672L15.884 2.19791C15.6075 2.06758 15.3057 2 15 2C14.6943 2 14.3925 2.06758 14.116 2.19791L5.1929 6.39672C4.83632 6.56461 4.53483 6.83043 4.32362 7.16318C4.1124 7.49593 4.00016 7.88189 4 8.27601V12.1257L4.02604 12.618C5.25207 23.6961 14.6746 27.3825 14.6746 27.3825C14.8838 27.4641 15.1162 27.4641 15.3254 27.3825C15.3254 27.3825 24.7479 23.6961 25.9692 12.618C25.9882 12.4547 25.9965 12.2902 25.9965 12.1257C26 11.5423 26 9.42631 26 8.27601ZM24.2249 8.27601C24.2249 9.42276 24.2249 11.5352 24.2213 12.121L24.2047 12.4228C23.2355 21.2109 16.5609 24.85 15 25.5861C13.439 24.85 6.76331 21.2109 5.79053 12.4239L5.77515 12.1257V8.27601C5.77515 8.15885 5.8426 8.05234 5.94911 8.00264L14.871 3.80382C14.9114 3.78515 14.9555 3.77548 15 3.77548C15.0445 3.77548 15.0886 3.78515 15.129 3.80382L24.0509 8.00264C24.1574 8.05234 24.2249 8.15885 24.2249 8.27601Z" fill="#FE6A08"></path></svg> 