<?xml version="1.0" encoding="UTF-8"?> <svg xmlns="http://www.w3.org/2000/svg" width="330" height="165" viewBox="0 0 330 165" fill="none"><rect width="330" height="165" fill="white"></rect><g clip-path="url(#clip0_149_169)"><path fill-rule="evenodd" clip-rule="evenodd" d="M151.41 83.2985C152.546 82.8601 153.521 82.0862 154.203 81.0802C154.886 80.0742 155.245 78.8843 155.231 77.6696C155.231 72.6036 151.627 70.0923 146.677 70.0923H133.695V97.6391H147.806C152.148 97.6391 156.403 94.6082 156.403 89.9752C156.403 84.4675 151.41 83.3504 151.41 83.2985ZM140.469 75.8077H145.505C145.828 75.7878 146.151 75.8315 146.456 75.9363C146.762 76.0411 147.044 76.205 147.286 76.4185C147.528 76.6321 147.725 76.8911 147.866 77.1809C148.008 77.4706 148.091 77.7853 148.11 78.1069C148.11 78.2051 148.11 78.3047 148.11 78.4057C148.096 79.0829 147.815 79.7273 147.327 80.1985C146.839 80.6697 146.184 80.9295 145.505 80.9214H140.425L140.469 75.8077ZM145.548 91.8717H140.512V86.4593H145.418C147.893 86.4593 149.065 87.5418 149.065 89.1438C149.065 91.1442 147.589 91.8717 145.548 91.8717Z" fill="#ED0007"></path><path fill-rule="evenodd" clip-rule="evenodd" d="M171.339 69.3995C163.35 69.3995 158.661 75.7645 158.661 83.8181C158.661 91.8717 163.35 98.2366 171.339 98.2366C179.328 98.2366 184.017 91.915 184.017 83.8181C184.017 75.7212 179.372 69.3995 171.339 69.3995ZM171.339 91.6552C167.432 91.6552 165.478 88.148 165.478 83.8181C165.478 79.4882 167.432 76.0243 171.339 76.0243C175.247 76.0243 177.244 79.5315 177.244 83.8181C177.244 88.1913 175.247 91.6552 171.339 91.6552Z" fill="#ED0007"></path><path fill-rule="evenodd" clip-rule="evenodd" d="M198.735 80.917L197.78 80.7005C195.436 80.2242 193.569 79.6181 193.569 77.9294C193.569 76.1108 195.349 75.3748 196.912 75.3748C197.978 75.3906 199.03 75.6256 200.001 76.0652C200.972 76.5048 201.842 77.1394 202.556 77.9294L206.855 73.6861C204.901 71.4779 201.731 69.3562 196.782 69.3562C190.964 69.3562 186.535 72.6036 186.535 78.016C186.535 82.9521 190.095 85.3768 194.437 86.2861L195.392 86.5026C198.996 87.2387 200.342 87.8016 200.342 89.5335C200.342 91.1789 198.866 92.2614 196.608 92.2614C193.916 92.2614 191.485 91.0923 189.618 88.7108L185.232 93.0407C187.664 95.9418 190.747 98.1933 196.695 98.1933C201.862 98.1933 207.376 95.249 207.376 89.2304C207.462 82.9521 202.686 81.7397 198.735 80.917Z" fill="#ED0007"></path><path fill-rule="evenodd" clip-rule="evenodd" d="M222.833 91.6551C219.794 91.6551 216.624 89.1438 216.624 83.6448C216.624 78.752 219.577 76.0242 222.659 76.0242C225.091 76.0242 226.523 77.15 227.652 79.0984L233.21 75.418C230.431 71.218 227.131 69.4427 222.572 69.4427C214.236 69.4427 209.721 75.8943 209.721 83.6881C209.721 91.8716 214.714 98.2799 222.486 98.2799C227.956 98.2799 230.561 96.3747 233.384 92.3046L227.783 88.5463C226.654 90.3561 225.438 91.6551 222.833 91.6551Z" fill="#ED0007"></path><path fill-rule="evenodd" clip-rule="evenodd" d="M251.75 70.0923V80.2242H243.37V70.0923H236.119V97.6304H243.37V86.7624H251.75V97.6304H259V70.0923H251.75Z" fill="#ED0007"></path><path d="M91.9275 63.0779C87.7884 63.0779 83.7423 64.3019 80.3008 66.5951C76.8593 68.8884 74.177 72.1478 72.593 75.9613C71.0091 79.7749 70.5946 83.9711 71.4021 88.0195C72.2096 92.0679 74.2028 95.7866 77.1295 98.7054C80.0563 101.624 83.7852 103.612 87.8447 104.417C91.9043 105.222 96.1121 104.809 99.9361 103.229C103.76 101.65 107.029 98.9749 109.328 95.5428C111.628 92.1107 112.855 88.0757 112.855 83.948C112.855 78.4129 110.65 73.1045 106.725 69.1906C102.801 65.2767 97.4778 63.0779 91.9275 63.0779ZM91.9275 102.87C88.1749 102.87 84.5065 101.76 81.3863 99.6808C78.2661 97.6016 75.8342 94.6465 74.3981 91.189C72.962 87.7315 72.5863 83.927 73.3184 80.2566C74.0505 76.5861 75.8576 73.2146 78.5111 70.5684C81.1646 67.9221 84.5454 66.12 88.2259 65.3899C91.9064 64.6598 95.7214 65.0345 99.1884 66.4667C102.655 67.8988 105.619 70.324 107.704 73.4357C109.788 76.5473 110.901 80.2056 110.901 83.948C110.9 88.966 108.901 93.7781 105.343 97.3263C101.785 100.875 96.9593 102.868 91.9275 102.87Z" fill="black"></path><path d="M100.567 70.915H99.1344V78.0594H84.763V70.915H83.2868C81.1247 72.3375 79.3502 74.2728 78.1224 76.5474C76.8946 78.822 76.252 81.3648 76.252 83.948C76.252 86.5312 76.8946 89.0741 78.1224 91.3487C79.3502 93.6233 81.1247 95.5585 83.2868 96.981H84.763V89.8454H99.1344V96.9897H100.567C102.73 95.5679 104.506 93.6328 105.734 91.3582C106.963 89.0835 107.606 86.5403 107.606 83.9567C107.606 81.3731 106.963 78.8299 105.734 76.5552C104.506 74.2805 102.73 72.3455 100.567 70.9237V70.915ZM82.7658 94.1752C81.4193 92.9821 80.3216 91.5361 79.5354 89.9198C78.7493 88.3036 78.2901 86.5487 78.184 84.7554C78.078 82.9622 78.3272 81.1657 78.9174 79.4685C79.5076 77.7713 80.4273 76.2066 81.6239 74.8639C81.9826 74.4644 82.3638 74.0856 82.7658 73.7295V94.1752ZM99.1344 87.8536H84.763V80.0078H99.1344V87.8536ZM101.088 94.132V89.8021V78.0594V73.7295C102.431 74.9323 103.524 76.3874 104.303 78.0114C105.082 79.6355 105.533 81.3967 105.629 83.1945C105.726 84.9923 105.466 86.7915 104.865 88.4891C104.264 90.1867 103.333 91.7496 102.126 93.0884C101.798 93.4505 101.451 93.7959 101.088 94.1233V94.132Z" fill="black"></path></g><defs><clipPath id="clip0_149_169"><rect width="188" height="42" fill="white" transform="translate(71 63)"></rect></clipPath></defs></svg> 