<?xml version="1.0" encoding="UTF-8"?> <svg xmlns="http://www.w3.org/2000/svg" width="34" height="30" viewBox="0 0 34 30" fill="none"><path fill-rule="evenodd" clip-rule="evenodd" d="M27.0704 3.16891C27.0704 1.4186 25.6673 0 23.9379 0L10.5708 0C8.84047 0 7.43746 1.4186 7.43746 3.16891C7.43746 8.61674 7.43746 21.3842 7.43746 26.8314C7.43746 28.5817 8.84047 30 10.5708 30H23.9379C25.6673 30 27.0704 28.5817 27.0704 26.8314V3.16891ZM25.8168 3.16891V26.8314C25.8168 27.8813 24.9759 28.7329 23.9379 28.7329C20.4266 28.7329 14.0812 28.7329 10.5708 28.7329C9.53254 28.7329 8.69104 27.8813 8.69104 26.8314V3.16891C8.69104 2.11867 9.53254 1.26714 10.5708 1.26714C14.0812 1.26714 20.4266 1.26714 23.9379 1.26714C24.9759 1.26714 25.8168 2.11867 25.8168 3.16891ZM17.2544 13.489C13.5559 13.489 10.5546 16.5249 10.5546 20.2652C10.5546 24.0063 13.5559 27.0422 17.2544 27.0422C20.9519 27.0422 23.9532 24.0063 23.9532 20.2652C23.9532 16.5249 20.9519 13.489 17.2544 13.489ZM17.2544 14.7561C20.2604 14.7561 22.7005 17.2253 22.7005 20.2652C22.7005 23.3059 20.2604 25.7751 17.2544 25.7751C14.2483 25.7751 11.8073 23.3059 11.8073 20.2652C11.8073 17.2253 14.2483 14.7561 17.2544 14.7561ZM17.2544 16.1217C14.9928 16.1217 13.1573 17.9784 13.1573 20.2652C13.1573 22.5529 14.9928 24.4095 17.2544 24.4095C19.515 24.4095 21.3511 22.5529 21.3511 20.2652C21.3511 17.9784 19.515 16.1217 17.2544 16.1217ZM4.28974 23.1166C2.843 20.7586 2.00748 17.9775 2.00748 15.0006C2.00748 12.0225 2.843 9.24167 4.28974 6.88339C4.47211 6.58653 4.38168 6.19545 4.0879 6.01097C3.79442 5.82648 3.4072 5.91797 3.22542 6.21484C1.6592 8.76699 0.753906 11.7775 0.753906 15.0006C0.753906 18.2225 1.6592 21.233 3.22542 23.7852C3.4072 24.0823 3.79442 24.1738 4.0879 23.989C4.38168 23.8055 4.47211 23.4138 4.28974 23.1166ZM31.283 23.7852C32.8492 21.233 33.7539 18.2225 33.7539 15.0006C33.7539 11.7775 32.8492 8.76699 31.283 6.21484C31.1006 5.91797 30.7143 5.82648 30.4199 6.01097C30.1261 6.19545 30.0357 6.58653 30.2181 6.88339C31.6648 9.24167 32.5006 12.0225 32.5006 15.0006C32.5006 17.9775 31.6648 20.7586 30.2181 23.1166C30.0357 23.4138 30.1261 23.8055 30.4199 23.989C30.7143 24.1738 31.1006 24.0823 31.283 23.7852ZM17.2544 17.3889C18.8236 17.3889 20.0978 18.6778 20.0978 20.2652C20.0978 21.8534 18.8236 23.1424 17.2544 23.1424C15.6842 23.1424 14.41 21.8534 14.41 20.2652C14.41 18.6778 15.6842 17.3889 17.2544 17.3889ZM17.2544 18.8399C18.0324 18.8399 18.6643 19.4791 18.6643 20.2652C18.6643 21.0525 18.0324 21.6913 17.2544 21.6913C16.476 21.6913 15.8445 21.0525 15.8445 20.2652C15.8445 19.4791 16.476 18.8399 17.2544 18.8399ZM29.7237 19.5596C30.5364 18.2349 31.0063 16.6725 31.0063 15.0006C31.0063 13.3278 30.5364 11.7651 29.7237 10.4407C29.5413 10.1435 29.155 10.052 28.8612 10.2359C28.5668 10.4204 28.4764 10.812 28.6587 11.1089C29.3526 12.2397 29.7527 13.5729 29.7527 15.0006C29.7527 16.4274 29.3526 17.7606 28.6587 18.8911C28.4764 19.1883 28.5668 19.5796 28.8612 19.7644C29.155 19.9489 29.5413 19.8574 29.7237 19.5596ZM5.84907 18.8911C5.1552 17.7606 4.75511 16.4274 4.75511 15.0006C4.75511 13.5729 5.1552 12.2397 5.84907 11.1089C6.03145 10.812 5.94101 10.4204 5.64723 10.2359C5.35285 10.052 4.96654 10.1435 4.78416 10.4407C3.9714 11.7651 3.50154 13.3278 3.50154 15.0006C3.50154 16.6725 3.9714 18.2349 4.78416 19.5596C4.96654 19.8574 5.35285 19.9489 5.64723 19.7644C5.94101 19.5796 6.03145 19.1883 5.84907 18.8911ZM17.2544 2.95777C14.5142 2.95777 12.2895 5.20761 12.2895 7.97908C12.2895 10.7509 14.5142 13.0013 17.2544 13.0013C19.9942 13.0013 22.2184 10.7509 22.2184 7.97908C22.2184 5.20761 19.9942 2.95777 17.2544 2.95777ZM17.2544 4.22491C19.3021 4.22491 20.9657 5.90797 20.9657 7.97908C20.9657 10.0514 19.3021 11.7332 17.2544 11.7332C15.2057 11.7332 13.543 10.0514 13.543 7.97908C13.543 5.90797 15.2057 4.22491 17.2544 4.22491ZM17.2544 5.81013C16.0706 5.81013 15.1093 6.78191 15.1093 7.97908C15.1093 9.17655 16.0706 10.1489 17.2544 10.1489C18.4379 10.1489 19.3986 9.17655 19.3986 7.97908C19.3986 6.78191 18.4379 5.81013 17.2544 5.81013ZM17.2544 7.07727C17.7464 7.07727 18.1459 7.48137 18.1459 7.97908C18.1459 8.47709 17.7464 8.88119 17.2544 8.88119C16.762 8.88119 16.3628 8.47709 16.3628 7.97908C16.3628 7.48137 16.762 7.07727 17.2544 7.07727Z" fill="#666666" fill-opacity="0.15"></path></svg> 