<?xml version="1.0" encoding="UTF-8"?> <svg xmlns="http://www.w3.org/2000/svg" width="330" height="166" viewBox="0 0 330 166" fill="none"><rect y="1" width="330" height="165" fill="white"></rect><g clip-path="url(#clip0_149_181)"><path d="M120.611 84.7809C120.543 77.5957 126.481 74.1435 126.748 73.9791C123.406 69.0953 118.214 68.4241 116.364 68.3487C111.946 67.8967 107.741 70.9516 105.494 70.9516C103.247 70.9516 99.7883 68.4104 96.1238 68.4857C91.3016 68.5542 86.8563 71.2872 84.3699 75.6025C79.3696 84.2741 83.0958 97.1513 87.9796 104.2C90.3701 107.645 93.2058 111.529 96.9457 111.385C100.549 111.241 101.905 109.056 106.247 109.056C110.59 109.056 111.816 111.385 115.618 111.316C119.488 111.241 121.94 107.796 124.31 104.337C127.036 100.33 128.166 96.4595 128.235 96.254C128.146 96.2198 120.693 93.3635 120.611 84.7809Z" fill="black"></path><path d="M113.467 63.6773C115.454 61.2731 116.79 57.9373 116.427 54.6084C113.57 54.7248 110.111 56.5126 108.063 58.9168C106.227 61.0402 104.618 64.4376 105.056 67.698C108.228 67.9446 111.488 66.0746 113.467 63.6773ZM145.661 91.8428L142.373 101.809H138.147L148.907 70.1364H153.839L164.641 101.809H160.271L156.887 91.8428H145.661ZM156.045 88.6441L152.949 79.5272C152.243 77.4587 151.777 75.5819 151.305 73.7462H151.216C150.743 75.623 150.229 77.5477 149.62 79.4793L146.524 88.6372L156.045 88.6441ZM167.846 86.4864C167.846 83.5753 167.757 81.2191 167.655 79.0615H171.367L171.559 82.9657H171.648C173.34 80.1916 176.018 78.5477 179.731 78.5477C185.231 78.5477 189.361 83.1986 189.361 90.1099C189.361 98.2883 184.381 102.323 179.025 102.323C176.018 102.323 173.388 101.008 172.025 98.7541H171.936V111.111H167.846V86.4864ZM171.929 92.5483C171.929 93.1648 172.018 93.7196 172.121 94.2402C172.874 97.1033 175.36 99.0828 178.326 99.0828C182.696 99.0828 185.238 95.5142 185.238 90.2948C185.238 85.733 182.84 81.8424 178.47 81.8424C175.655 81.8424 173.025 83.863 172.216 86.9659C172.073 87.4796 171.936 88.0961 171.936 88.6578L171.929 92.5483ZM193.635 86.4864C193.635 83.5753 193.546 81.2191 193.443 79.0615H197.156L197.348 82.9657H197.437C199.129 80.1916 201.807 78.5477 205.519 78.5477C211.019 78.5477 215.15 83.1986 215.15 90.1099C215.15 98.2883 210.17 102.323 204.814 102.323C201.807 102.323 199.177 101.008 197.813 98.7541H197.724V111.111H193.635V86.4864ZM197.724 92.5483C197.724 93.1648 197.813 93.7196 197.916 94.2402C198.67 97.1033 201.156 99.0828 204.122 99.0828C208.492 99.0828 211.033 95.5142 211.033 90.2948C211.033 85.733 208.636 81.8424 204.266 81.8424C201.451 81.8424 198.82 83.863 198.012 86.9659C197.868 87.4796 197.731 88.0961 197.731 88.6578L197.724 92.5483ZM219.431 68.4446H223.568V101.802H219.431V68.4446ZM231.883 91.1853C231.972 96.7745 235.548 99.0828 239.678 99.0828C242.637 99.0828 244.425 98.5691 245.973 97.9116L246.678 100.871C245.226 101.528 242.733 102.282 239.117 102.282C232.116 102.282 227.931 97.6787 227.931 90.8154C227.931 83.9521 231.972 78.5477 238.596 78.5477C246.021 78.5477 247.994 85.0754 247.994 89.2605C247.994 90.1099 247.905 90.7606 247.85 91.1853H231.883ZM244.007 88.2262C244.055 85.596 242.925 81.5068 238.274 81.5068C234.089 81.5068 232.26 85.3631 231.931 88.2262H244.007Z" fill="black"></path></g><defs><clipPath id="clip0_149_181"><rect width="166" height="166" fill="white" transform="translate(82)"></rect></clipPath></defs></svg> 