<?xml version="1.0" encoding="UTF-8"?> <svg xmlns="http://www.w3.org/2000/svg" width="468" height="116" viewBox="0 0 468 116"><linearGradient id="linearGradient1" x1="237.82675" y1="57.09387" x2="350.07938" y2="58.43227" gradientUnits="userSpaceOnUse"><stop offset="1e-05" stop-color="#4d3fa6" stop-opacity="1"></stop><stop offset="1" stop-color="#583de8" stop-opacity="1"></stop></linearGradient><path id="Path" fill="url(#linearGradient1)" stroke="none" d="M 288.989014 1.28299 C 289.91567 1.200267 290.843669 1.140305 291.77301 1.103104 C 292.703003 1.065903 293.632996 1.051534 294.562988 1.059998 C 295.493673 1.068461 296.42334 1.099762 297.35199 1.1539 C 298.28066 1.207967 299.207326 1.284831 300.131989 1.384491 C 301.057322 1.4841 301.979329 1.606369 302.89801 1.751297 C 303.817342 1.896164 304.73234 2.063533 305.643005 2.253403 C 306.55367 2.443202 307.45933 2.655268 308.359985 2.889603 C 309.259989 3.123866 310.153992 3.380096 311.041992 3.658295 C 311.929993 3.936493 312.810659 4.236328 313.68399 4.5578 C 314.556671 4.879201 315.421346 5.221832 316.278015 5.585693 C 317.134013 5.949626 317.980672 6.33433 318.817993 6.739807 C 319.655334 7.145264 320.48234 7.571025 321.299011 8.01709 C 322.115662 8.463236 322.920654 8.929108 323.713989 9.414703 C 324.507996 9.900238 325.289337 10.405004 326.058014 10.929001 C 326.827342 11.452998 327.583008 11.995667 328.325012 12.557007 C 329.067668 13.117676 329.795664 13.696676 330.509003 14.294006 C 331.222992 14.890666 331.921987 15.504664 332.605988 16.136002 C 333.289988 16.766668 333.957987 17.414001 334.609985 18.078003 C 335.262004 18.742004 335.897339 19.421672 336.515991 20.117004 C 337.134664 20.812337 337.736003 21.522339 338.320007 22.247009 C 338.904012 22.97167 339.469676 23.710002 340.016998 24.462006 C 340.564341 25.214671 341.093343 25.980337 341.604004 26.759003 C 342.113993 27.536997 342.604655 28.327332 343.075989 29.130005 C 343.547323 29.932668 343.998657 30.746333 344.429993 31.570999 C 344.861328 32.395665 345.272329 33.230331 345.662994 34.074997 C 346.052989 34.920334 346.422323 35.774333 346.770996 36.636993 C 347.11967 37.500336 347.447001 38.371338 347.752991 39.25 C 348.058329 40.129333 348.342336 41.015335 348.605011 41.908005 C 348.867666 42.801336 349.107992 43.700333 349.325989 44.604996 C 349.544006 45.509669 349.740011 46.419337 349.914001 47.334 C 350.087341 48.248662 350.238342 49.166997 350.367004 50.089005 C 350.495667 51.01033 350.601664 51.934662 350.684998 52.862 C 350.768331 53.789337 350.829 54.718002 350.867004 55.647995 C 350.904338 56.577998 350.919006 57.508331 350.911011 58.438995 C 350.902995 59.36967 350.872325 60.299672 350.819 61.229004 C 350.765676 62.158335 350.689341 63.085668 350.589996 64.011002 C 350.491323 64.936335 350.369659 65.859004 350.225006 66.779007 C 350.081004 67.698339 349.914337 68.613668 349.725006 69.524994 C 349.535675 70.43633 349.324341 71.342667 349.091003 72.244003 C 348.856995 73.144669 348.601329 74.039332 348.324005 74.927994 C 348.046661 75.815994 347.74766 76.696996 347.427002 77.570999 C 347.105672 78.445002 346.763672 79.310338 346.401001 80.167007 C 346.037659 81.023666 345.653656 81.871333 345.248993 82.710007 C 344.84433 83.547999 344.418996 84.375661 343.972992 85.192993 C 343.527659 86.009664 343.062663 86.815333 342.578003 87.610001 C 342.093343 88.403997 341.589345 89.185994 341.06601 89.955994 C 340.542674 90.725332 340.000671 91.481669 339.440002 92.225006 C 338.880005 92.967672 338.302002 93.696335 337.705994 94.410995 C 337.110006 95.125666 336.496674 95.825333 335.865997 96.509995 C 335.235341 97.194667 334.588338 97.863337 333.924988 98.516006 C 333.262329 99.168666 332.583669 99.804662 331.889008 100.423996 C 331.194326 101.04333 330.484985 101.64533 329.760986 102.229996 C 329.036987 102.814662 328.299327 103.381327 327.548004 103.929993 C 326.79601 104.477997 326.031342 105.007334 325.253998 105.518005 C 324.476003 106.029338 323.686005 106.521001 322.884003 106.992996 C 322.082001 107.465001 321.269002 107.917002 320.445007 108.348999 C 319.621012 108.780996 318.787008 109.192663 317.942993 109.584 C 317.098999 109.975337 316.245667 110.345337 315.382996 110.694 C 314.520996 111.043335 313.650665 111.371333 312.772003 111.677994 C 311.893341 111.984665 311.008006 112.269333 310.115997 112.531998 C 309.223338 112.795334 308.325002 113.036336 307.42099 113.255005 C 306.516998 113.474335 305.608002 113.671 304.694 113.845001 C 303.779999 114.019663 302.862335 114.171331 301.94101 114.300003 C 301.019663 114.429337 300.095662 114.536001 299.169006 114.619995 C 298.241679 114.704 297.313009 114.764999 296.382996 114.802994 C 295.452332 114.84166 294.521667 114.85733 293.591003 114.850006 C 292.659668 114.842 291.729329 114.811666 290.799988 114.759003 C 289.870667 114.705668 288.943003 114.629669 288.016998 114.531006 C 287.090993 114.432332 286.168325 114.311 285.248993 114.167007 C 284.32899 114.022334 283.412994 113.855667 282.501007 113.667007 C 281.589671 113.477666 280.683339 113.266332 279.782013 113.033005 C 278.880666 112.799006 277.985657 112.54334 277.096985 112.266006 C 276.208333 111.988002 275.327006 111.688665 274.453003 111.367996 C 273.579 111.047328 272.713328 110.704997 271.855988 110.341003 C 270.998667 109.977671 270.151001 109.593338 269.312988 109.188004 C 268.474325 108.78333 267.646332 108.357997 266.82901 107.912003 C 266.011668 107.465998 265.205668 107.000331 264.411011 106.514999 C 263.616333 106.029668 262.833995 105.525004 262.063995 105.001007 C 261.293996 104.477 260.537333 103.934662 259.794006 103.373993 C 259.051331 102.812663 258.322327 102.233663 257.606995 101.636993 C 256.892334 101.040334 256.192668 100.426336 255.507996 99.794998 C 254.823324 99.163671 254.154663 98.516006 253.502014 97.852005 C 252.849345 97.188004 252.213003 96.508336 251.592987 95.813004 C 250.973663 95.116999 250.371663 94.406667 249.786987 93.682007 C 249.202332 92.957336 248.636007 92.218333 248.088013 91.464996 C 247.539347 90.712331 247.009674 89.946665 246.498993 89.167999 C 245.988332 88.389333 245.496999 87.598333 245.024994 86.794998 C 244.552989 85.992335 244.100993 85.178335 243.669006 84.352997 C 243.237 83.527669 242.825663 82.692337 242.434998 81.847 C 242.04366 81.001663 241.673665 80.147329 241.325012 79.283997 C 240.975667 78.420003 240.648 77.54834 240.34201 76.669006 C 240.036001 75.789001 239.751333 74.902334 239.488007 74.009003 C 239.225332 73.115 238.984996 72.215332 238.766998 71.309998 C 238.54833 70.404663 238.352 69.494329 238.178009 68.578995 C 238.003998 67.663661 237.852661 66.744995 237.723999 65.822998 C 237.595337 64.90033 237.489339 63.974996 237.406006 63.046997 C 237.322673 62.118998 237.262004 61.189667 237.223999 60.259003 C 237.186666 59.328339 237.171997 58.397339 237.179993 57.466003 C 237.187988 56.534668 237.218658 55.603999 237.272003 54.673996 C 237.325999 53.744003 237.402669 52.815674 237.502014 51.889008 C 237.601339 50.963003 237.723002 50.039998 237.867004 49.119995 C 238.011678 48.200002 238.179006 47.284002 238.368988 46.371994 C 238.558339 45.459997 238.770009 44.552999 239.003998 43.651001 C 239.238007 42.749664 239.494008 41.854329 239.772003 40.964996 C 240.049998 40.076335 240.34966 39.194672 240.67099 38.320007 C 240.99234 37.446004 241.335012 36.580332 241.699005 35.722992 C 242.062327 34.865 242.446655 34.017003 242.85199 33.179001 C 243.257996 32.340327 243.684001 31.511993 244.130005 30.694 C 244.576009 29.876668 245.041677 29.070669 245.527008 28.276001 C 246.013011 27.481333 246.518005 26.699 247.041992 25.929001 C 247.565999 25.159002 248.108673 24.402334 248.670013 23.658997 C 249.230662 22.91567 249.809662 22.186671 250.407013 21.472 C 251.003672 20.757329 251.617666 20.057663 252.248993 19.373001 C 252.880341 18.688339 253.528341 18.019674 254.192993 17.367004 C 254.856995 16.713664 255.536662 16.077332 256.231995 15.458008 C 256.927327 14.838664 257.637329 14.236664 258.362 13.652008 C 259.087341 13.068003 259.826345 12.501668 260.57901 11.953003 C 261.331675 11.404999 262.097341 10.875661 262.876007 10.36499 C 263.654673 9.854594 264.445669 9.36353 265.248993 8.8918 C 266.051666 8.42013 266.865336 7.96843 267.690002 7.536697 C 268.51534 7.105026 269.350677 6.693858 270.196014 6.303192 C 271.04068 5.912526 271.894674 5.542826 272.757996 5.194092 C 273.621338 4.845428 274.493001 4.518168 275.372986 4.212311 C 276.252319 3.906443 277.138662 3.62234 278.032013 3.360001 C 278.925344 3.097733 279.824677 2.857534 280.730011 2.639404 C 281.634674 2.421265 282.544342 2.225494 283.459015 2.052094 C 284.374339 1.878693 285.292999 1.727865 286.214996 1.599609 C 287.136993 1.471334 288.061666 1.365794 288.989014 1.28299 Z M 296.06601 84.535995 C 296.500661 84.50266 296.934326 84.458328 297.367004 84.403 C 297.799662 84.348333 298.230662 84.282664 298.660004 84.205994 C 299.089996 84.129995 299.517324 84.04333 299.941986 83.945999 C 300.36732 83.84933 300.789988 83.741994 301.209991 83.623993 C 301.629995 83.506002 302.046661 83.37767 302.459991 83.238998 C 302.873993 83.100998 303.283997 82.952667 303.690002 82.794006 C 304.096659 82.635335 304.498993 82.467 304.897003 82.289001 C 305.294993 82.110331 305.688324 81.922333 306.076996 81.725006 C 306.465668 81.526998 306.849335 81.319661 307.227997 81.102997 C 307.606659 80.887004 307.979991 80.661336 308.347992 80.425995 C 308.715322 80.191335 309.07666 79.947673 309.432007 79.695007 C 309.788005 79.442332 310.137339 79.180995 310.480011 78.910995 C 310.822662 78.641668 311.158661 78.363668 311.488007 78.076996 C 311.817332 77.790995 312.139333 77.496999 312.45401 77.195007 C 312.768667 76.893005 313.075663 76.583338 313.375 76.266006 C 313.674337 75.948664 313.965668 75.624329 314.248993 75.292999 C 314.53299 74.960999 314.808329 74.622665 315.075012 74.278 C 315.342346 73.932663 315.600677 73.581329 315.850006 73.223999 C 316.100006 72.865997 316.341003 72.50233 316.572998 72.132996 C 316.804342 71.763 317.026672 71.38767 317.23999 71.007004 C 317.454 70.626999 317.658 70.241664 317.85199 69.850998 C 318.046672 69.460332 318.231679 69.064997 318.407013 68.664993 C 318.581675 68.265661 318.746674 67.861994 318.902008 67.453995 C 319.057343 67.046666 319.202677 66.635335 319.338013 66.220001 C 319.473328 65.805339 319.597992 65.387339 319.712006 64.966003 C 319.82667 64.545339 319.931 64.122004 320.024994 63.695999 C 320.118988 63.269333 320.202321 62.840998 320.274994 62.410995 C 320.347666 61.981003 320.409668 61.549337 320.460999 61.115997 C 320.512329 60.682668 320.553335 60.248337 320.584015 59.813004 C 320.614003 59.37767 320.633331 58.941671 320.641998 58.505005 C 320.651337 58.069 320.649668 57.633001 320.636993 57.197006 C 320.624339 56.761002 320.601003 56.325333 320.566986 55.889999 C 320.53299 55.454666 320.488332 55.020665 320.433014 54.587997 C 320.377675 54.155329 320.312002 53.72433 320.235992 53.294998 C 320.159332 52.864995 320.072337 52.437327 319.975006 52.011993 C 319.877675 51.58666 319.769674 51.163996 319.651001 50.744003 C 319.533 50.324 319.404663 49.906998 319.265991 49.492996 C 319.12734 49.079666 318.978678 48.669668 318.820007 48.263 C 318.661336 47.857005 318.492666 47.454671 318.313995 47.056 C 318.135325 46.658 317.946991 46.264669 317.748993 45.876007 C 317.551666 45.487335 317.344666 45.103668 317.127991 44.725006 C 316.911336 44.346334 316.685343 43.972997 316.450012 43.604996 C 316.215332 43.237666 315.971324 42.876002 315.717987 42.520004 C 315.465322 42.164668 315.20399 41.815669 314.93399 41.473007 C 314.664663 41.130335 314.386668 40.794332 314.100006 40.464996 C 313.813344 40.135661 313.519012 39.81366 313.21701 39.498993 C 312.915009 39.184326 312.605337 38.87733 312.287994 38.578003 C 311.970673 38.278666 311.646342 37.987335 311.315002 37.70401 C 310.982992 37.420664 310.644653 37.14566 310.299988 36.878998 C 309.954671 36.611664 309.603007 36.353333 309.244995 36.104004 C 308.887675 35.854675 308.524007 35.614009 308.153992 35.382004 C 307.784668 35.15067 307.409668 34.928335 307.028992 34.714996 C 306.648336 34.501658 306.263 34.297658 305.872986 34.102997 C 305.48232 33.908997 305.086995 33.724665 304.687012 33.550003 C 304.287679 33.374669 303.884338 33.209666 303.47699 33.054993 C 303.06899 32.899658 302.657664 32.754659 302.243011 32.619995 C 301.828339 32.485331 301.410339 32.360667 300.989014 32.246002 C 300.568339 32.131999 300.144999 32.027995 299.718994 31.93399 C 299.292989 31.840668 298.86499 31.75767 298.434998 31.684998 C 298.005005 31.612996 297.573344 31.551331 297.140015 31.5 C 296.706665 31.448669 296.272664 31.408 295.838013 31.377991 C 295.402669 31.348002 294.967 31.329005 294.531006 31.320999 C 294.095011 31.312332 293.659007 31.314331 293.222992 31.326996 C 292.786997 31.340332 292.351664 31.364003 291.916992 31.39801 C 291.48234 31.432007 291.049011 31.477 290.617004 31.53299 C 290.184998 31.588328 289.754659 31.654332 289.325989 31.731003 C 288.896667 31.807673 288.469676 31.895004 288.045013 31.992996 C 287.620331 32.090337 287.198324 32.198339 286.778992 32.317001 C 286.35966 32.435003 285.943665 32.563334 285.531006 32.701996 C 285.117676 32.841339 284.708344 32.990341 284.303009 33.149002 C 283.897003 33.307663 283.495331 33.476329 283.097992 33.654999 C 282.700673 33.833669 282.307678 34.022003 281.919006 34.220001 C 281.531006 34.417999 281.148 34.625336 280.769989 34.84201 C 280.391998 35.058665 280.019338 35.284327 279.652008 35.518997 C 279.285329 35.754339 278.924327 35.998342 278.569 36.251007 C 278.214325 36.503672 277.865662 36.765004 277.52301 37.035004 C 277.18101 37.305003 276.845673 37.583003 276.516998 37.869003 C 276.188324 38.155665 275.866994 38.449997 275.553009 38.751999 C 275.239003 39.054001 274.932332 39.363668 274.632996 39.681 C 274.33433 39.99767 274.043335 40.322006 273.76001 40.654007 C 273.477336 40.985336 273.202667 41.323334 272.936005 41.667999 C 272.669993 42.012665 272.412323 42.363998 272.162994 42.722 C 271.913666 43.07933 271.67333 43.442663 271.441986 43.811996 C 271.210663 44.18133 270.988332 44.55633 270.774994 44.936996 C 270.562327 45.317001 270.358663 45.702337 270.164001 46.093002 C 269.969991 46.482997 269.785655 46.87766 269.610992 47.276993 C 269.43633 47.676336 269.271667 48.079671 269.117004 48.487 C 268.96167 48.894338 268.816671 49.305339 268.682007 49.720001 C 268.547343 50.134664 268.422679 50.552333 268.308014 50.973007 C 268.194 51.393672 268.089996 51.817001 267.996002 52.242996 C 267.902659 52.66833 267.819661 53.095998 267.747009 53.526001 C 267.674337 53.956004 267.612335 54.387339 267.561005 54.820007 C 267.509674 55.253337 267.469004 55.687332 267.438995 56.121994 C 267.409007 56.556666 267.389679 56.991999 267.381012 57.427994 C 267.371674 57.863998 267.373332 58.299667 267.385986 58.735001 C 267.398661 59.171005 267.421997 59.606339 267.455994 60.041 C 267.48999 60.475662 267.534658 60.909327 267.589996 61.341995 C 267.645335 61.774002 267.710999 62.204671 267.786987 62.634003 C 267.862996 63.063334 267.949666 63.490331 268.046997 63.914993 C 268.144328 64.340327 268.251994 64.762665 268.369995 65.182007 C 268.487996 65.602 268.616333 66.018667 268.755005 66.432007 C 268.893677 66.845337 269.042013 67.255 269.200012 67.660995 C 269.358663 68.067001 269.526988 68.469004 269.704987 68.867004 C 269.883657 69.264333 270.071665 69.657333 270.269012 70.046005 C 270.466339 70.434667 270.67334 70.818334 270.890015 71.197006 C 271.105998 71.575007 271.331329 71.947673 271.56601 72.315002 C 271.800669 72.682332 272.044332 73.043666 272.296997 73.399002 C 272.548991 73.754339 272.809662 74.103338 273.07901 74.445999 C 273.348338 74.788671 273.625997 75.124669 273.911987 75.453995 C 274.197998 75.782669 274.492004 76.10434 274.794006 76.419006 C 275.095337 76.733673 275.404338 77.04067 275.721008 77.339996 C 276.03833 77.639333 276.362325 77.930669 276.692993 78.214005 C 277.024333 78.49734 277.362335 78.772339 277.707001 79.039001 C 278.050995 79.306335 278.401662 79.564667 278.759003 79.813995 C 279.116343 80.063334 279.479675 80.304001 279.848999 80.535995 C 280.217672 80.768 280.592 80.990667 280.971985 81.203995 C 281.35199 81.417333 281.737 81.621333 282.127014 81.815994 C 282.517008 82.010666 282.911336 82.195333 283.309998 82.369995 C 283.70933 82.545329 284.112335 82.710663 284.519012 82.865997 C 284.926341 83.021332 285.337006 83.166667 285.751007 83.302002 C 286.16566 83.437337 286.582987 83.562337 287.002991 83.677002 C 287.423665 83.791667 287.84667 83.895665 288.272003 83.988998 C 288.697337 84.083003 289.125 84.166672 289.554993 84.240005 C 289.984334 84.312668 290.415334 84.375 290.847992 84.427002 C 291.28067 84.478333 291.714335 84.519333 292.148987 84.550003 C 292.583659 84.580663 293.018667 84.600662 293.45401 84.610001 C 293.890004 84.618668 294.325663 84.616999 294.760986 84.604996 C 295.19633 84.592331 295.631337 84.569331 296.06601 84.535995 Z"></path><linearGradient id="linearGradient2" x1="117.851" y1="56.85527" x2="230.10654" y2="58.68526" gradientUnits="userSpaceOnUse"><stop offset="1e-05" stop-color="#40415f" stop-opacity="1"></stop><stop offset="1" stop-color="#4d3fa1" stop-opacity="1"></stop></linearGradient><path id="path1" fill="url(#linearGradient2)" stroke="none" d="M 169.717987 1.275208 C 170.645986 1.204732 171.575328 1.157094 172.506012 1.132294 C 173.436005 1.107564 174.366333 1.105667 175.296997 1.126602 C 176.227661 1.147598 177.157328 1.191467 178.085999 1.258209 C 179.013997 1.32487 179.940002 1.414337 180.864014 1.526611 C 181.788005 1.638804 182.708669 1.773666 183.626007 1.931198 C 184.543345 2.08874 185.45634 2.268707 186.36499 2.4711 C 187.273661 2.673574 188.176666 2.898204 189.074005 3.144989 C 189.971995 3.391856 190.862996 3.660624 191.747009 3.951294 C 192.631002 4.241903 193.50767 4.554108 194.377014 4.887909 C 195.245667 5.221629 196.105662 5.576528 196.957001 5.952606 C 197.80899 6.328664 198.650991 6.725428 199.483002 7.142899 C 200.314992 7.560369 201.136322 7.998006 201.946991 8.455811 C 202.756989 8.913676 203.555654 9.391174 204.342987 9.888306 C 205.13032 10.385437 205.904653 10.901667 206.665985 11.436996 C 207.427989 11.972326 208.175995 12.525991 208.910004 13.097992 C 209.644663 13.669993 210.364665 14.259664 211.070007 14.867004 C 211.776001 15.474335 212.466329 16.098663 213.140991 16.73999 C 213.815674 17.381327 214.474345 18.038996 215.117004 18.712997 C 215.759664 19.386327 216.385325 20.075328 216.993988 20.779999 C 217.602671 21.48467 218.193675 22.203669 218.766998 22.936996 C 219.340342 23.670995 219.895345 24.41833 220.432007 25.179001 C 220.968669 25.939672 221.486328 26.713338 221.984985 27.5 C 222.483663 28.286001 222.962667 29.084 223.421997 29.893997 C 223.881327 30.704005 224.320658 31.524673 224.73999 32.356003 C 225.159322 33.188004 225.557658 34.029338 225.934998 34.880005 C 226.313009 35.731333 226.669678 36.591329 227.005005 37.459991 C 227.341003 38.328664 227.655334 39.205002 227.947998 40.089005 C 228.23999 40.972997 228.510325 41.863663 228.759003 42.761002 C 229.00766 43.65833 229.234324 44.56133 229.438995 45.470001 C 229.643667 46.378662 229.825663 47.291662 229.984985 48.209 C 230.144328 49.126338 230.281331 50.047338 230.395996 50.972 C 230.509989 51.896001 230.601329 52.822337 230.670013 53.751007 C 230.738678 54.679667 230.784678 55.609329 230.808014 56.539993 C 230.830678 57.471329 230.830678 58.402328 230.808014 59.332993 C 230.785329 60.264328 230.73999 61.194331 230.671997 62.123001 C 230.603333 63.051671 230.512329 63.978002 230.398987 64.901993 C 230.284993 65.826665 230.148336 66.747665 229.989014 67.664993 C 229.829671 68.582331 229.648336 69.495336 229.445007 70.404007 C 229.241007 71.312668 229.014669 72.215668 228.765991 73.113007 C 228.518005 74.011007 228.248006 74.902003 227.955994 75.785995 C 227.66333 76.669998 227.34967 77.546666 227.015015 78.416 C 226.679667 79.284663 226.323334 80.144663 225.946014 80.996002 C 225.568675 81.84667 225.170675 82.688004 224.752014 83.520004 C 224.332662 84.351334 223.893656 85.172333 223.434998 85.983002 C 222.975667 86.792999 222.496999 87.591334 221.998993 88.378006 C 221.500336 89.164007 220.983002 89.937673 220.446991 90.699005 C 219.911001 91.460337 219.356333 92.208003 218.78299 92.942001 C 218.209666 93.675339 217.618998 94.394674 217.010986 95.100006 C 216.402323 95.804667 215.776998 96.493998 215.13501 97.167999 C 214.493001 97.842 213.834666 98.499669 213.160004 99.141006 C 212.485341 99.783005 211.795339 100.407669 211.089996 101.014999 C 210.384674 101.623001 209.665009 102.213003 208.931 102.785004 C 208.19634 103.357666 207.448344 103.911667 206.687012 104.447006 C 205.92568 104.983007 205.151672 105.499669 204.36499 105.996994 C 203.578328 106.494329 202.779663 106.971995 201.968994 107.429993 C 201.158997 107.888662 200.338003 108.326996 199.506012 108.744995 C 198.674001 109.162333 197.832326 109.559336 196.980988 109.936005 C 196.129669 110.312673 195.269674 110.668004 194.401001 111.001999 C 193.532328 111.336004 192.655996 111.648671 191.772003 111.940002 C 190.887339 112.230672 189.996338 112.499669 189.098999 112.746994 C 188.20166 112.994329 187.298991 113.21933 186.390991 113.421997 C 185.48234 113.624664 184.569346 113.804998 183.652008 113.962997 C 182.73467 114.120997 181.814006 114.256332 180.890015 114.369003 C 179.966675 114.481664 179.04067 114.571665 178.112 114.639008 C 177.185994 114.705668 176.258657 114.75 175.329987 114.772003 C 174.401337 114.793335 173.473012 114.792002 172.545013 114.768005 C 171.616343 114.743998 170.689006 114.696996 169.763 114.626999 C 168.836995 114.557663 167.91333 114.465663 166.992004 114.350998 C 166.070658 114.235662 165.152659 114.097997 164.238007 113.938004 C 163.322662 113.778 162.412323 113.595998 161.506989 113.391998 C 160.601003 113.187337 159.700673 112.960337 158.806 112.710999 C 157.911326 112.462331 157.022995 112.191996 156.141006 111.899994 C 155.259669 111.60733 154.386002 111.29333 153.520004 110.957993 C 152.653997 110.622665 151.796661 110.266337 150.947998 109.889008 C 150.099335 109.512339 149.260335 109.11467 148.431 108.695999 C 147.602336 108.277328 146.784002 107.838664 145.975998 107.380005 C 145.168666 106.921336 144.372665 106.443334 143.587997 105.945999 C 142.804001 105.448003 142.032669 104.931335 141.274002 104.395996 C 140.514664 103.860667 139.769328 103.306666 139.037994 102.733994 C 138.306 102.162003 137.588669 101.572337 136.886002 100.964996 C 136.183334 100.357666 135.495667 99.733668 134.822998 99.093002 C 134.151001 98.451665 133.495 97.794662 132.854996 97.121994 C 132.215001 96.448664 131.592 95.76 130.985992 95.056 C 130.379333 94.352 129.79067 93.633667 129.220001 92.901001 C 128.648671 92.168335 128.095673 91.422333 127.561005 90.662994 C 127.026998 89.902995 126.511663 89.13033 126.014999 88.345001 C 125.518336 87.560333 125.041 86.763667 124.582993 85.955002 C 124.125666 85.146337 123.688334 84.327001 123.270996 83.496994 C 122.853668 82.666997 122.45667 81.827332 122.080002 80.977997 C 121.704005 80.128662 121.349004 79.27033 121.014999 78.403 C 120.680333 77.536331 120.367335 76.661997 120.076004 75.779999 C 119.784673 74.897329 119.51534 74.008331 119.268005 73.113007 C 119.019999 72.217672 118.794332 71.316671 118.591003 70.410004 C 118.387004 69.503337 118.205668 68.592336 118.046997 67.677002 C 117.888336 66.761668 117.752004 65.843002 117.638 64.921005 C 117.523997 63.998998 117.432663 63.074661 117.363998 62.147995 C 117.295334 61.221329 117.249334 60.293666 117.225998 59.365005 C 117.203334 58.436335 117.203003 57.507334 117.225006 56.578003 C 117.24767 55.649333 117.292999 54.721664 117.360992 53.794998 C 117.428996 52.868332 117.519333 51.944 117.632004 51.022003 C 117.745336 50.100006 117.881002 49.181005 118.039001 48.264999 C 118.197662 47.349665 118.378326 46.438665 118.580994 45.531998 C 118.783661 44.625331 119.008662 43.72433 119.255997 42.828995 C 119.503332 41.932999 119.771998 41.044001 120.061996 40.162003 C 120.352666 39.279332 120.664998 38.404332 120.998993 37.537003 C 121.332326 36.670334 121.686661 35.812002 122.061996 34.962006 C 122.438004 34.112 122.83434 33.271998 123.251007 32.442001 C 123.667674 31.611333 124.10434 30.791667 124.561005 29.983002 C 125.018331 29.174327 125.494995 28.37733 125.990997 27.59201 C 126.487 26.806 127.001999 26.033 127.535995 25.27301 C 128.069331 24.513 128.621333 23.766327 129.192001 23.03299 C 129.76267 22.299662 130.350667 21.580999 130.955994 20.876999 C 131.562002 20.172999 132.184672 19.483999 132.824005 18.809998 C 133.463338 18.136668 134.119003 17.479004 134.791 16.837006 C 135.462997 16.195669 136.149999 15.570999 136.852005 14.962997 C 137.554672 14.354996 138.271337 13.764664 139.001999 13.192001 C 139.733332 12.619339 140.478333 12.065002 141.237 11.528992 C 141.995667 10.993001 142.766668 10.47584 143.550003 9.977509 C 144.334 9.479238 145.129664 9.000468 145.936996 8.541199 C 146.744329 8.08193 147.562332 7.642731 148.391006 7.223602 C 149.219671 6.804535 150.058334 6.406001 150.906998 6.028 C 151.755 5.649999 152.612 5.293065 153.477997 4.957199 C 154.343994 4.621272 155.217331 4.306773 156.098007 4.013702 C 156.979345 3.720632 157.86734 3.449331 158.761993 3.199799 C 159.656667 2.950328 160.556671 2.722931 161.462006 2.517609 C 162.368011 2.312266 163.278341 2.129262 164.192993 1.968597 C 165.107666 1.807933 166.025665 1.669769 166.946991 1.554108 C 167.868337 1.438507 168.792002 1.34554 169.717987 1.275208 Z M 177.385986 84.401001 C 177.817993 84.345662 178.248667 84.279994 178.678009 84.203995 C 179.106679 84.127996 179.533681 84.041331 179.959015 83.944 C 180.383677 83.84667 180.805674 83.739003 181.225006 83.621002 C 181.644338 83.503001 182.060669 83.375 182.473999 83.237 C 182.887329 83.098338 183.296997 82.950007 183.703003 82.792007 C 184.109009 82.633336 184.510671 82.465001 184.90799 82.287003 C 185.306 82.109004 185.699341 81.921336 186.088013 81.723999 C 186.476664 81.526662 186.859996 81.319661 187.238007 81.102997 C 187.616669 80.887004 187.989665 80.661672 188.356995 80.427002 C 188.724325 80.192332 189.085663 79.949 189.44101 79.697006 C 189.796336 79.445002 190.145335 79.184331 190.488007 78.914993 C 190.830678 78.645665 191.166341 78.368001 191.494995 78.082001 C 191.824341 77.796 192.146342 77.502335 192.460999 77.201004 C 192.775675 76.899002 193.082672 76.589666 193.381989 76.272995 C 193.681325 75.956334 193.972992 75.63267 194.256989 75.302002 C 194.540334 74.970662 194.815338 74.63266 195.082001 74.287994 C 195.349335 73.943329 195.608002 73.592662 195.858002 73.235992 C 196.108002 72.878662 196.348999 72.51533 196.580994 72.145996 C 196.812988 71.777334 197.035655 71.403 197.248993 71.022995 C 197.463003 70.643 197.667338 70.258001 197.862 69.867996 C 198.056661 69.478002 198.241994 69.083669 198.417999 68.684998 C 198.593333 68.285665 198.758667 67.882334 198.914001 67.475006 C 199.070007 67.068339 199.215678 66.657669 199.351013 66.242996 C 199.487 65.828995 199.612661 65.411662 199.727997 64.990997 C 199.842662 64.570333 199.947327 64.147334 200.041992 63.722 C 200.136658 63.295995 200.220662 62.868327 200.294006 62.438995 C 200.36733 62.009003 200.429993 61.577672 200.481995 61.145004 C 200.534668 60.712336 200.576335 60.278336 200.606995 59.843002 C 200.638326 59.40833 200.658997 58.972997 200.669006 58.537003 C 200.678345 58.100998 200.677338 57.665329 200.665985 57.229996 C 200.654002 56.794001 200.631673 56.358668 200.598999 55.923996 C 200.565674 55.489334 200.522003 55.055669 200.467987 54.623001 C 200.413991 54.190333 200.349325 53.759333 200.273987 53.330002 C 200.198669 52.90067 200.112671 52.473338 200.015991 52.048004 C 199.920003 51.62267 199.813344 51.200002 199.696014 50.779999 C 199.579336 50.360667 199.452332 49.944 199.315002 49.529999 C 199.177002 49.115997 199.029338 48.705999 198.872009 48.300003 C 198.714661 47.893336 198.547323 47.491002 198.369995 47.093002 C 198.192668 46.694331 198.005666 46.300664 197.80899 45.912003 C 197.612335 45.522669 197.406342 45.138336 197.19101 44.759003 C 196.975677 44.38033 196.751343 44.006999 196.518005 43.639008 C 196.283997 43.271006 196.041331 42.909002 195.790009 42.552994 C 195.538666 42.196996 195.278666 41.847331 195.01001 41.503998 C 194.741333 41.160665 194.464661 40.824 194.179993 40.494003 C 193.894674 40.164668 193.601674 39.842331 193.300995 39.526993 C 193.000336 39.211665 192.692006 38.903666 192.376007 38.602997 C 192.060008 38.302999 191.736674 38.010666 191.406006 37.725998 C 191.076009 37.442001 190.739003 37.166005 190.394989 36.89801 C 190.051666 36.630005 189.70167 36.370667 189.345001 36.119995 C 188.988332 35.869334 188.625661 35.627665 188.256989 35.394989 C 187.888987 35.161662 187.51532 34.937998 187.135986 34.723999 C 186.756653 34.509338 186.372325 34.304006 185.983002 34.108002 C 185.593658 33.912669 185.199656 33.726669 184.800995 33.550003 C 184.402334 33.374008 183.999664 33.207672 183.592987 33.050995 C 183.18633 32.894338 182.776337 32.74767 182.363007 32.610992 C 181.949005 32.474335 181.532003 32.348002 181.112 32.231995 C 180.691996 32.115997 180.269328 32.010335 179.843994 31.915009 C 179.41866 31.819672 178.991333 31.735006 178.562012 31.661011 C 178.13267 31.586344 177.70167 31.522339 177.269012 31.468994 C 176.837006 31.416331 176.403666 31.374003 175.968994 31.34201 C 175.534322 31.310008 175.099325 31.288671 174.664001 31.278 C 174.228007 31.267329 173.792338 31.267329 173.356995 31.278 C 172.921 31.289332 172.486003 31.311 172.052002 31.343002 C 171.61733 31.374995 171.183665 31.417664 170.751007 31.471008 C 170.317678 31.524333 169.885671 31.588328 169.454987 31.662994 C 169.024323 31.738332 168.595998 31.823669 168.170013 31.919006 C 167.744008 32.015004 167.320333 32.121338 166.898987 32.238007 C 166.478333 32.354665 166.060669 32.481664 165.645996 32.619003 C 165.231323 32.756332 164.819987 32.903666 164.411987 33.061005 C 164.004659 33.218333 163.601329 33.385666 163.201996 33.563004 C 162.802663 33.740341 162.408 33.927338 162.018005 34.123993 C 161.628011 34.320669 161.243011 34.527003 160.863007 34.742996 C 160.483002 34.958338 160.108663 35.183004 159.73999 35.416992 C 159.370667 35.651001 159.00767 35.894002 158.651001 36.145996 C 158.29366 36.398 157.942993 36.658671 157.598999 36.928009 C 157.255005 37.196665 156.917674 37.473999 156.587006 37.76001 C 156.256337 38.046 155.933004 38.339666 155.617004 38.641006 C 155.301005 38.942998 154.992335 39.25233 154.690994 39.569 C 154.390335 39.885671 154.097336 40.209671 153.811996 40.541 C 153.527328 40.87233 153.250661 41.210327 152.981995 41.554993 C 152.713328 41.899668 152.453664 42.251002 152.203003 42.608994 C 151.95167 42.966334 151.709335 43.329671 151.475998 43.699005 C 151.242671 44.069 151.018672 44.444331 150.804001 44.824997 C 150.58933 45.205002 150.383998 45.590337 150.188004 45.981003 C 149.991999 46.371668 149.805664 46.767003 149.628998 47.167007 C 149.452332 47.567001 149.286001 47.970998 149.130005 48.378998 C 148.973338 48.786997 148.82667 49.198664 148.690002 49.613998 C 148.553335 50.029332 148.427333 50.447667 148.311996 50.869003 C 148.195999 51.290339 148.090332 51.71434 147.994995 52.141006 C 147.90033 52.567673 147.815999 52.996338 147.742004 53.427002 C 147.667999 53.857666 147.604665 54.289998 147.552002 54.723999 C 147.499339 55.158 147.457336 55.592667 147.425995 56.028 C 147.394663 56.464005 147.373998 56.90067 147.363998 57.337997 C 147.353999 57.774663 147.354665 58.211665 147.365997 58.649002 C 147.37733 59.085668 147.399663 59.521998 147.432999 59.957993 C 147.465663 60.393326 147.509328 60.827993 147.563995 61.261993 C 147.618663 61.695994 147.683665 62.127996 147.759003 62.557999 C 147.83433 62.988663 147.920329 63.416997 148.016998 63.843002 C 148.113668 64.269669 148.220668 64.693334 148.337997 65.113998 C 148.455999 65.535334 148.584 65.953334 148.722 66.367996 C 148.860001 66.782669 149.008001 67.19367 149.166 67.600998 C 149.324 68.008336 149.491999 68.411672 149.669998 68.811005 C 149.847997 69.209666 150.035665 69.603999 150.233002 69.994003 C 150.430339 70.383998 150.637339 70.768997 150.854004 71.149002 C 151.069997 71.528336 151.295329 71.902334 151.529999 72.270996 C 151.764669 72.639669 152.008336 73.002335 152.261002 73.358994 C 152.513667 73.715663 152.774668 74.065999 153.044006 74.410004 C 153.314006 74.753998 153.592005 75.090998 153.878006 75.421005 C 154.164668 75.751002 154.459 76.074 154.761002 76.389999 C 155.063004 76.705338 155.37267 77.013336 155.690002 77.313995 C 156.007334 77.614003 156.331665 77.906336 156.662994 78.190994 C 156.995005 78.475662 157.333344 78.751999 157.678009 79.020004 C 158.023346 79.287338 158.37501 79.546336 158.733002 79.796997 C 159.090993 80.047668 159.454997 80.289337 159.825012 80.522003 C 160.195007 80.754669 160.570333 80.978002 160.950989 81.192001 C 161.331665 81.406672 161.717336 81.611338 162.108002 81.806 C 162.498667 82.001333 162.894002 82.187002 163.294006 82.363007 C 163.69401 82.539001 164.098338 82.704997 164.506989 82.860992 C 164.914988 83.016327 165.32666 83.161997 165.742004 83.298004 C 166.156677 83.433339 166.575012 83.55867 166.997009 83.673996 C 167.418335 83.789332 167.842336 83.894002 168.269012 83.988007 C 168.695669 84.082001 169.124329 84.165665 169.554993 84.238998 C 169.985657 84.312332 170.417664 84.374664 170.851013 84.425995 C 171.285014 84.477997 171.719676 84.519333 172.154999 84.550003 C 172.590993 84.580663 173.027323 84.600327 173.463989 84.608994 C 173.900655 84.618332 174.337321 84.616669 174.773987 84.604004 C 175.210653 84.592 175.646993 84.569 176.083008 84.535004 C 176.518331 84.500997 176.952657 84.456329 177.385986 84.401001 Z"></path><path id="path2" fill="#573cf0" stroke="none" d="M 435.560974 62.774994 C 438.73999 56.880997 434.057007 12.825989 437.564026 7.159302 C 438.146973 6.217697 439.288025 5.874695 440.304993 5.626297 C 443.005981 4.966202 462.786987 4.7789 464.812012 6.081207 C 465.572998 6.57019 465.763 7.25119 465.955994 8.102203 C 467.039001 12.867996 466.502991 18.446991 466.492004 23.345001 L 466.447021 45.791 L 466.463989 82.643997 C 466.492981 89.779999 466.75 96.998001 466.510986 104.126999 C 466.463989 105.533997 466.507019 107.649002 465.702026 108.843002 C 464.986023 109.906006 463.780029 110.061996 462.619019 110.283005 C 462.507019 110.343994 462.481995 110.365997 462.338989 110.399002 C 460.065002 110.923996 446.202026 110.725006 443.494995 110.434006 C 442.190979 110.292999 440.848999 110.041 439.676025 109.429993 C 438.041016 108.578995 436.562988 106.955994 435.317017 105.619995 C 430.674011 100.638 426.484985 95.082993 422.122986 89.845001 L 400.686005 64.240005 C 397.809998 60.744003 394.640015 55.266006 390.686005 53.108994 C 390.770996 53.272995 390.85199 53.436005 390.928009 53.604004 C 390.963013 53.679993 390.994995 53.755997 391.029999 53.832001 C 391.166992 54.128006 391.308014 54.423004 391.373993 54.746002 C 392.281006 59.162003 391.592987 66.914993 391.585999 71.660004 C 391.570007 82.320999 391.890991 93.117004 391.488007 103.759003 C 391.446991 104.835007 391.446991 107.725998 390.848999 108.602005 C 390.184998 109.576004 388.688995 109.927994 387.601013 110.138 C 384.17099 110.798996 364.955994 111.087006 362.51001 109.423004 C 361.506012 107.300003 361.467987 104.272003 361.38501 101.957001 C 360.863007 87.419006 361.458008 72.718994 361.468994 58.160004 L 361.479004 29.507004 C 361.453003 24.279999 360.533997 12.843994 361.897003 8.346802 C 362.351013 6.850601 363.080994 6.262909 364.419006 5.531189 C 370.235992 5.110809 376.393005 5.011597 382.21701 5.343689 C 387.333008 5.635498 389.295013 6.446411 392.735992 10.309998 C 401.192993 19.806 409.110992 29.910004 417.296997 39.651001 C 423.067017 46.518005 429.530029 53.238007 434.734009 60.520996 C 435.27002 61.272995 435.61499 61.824997 435.560974 62.774994 Z"></path><path id="path3" fill="#3f4153" stroke="none" d="M 5.012001 5.475403 C 12.237999 5.2164 19.535004 5.428299 26.772003 5.429108 L 68.050995 5.433289 L 88.959 5.400604 C 93.582001 5.357391 98.462997 4.989197 103.048004 5.549591 C 103.514999 5.606689 104.069 5.6371 104.416 5.990509 C 107.412994 9.039703 106.692001 22.015991 106.479996 26.199005 C 106.365997 28.442993 106.065994 31.958008 104.720993 33.839996 C 101.389999 38.503006 87.824005 48.042007 82.776001 52.160004 C 71.376668 61.40333 60.217336 70.927663 49.298004 80.733002 C 57.662994 79.615005 66.542999 80.509995 74.973999 80.511993 C 82.389008 80.514999 96.994003 79.104996 103.632996 81.138 C 104.509995 81.406006 105.373993 81.804001 105.804993 82.647003 C 106.923004 84.834 106.975998 105.313995 106.044006 107.813004 C 105.520996 109.218002 104.755005 109.839005 103.429993 110.470001 C 94.667999 110.628006 5.247002 111.052002 3.079002 109.886002 C 0.410004 106.363007 1.207001 93.294006 1.579002 88.638 C 1.723 86.832993 2.017998 83.617004 3.137001 82.145004 C 7.245003 76.740997 16.851997 70.431 22.334999 65.910004 L 58.561996 35.445007 C 52.037003 35.798004 6.989998 36.21701 2.893997 34.470001 C 2.532997 34.169998 2.407997 33.972 2.272003 33.52301 C 1.045998 29.494995 0.428497 10.597992 2.445999 7.104309 C 3.063004 6.034103 3.893997 5.787201 5.012001 5.475403 Z"></path></svg> 