<?xml version="1.0" encoding="UTF-8"?> <svg xmlns="http://www.w3.org/2000/svg" width="41" height="44" viewBox="0 0 41 44" fill="none"><path fill-rule="evenodd" clip-rule="evenodd" d="M7.22044 10.0271V36.5628L3.25019 38.3783C1.60451 39.1305 0.554688 40.7382 0.554688 42.5045C0.554688 43.3307 1.24362 44 2.09406 44H12.2998C13.1795 44 13.8908 43.3081 13.8908 42.4544C13.8908 41.61 13.8908 40.1992 13.8908 40.1992C13.8908 40.021 13.8383 39.8468 13.7388 39.697L11.9868 37.0526V10.1476C11.9868 10.1259 11.9859 10.1051 11.9846 10.0851C11.9859 10.0656 11.9868 10.0466 11.9868 10.0271C11.9868 7.11142 14.3228 4.72853 17.2218 4.72853C20.1208 4.72853 22.4568 7.11142 22.4568 10.0271V22.9884C21.9312 22.9893 21.505 23.4042 21.505 23.9157V25.9099C20.4247 26.1288 19.5998 27.076 19.5998 28.2258V36.9085C18.4646 37.565 17.6963 38.7897 17.6963 40.1992C17.6963 41.8848 18.7949 43.3068 20.3088 43.8076C20.5259 43.9331 20.776 44 21.0306 44H39.1239C39.5085 44 39.8762 43.8493 40.1473 43.5767C40.4078 43.3156 40.5547 42.9628 40.5547 42.5936V35.8886C40.5547 32.5151 38.3916 30.1827 35.7335 28.6371C32.965 27.0277 29.6833 26.2911 28.1754 26.0185V23.9157C28.1754 23.4042 27.7488 22.9893 27.2232 22.9884V10.0271C27.2232 4.48431 22.7323 0 17.2218 0C11.7113 0 7.22044 4.48431 7.22044 10.0271ZM38.5691 34.9614C38.2073 32.8059 36.5954 31.3002 34.7521 30.2288C31.3522 28.2511 27.0995 27.7249 27.0995 27.7249C26.6232 27.6656 26.2669 27.2715 26.2669 26.8048V24.843H23.4144V26.7893C23.4144 27.3012 22.9869 27.7165 22.4591 27.7165H21.9836C21.7126 27.7165 21.5096 27.9532 21.5096 28.2258V36.3979C23.3081 36.3992 24.8288 37.6505 25.2203 39.3388L25.2531 39.4913L25.2823 39.6699L25.3042 39.8628L25.3161 40.064L25.3184 40.1992L25.3161 40.333L25.3092 40.4656L25.296 40.611L25.2869 40.6925L25.2809 40.7399C25.2075 41.2479 25.0346 41.7231 24.7809 42.145H38.6462V39.6899H35.7919C35.265 39.6899 34.8366 39.2741 34.8366 38.7622C34.8366 38.2502 35.265 37.8349 35.7919 37.8349H38.6462V36.8163H35.7919C35.265 36.8163 34.8366 36.4006 34.8366 35.8886C34.8366 35.3767 35.265 34.9614 35.7919 34.9614H38.5691ZM11.9823 42.145H2.48871C2.61281 41.2426 3.2 40.4514 4.06322 40.0565L8.00747 38.2529H10.5118L11.9823 40.4718V42.145ZM21.4955 38.2529L21.4152 38.2551C21.2295 38.2644 21.0506 38.3003 20.8836 38.3602C20.8777 38.3624 20.8709 38.3646 20.8649 38.3668C20.1267 38.6376 19.6048 39.361 19.6048 40.1992C19.6048 41.0812 20.1828 41.8365 20.9826 42.0706C20.9877 42.0719 20.9931 42.0732 20.9982 42.0745C21.1241 42.1104 21.255 42.1331 21.3905 42.1415L21.4968 42.145H21.5073C22.5667 42.145 23.4099 41.2647 23.4099 40.1992C23.4099 39.1336 22.5667 38.2529 21.5073 38.2529H21.4955ZM9.12983 36.3979V15.2649H10.0775V36.3979H9.12983ZM21.9836 30.86C21.9836 31.2567 22.3039 31.5785 22.6972 31.5785C23.0923 31.5785 23.4122 31.2567 23.4122 30.86C23.4122 30.4638 23.0923 30.1415 22.6972 30.1415C22.3039 30.1415 21.9836 30.4638 21.9836 30.86ZM21.9836 28.9443C21.9836 29.341 22.3039 29.6628 22.6972 29.6628C23.0923 29.6628 23.4122 29.341 23.4122 28.9443C23.4122 28.5481 23.0923 28.2258 22.6972 28.2258C22.3039 28.2258 21.9836 28.5481 21.9836 28.9443ZM10.0775 13.4099V10.1476C10.0775 10.1259 10.0784 10.1051 10.0797 10.0851C10.0784 10.0656 10.0775 10.0466 10.0775 10.0271L10.0797 9.84225C10.1778 5.97139 13.3501 2.87355 17.2218 2.87355C21.1556 2.87355 24.3666 6.07023 24.3666 10.0271V22.9884H25.3138V10.0271C25.3138 5.52549 21.6976 1.85498 17.2218 1.85498C12.746 1.85498 9.12983 5.52549 9.12983 10.0271V13.4099H10.0775Z" fill="#666666" fill-opacity="0.15"></path></svg> 