<?xml version="1.0" encoding="UTF-8"?> <svg xmlns="http://www.w3.org/2000/svg" width="30" height="30" viewBox="0 0 30 30" fill="none"><path d="M23.4834 6.51662C18.7949 1.82815 11.2058 1.82744 6.51667 6.51662C1.82815 11.205 1.8274 18.7942 6.51667 23.4834C11.2052 28.1718 18.7942 28.1725 23.4834 23.4834C28.1718 18.7949 28.1726 11.2057 23.4834 6.51662ZM15 25.0264C9.47139 25.0264 4.97353 20.5285 4.97353 15C4.97353 9.47138 9.47139 4.97357 15 4.97357C20.5286 4.97357 25.0264 9.47143 25.0264 15C25.0264 20.5286 20.5286 25.0264 15 25.0264Z" fill="#FE6A08"></path><path d="M16.5011 9.00928H12.9973C12.4531 9.00928 12.0119 9.45047 12.0119 9.99471V14.0147H10.9952C10.451 14.0147 10.0098 14.4559 10.0098 15.0001C10.0098 15.5443 10.451 15.9855 10.9952 15.9855H12.0119V17.0179H10.9952C10.451 17.0179 10.0098 17.4591 10.0098 18.0033C10.0098 18.5476 10.451 18.9888 10.9952 18.9888H12.0119V20.0055C12.0119 20.5498 12.4531 20.9909 12.9973 20.9909C13.5416 20.9909 13.9828 20.5498 13.9828 20.0055V18.9888H16.0006C16.5448 18.9888 16.986 18.5476 16.986 18.0033C16.986 17.4591 16.5448 17.0179 16.0006 17.0179H13.9828V15.9855H16.5011C18.4244 15.9855 19.9892 14.4208 19.9892 12.4974C19.9892 10.5741 18.4245 9.00928 16.5011 9.00928ZM16.5011 14.0146H13.9828V10.9801H16.5011C17.3377 10.9801 18.0184 11.6607 18.0184 12.4973C18.0184 13.334 17.3377 14.0146 16.5011 14.0146Z" fill="#FE6A08"></path></svg> 