<?xml version="1.0" encoding="UTF-8"?> <svg xmlns="http://www.w3.org/2000/svg" width="330" height="165" viewBox="0 0 330 165" fill="none"><rect width="330" height="165" fill="white"></rect><g clip-path="url(#clip0_149_170)"><path d="M248.138 97.5146H255.997L247.887 70.487L236.717 70.4865L228.607 97.5142H236.469L237.903 92.5111H246.697L248.138 97.5142M239.604 86.5012L242.28 77.1633H242.325L245 86.5012H239.604ZM113.24 97.9993C121.312 97.9993 125.213 96.5636 125.766 89.2095C125.898 87.4595 125.923 85.663 125.923 83.9976C125.925 82.3379 125.898 80.5395 125.766 78.7898C125.213 71.4334 121.312 70 113.24 70C105.169 70 101.269 71.4334 100.719 78.7898C100.585 80.5395 100.557 82.3379 100.557 83.9976C100.56 85.663 100.585 87.4595 100.719 89.2095C101.269 96.5636 105.169 97.9993 113.24 97.9993ZM108.165 83.9976C108.165 82.5134 108.201 81.6362 108.233 80.9852C108.438 76.8134 110.069 76.3271 113.24 76.3271C116.414 76.3271 118.045 76.8134 118.247 80.9852C118.279 81.6359 118.318 82.5132 118.318 83.9976C118.318 85.4866 118.279 86.3654 118.247 87.0148C118.045 91.1873 116.414 91.6745 113.24 91.6745C110.069 91.6745 108.438 91.1873 108.233 87.0148C108.201 86.3654 108.165 85.4866 108.165 83.9976ZM74.002 70.4989V77.2365H82.0034V97.5261H90.0078V77.2365H98.0094V70.4989H74.002ZM196.815 97.5146V70.4865H189.219V97.5146H196.815ZM166.251 80.3546V70.4865H158.698V97.5146H166.251V87.0922H175.028V97.5146H182.578V70.4865H175.028V80.3546H166.251ZM221.798 83.3882C225.163 82.5196 226.15 80.4902 226.15 77.5568C226.15 71.6167 222.449 70.4863 217.187 70.4863H203.549V97.5139H217.863C224.453 97.5139 226.669 94.6472 226.669 90.2379C226.669 87.1637 225.973 84.4513 221.798 83.3875M211.099 86.4125H216.336C218.452 86.4125 218.893 87.3484 218.893 88.8704C218.893 90.3939 218.065 91.3322 216.336 91.3322H211.099V86.4125ZM211.099 76.6671H216.336C217.703 76.6671 218.55 77.322 218.55 78.8971C218.55 80.2473 217.712 81.0784 216.336 81.0784H211.099V76.6671ZM130.325 88.6448H137.525C137.532 89.956 137.698 90.8324 138.328 91.3164C139.045 91.8617 139.686 92.0418 141.813 92.0418C143.861 92.0418 146.104 92.0418 146.104 89.4955C146.104 87.4873 144.851 87.0291 142.537 86.9046C136.8 86.5977 134.725 86.4339 132.589 84.8314C131.133 83.7387 130.377 81.6114 130.377 78.7345C130.377 73.8424 132.068 72.1262 134.506 70.9287C137.022 69.6926 146.898 69.6926 149.555 70.9287C152.897 72.4834 152.995 75.8491 152.995 78.9711H145.813C145.799 77.3794 145.444 76.9299 145.155 76.6338C144.409 75.9658 143.347 75.8247 141.813 75.8247C139.957 75.8247 137.81 75.9093 137.81 78.1855C137.81 79.9221 138.553 80.648 140.505 80.7757C143.188 80.9489 148.472 81.1196 150.356 82.2419C152.997 83.8193 153.682 85.9538 153.682 89.4362C153.682 94.4687 151.898 95.9457 149.416 97.0529C146.552 98.3301 136.986 98.3301 133.876 96.9541C130.396 95.422 130.325 92.3682 130.325 88.6448Z" fill="#E61E1E"></path></g><defs><clipPath id="clip0_149_170"><rect width="182" height="28" fill="white" transform="translate(74 70)"></rect></clipPath></defs></svg> 