<?xml version="1.0" encoding="UTF-8"?> <svg xmlns="http://www.w3.org/2000/svg" width="30" height="30" viewBox="0 0 30 30" fill="none"><g clip-path="url(#clip0_6_372)"><path fill-rule="evenodd" clip-rule="evenodd" d="M15 30C23.2843 30 30 23.2843 30 15C30 6.71573 23.2843 0 15 0C6.71573 0 0 6.71573 0 15C0 23.2843 6.71573 30 15 30ZM23 15C23 10.5816 19.4184 7 15 7C10.5816 7 7.00001 10.5816 7.00001 15C6.99765 16.4144 7.37209 17.8039 8.08481 19.0256L7.00321 23L10.976 21.916C12.1973 22.6281 13.5862 23.0023 15 23C19.4184 23 23 19.4184 23 15ZM12.1136 11.2464L12.2736 11.24L12.2728 11.2392C12.3267 11.2387 12.3806 11.2397 12.4344 11.2424C12.4776 11.2456 12.5208 11.2504 12.564 11.2552C12.6912 11.2704 12.8312 11.3472 12.8784 11.4544C13.1168 11.9952 13.3488 12.54 13.5728 13.0872C13.6224 13.208 13.5928 13.364 13.4984 13.516C13.4504 13.5936 13.376 13.7024 13.288 13.8144C13.1976 13.9296 13.0032 14.1424 13.0032 14.1424C13.0032 14.1424 12.924 14.2368 12.9544 14.3544C12.9747 14.4122 13.0021 14.4673 13.036 14.5184L13.0832 14.5944C13.3102 14.9664 13.5845 15.3074 13.8992 15.6088C13.9251 15.6338 13.9508 15.659 13.9765 15.6843C14.0462 15.7527 14.116 15.8213 14.1896 15.8856C14.5654 16.2169 14.9905 16.4876 15.4496 16.688C15.4777 16.6999 15.5001 16.7096 15.5237 16.7199C15.5571 16.7344 15.593 16.75 15.6512 16.7744C15.7008 16.7956 15.7519 16.8132 15.804 16.8272C15.8579 16.8411 15.9146 16.8386 15.967 16.82C16.0195 16.8015 16.0652 16.7678 16.0984 16.7232C16.6768 16.0224 16.7304 15.9768 16.7344 15.9784C16.7746 15.9409 16.8224 15.9124 16.8746 15.8949C16.9268 15.8773 16.9821 15.8712 17.0368 15.8768C17.0853 15.879 17.1331 15.8901 17.1776 15.9096C17.6032 16.1032 18.2992 16.4064 18.2992 16.4064L18.7648 16.6152C18.8424 16.6528 18.9136 16.7416 18.9168 16.8272C18.9169 16.8302 18.9171 16.8333 18.9172 16.8365C18.9198 16.8907 18.9237 16.9761 18.9056 17.1256C18.88 17.3328 18.8176 17.5816 18.7552 17.712C18.7112 17.804 18.6536 17.8848 18.5872 17.9536C18.4976 18.0472 18.4312 18.104 18.3232 18.184C18.2576 18.2336 18.2232 18.256 18.2232 18.256C18.1238 18.3193 18.0216 18.378 17.9168 18.432C17.7109 18.5417 17.4834 18.6048 17.2504 18.6168C17.2245 18.618 17.1987 18.6194 17.1728 18.6208C17.0501 18.6273 16.9279 18.6338 16.8056 18.6272L16.3512 18.5576C15.2138 18.2584 14.1619 17.698 13.2792 16.9208C13.1235 16.7837 12.9773 16.6377 12.8304 16.491C12.8067 16.4673 12.783 16.4437 12.7592 16.42C12.0488 15.712 11.5104 14.948 11.1832 14.2264C11.0232 13.8696 10.9208 13.488 10.9192 13.096C10.9168 12.6106 11.0761 12.1383 11.372 11.7536C11.3809 11.7421 11.3896 11.7305 11.3985 11.7188C11.4479 11.6535 11.4994 11.5855 11.5808 11.5088C11.65 11.437 11.7292 11.3755 11.816 11.3264C11.9088 11.2799 12.01 11.2527 12.1136 11.2464ZM12.2728 11.2392C12.2191 11.2397 12.1655 11.2419 12.112 11.2456L12.2728 11.2392Z" fill="#25D366"></path></g><defs><clipPath id="clip0_6_372"><rect width="30" height="30" fill="white"></rect></clipPath></defs></svg> 