<?xml version="1.0" encoding="UTF-8"?> <svg xmlns="http://www.w3.org/2000/svg" width="330" height="165" viewBox="0 0 330 165" fill="none"><rect width="330" height="165" fill="white"></rect><g clip-path="url(#clip0_149_165)"><path d="M245.899 68.8567C248.119 81.5532 213.478 98.1805 168.517 105.994C123.562 113.807 85.3174 109.842 83.1006 97.1406C80.8855 84.4423 115.536 67.8204 160.491 60.0089C205.449 52.1919 243.686 56.1567 245.899 68.8567Z" fill="#034EA2"></path><path d="M203.587 87.7048L203.356 74.5027H207.529V91.1425H201.53L197.366 77.4865H197.277L197.508 91.1425H193.362V74.5027H199.621L203.494 87.7048H203.587Z" fill="white"></path><path d="M127.745 76.0607L125.437 91.3176H120.887L124.012 74.5027H131.507L134.618 91.3176H130.086L127.84 76.0607H127.745Z" fill="white"></path><path d="M145.216 91.3176L142.397 76.2001H142.306L142.2 91.3176H137.979L138.352 74.5027H145.228L147.309 87.3564H147.399L149.481 74.5027H156.354L156.719 91.3176H152.507L152.396 76.2001H152.309L149.492 91.3176H145.216Z" fill="white"></path><path d="M113.79 86.5739C113.955 86.9812 113.905 87.5047 113.828 87.821C113.686 88.3802 113.307 88.9502 112.186 88.9502C111.129 88.9502 110.488 88.3463 110.488 87.4226V85.7949H105.968L105.965 87.0974C105.965 90.8459 108.923 91.9769 112.093 91.9769C115.14 91.9769 117.651 90.9371 118.05 88.1355C118.254 86.6829 118.102 85.7323 118.032 85.3732C117.321 81.8533 110.925 80.8027 110.449 78.8338C110.368 78.4961 110.391 78.1387 110.431 77.9475C110.547 77.4115 110.916 76.8201 111.971 76.8201C112.956 76.8201 113.538 77.4276 113.538 78.346C113.538 78.6551 113.538 79.3841 113.538 79.3841H117.741V78.203C117.741 74.5403 114.446 73.9685 112.059 73.9685C109.061 73.9685 106.611 74.9566 106.164 77.6938C106.042 78.4496 106.024 79.1232 106.201 79.9665C106.937 83.4024 112.924 84.3976 113.79 86.5739Z" fill="white"></path><path d="M168.589 86.5435C168.756 86.9473 168.702 87.4565 168.627 87.7727C168.489 88.3302 168.113 88.8912 166.999 88.8912C165.957 88.8912 165.321 88.2873 165.321 87.385L165.317 85.7716H160.844L160.839 87.0563C160.839 90.7673 163.77 91.8876 166.908 91.8876C169.923 91.8876 172.41 90.862 172.803 88.0854C173.007 86.6435 172.862 85.7055 172.788 85.3535C172.081 81.8658 165.749 80.8259 165.278 78.8766C165.197 78.5407 165.221 78.187 165.262 78.0065C165.382 77.4669 165.744 76.8898 166.788 76.8898C167.764 76.8898 168.333 77.483 168.333 78.3942C168.333 78.6997 168.333 79.4216 168.333 79.4216H172.504V78.2531C172.504 74.6296 169.235 74.0614 166.872 74.0614C163.908 74.0614 161.478 75.037 161.039 77.7546C160.918 78.4996 160.905 79.1607 161.079 80.0005C161.804 83.4006 167.731 84.3887 168.589 86.5435Z" fill="white"></path><path d="M182.745 88.8019C183.914 88.8019 184.279 87.9943 184.36 87.5816C184.394 87.3993 184.403 87.1564 184.399 86.9384V74.4956H188.661V86.5578C188.67 86.8669 188.64 87.503 188.625 87.662C188.326 90.8013 185.839 91.8197 182.743 91.8197C179.643 91.8197 177.154 90.8013 176.859 87.662C176.844 87.503 176.814 86.8669 176.823 86.5578V74.4956H181.081V86.9384C181.081 87.1564 181.088 87.4011 181.121 87.5816C181.212 87.9943 181.566 88.8019 182.745 88.8019Z" fill="white"></path><path d="M217.9 88.625C219.121 88.625 219.547 87.8549 219.626 87.4065C219.656 87.2135 219.665 86.9794 219.664 86.7668V84.3261H217.934V81.8712H223.909V86.3845C223.906 86.6989 223.899 86.9312 223.848 87.4922C223.567 90.5511 220.908 91.6428 217.921 91.6428C214.929 91.6428 212.273 90.5511 211.989 87.4922C211.94 86.9312 211.933 86.6989 211.928 86.3845L211.931 79.3037C211.931 79.0053 211.969 78.4764 212.001 78.1959C212.375 75.053 214.929 74.0417 217.921 74.0417C220.91 74.0417 223.526 75.0477 223.836 78.1959C223.891 78.7319 223.874 79.3037 223.874 79.3037V79.8647H219.624V78.9231C219.628 78.9249 219.619 78.5229 219.569 78.2834C219.497 77.9118 219.173 77.0577 217.889 77.0577C216.661 77.0577 216.301 77.8653 216.211 78.2834C216.159 78.505 216.139 78.8052 216.139 79.0767V86.7668C216.136 86.9794 216.148 87.2135 216.182 87.4065C216.256 87.8567 216.68 88.625 217.9 88.625Z" fill="white"></path></g><defs><clipPath id="clip0_149_165"><rect width="163" height="54" fill="white" transform="translate(83 56)"></rect></clipPath></defs></svg> 