<?xml version="1.0" encoding="UTF-8"?> <svg xmlns="http://www.w3.org/2000/svg" xmlns:xlink="http://www.w3.org/1999/xlink" xmlns:svgjs="http://svgjs.dev/svgjs" version="1.1" width="180" height="180"><svg xmlns="http://www.w3.org/2000/svg" width="180" height="180" viewBox="0 0 180 180" fill="none"><g clip-path="url(#clip0_51_20)"><path fill-rule="evenodd" clip-rule="evenodd" d="M180 90C180 40.2944 139.706 0 90 0C40.2944 0 0 40.2944 0 90C0 139.706 40.2944 180 90 180C139.706 180 180 139.706 180 90Z" fill="#EC671F"></path><mask id="SvgjsMask1024" style="mask-type:alpha" maskUnits="userSpaceOnUse" x="0" y="0" width="180" height="180"><path fill-rule="evenodd" clip-rule="evenodd" d="M180 90C180 40.2944 139.706 0 90 0C40.2944 0 0 40.2944 0 90C0 139.706 40.2944 180 90 180C139.706 180 180 139.706 180 90Z" fill="#EC671F"></path></mask><g mask="url(#mask0_51_20)"><path d="M143.773 121.607C143.28 121.684 142.796 121.833 142.304 121.833C127.229 121.853 112.154 121.86 97.0786 121.872C96.3017 121.872 95.6764 121.894 95.1552 120.998C89.7639 111.545 84.3155 102.127 78.8484 92.7169C78.422 91.9844 78.4694 91.4339 78.8769 90.7271C84.2019 81.5039 89.5365 72.2798 94.7858 63.013C95.4396 61.8675 96.1785 61.5851 97.3818 61.587C112.372 61.6041 127.352 61.5738 142.342 61.5851C142.825 61.5851 143.308 61.8789 143.792 62.0361C143.81 61.8078 143.829 61.5785 143.848 61.3492C143.773 61.2023 143.706 61.0488 143.621 60.9067C138.665 52.5126 132.099 45.6583 123.856 40.5066C93.9235 21.7886 55.1414 32.1464 38.3798 63.3087C37.9156 64.1747 37.4039 64.4343 36.4753 64.4315C28.8478 64.404 21.2108 64.4258 13.5832 64.4296C-34.8067 64.4599 -210.837 64.495 -301.799 64.5187C-296.663 72.7915 -293.641 82.5149 -293.641 92.9481C-293.641 103.513 -296.739 113.357 -301.998 121.7C-213.604 121.661 -42.2637 121.634 2.86673 121.598C14.7012 121.59 26.5358 121.533 38.3609 121.555C38.7966 121.557 39.4032 122.039 39.6495 122.458C44.3965 130.467 50.6787 137.002 58.344 142.236C78.2799 155.841 106.042 155.627 125.798 141.659C127.873 140.189 129.872 138.596 131.91 137.058C133.52 135.436 135.141 133.814 136.751 132.192C137.642 131.04 138.58 129.915 139.423 128.728C140.977 126.549 142.474 124.335 144 122.134C143.924 121.958 143.848 121.781 143.773 121.607Z" fill="#FEFEFE"></path></g></g><defs><clipPath id="SvgjsClipPath1023"><rect width="180" height="180" fill="white"></rect></clipPath></defs></svg><style>@media (prefers-color-scheme: light) { :root { filter: none; } } @media (prefers-color-scheme: dark) { :root { filter: none; } } </style></svg> 