<?xml version="1.0" encoding="UTF-8"?> <svg xmlns="http://www.w3.org/2000/svg" width="60" height="34" viewBox="0 0 60 34" fill="none"><g clip-path="url(#clip0_34_74)"><path d="M53.3333 0H6.66667C2.98477 0 0 3.04446 0 6.8V27.2C0 30.9555 2.98477 34 6.66667 34H53.3333C57.0152 34 60 30.9555 60 27.2V6.8C60 3.04446 57.0152 0 53.3333 0Z" fill="white" fill-opacity="0.9"></path><path d="M47.7614 15.1482V19.7251H46.0651V16.5081H44.4346V19.7251H42.7383V15.1482H47.7614Z" fill="#201A3E"></path><path d="M41.9069 17.5805C41.9311 18.9107 40.8002 19.8557 39.194 19.8557C37.6746 19.8557 36.3945 18.9831 36.3945 16.8593C36.3945 15.0549 37.6087 13.5666 39.4057 13.5402C40.1931 13.5402 41.9034 13.5337 41.9034 13.5337L41.109 14.8903H39.5791C38.8055 14.8903 38.1117 15.3842 38.0146 16.1448C38.4274 15.7793 39.0692 15.5587 39.7318 15.5587C40.9702 15.562 41.8825 16.5597 41.9034 17.5805M40.2105 17.6858C40.2105 17.1557 39.7838 16.7145 39.201 16.7145C38.6182 16.7145 38.1742 17.1623 38.1846 17.6957C38.1846 18.2554 38.7119 18.6407 39.1698 18.6407C39.7526 18.6407 40.2105 18.2225 40.2105 17.6858Z" fill="#201A3E"></path><path d="M35.0885 18.1606C35.0885 18.1606 34.5196 18.5228 33.76 18.5096C33.2846 18.5096 32.6464 18.1177 32.6464 17.423C32.6568 16.7151 33.2881 16.3364 33.7634 16.3364C34.5023 16.3134 35.0885 16.6854 35.0885 16.6854L35.72 15.6054C35.158 15.2202 34.6202 15.0193 33.857 15.0127C32.2023 15.0127 31.0645 16.2902 31.0645 17.423C31.0645 18.7533 32.3307 19.8497 33.8466 19.8563C34.5162 19.8662 35.1995 19.6522 35.7269 19.257L35.0885 18.1573V18.1606Z" fill="#201A3E"></path><path d="M17.7126 17.4268L15.2635 18.7702L12.9844 22.514L22.2675 17.4268H17.7126Z" fill="#884591"></path><path d="M24.7185 13.5867L22.2659 14.9334L19.9902 18.6739L29.2733 13.5867H24.7185Z" fill="#DA1945"></path><path d="M22.2659 12.2438L19.9902 8.5V16.1753V18.6746V26.3499L22.2659 22.6061V12.2438Z" fill="#F9B32B"></path><path d="M19.9902 8.50342L22.2659 12.244L24.7185 13.5874H29.2733L19.9902 8.50342Z" fill="#F07F1B"></path><path d="M19.9902 16.1748V26.3494L22.2659 22.6055V19.9186L19.9902 16.1748Z" fill="#72B22C"></path><path d="M24.7185 21.2625L22.2659 22.606L19.9902 26.3498L29.2733 21.2625H24.7185Z" fill="#00743E"></path><path d="M12.9844 12.3384V22.513L15.26 18.7691V16.0822L12.9844 12.3384Z" fill="#5F5B95"></path><path d="M19.9918 16.1744V16.1777L12.9844 12.3384L15.2635 16.0822L24.7201 21.2617H29.275L19.9918 16.1744Z" fill="#1090CD"></path></g><defs><clipPath id="clip0_34_74"><rect width="60" height="34" fill="white"></rect></clipPath></defs></svg> 