<?xml version="1.0" encoding="UTF-8"?> <svg xmlns="http://www.w3.org/2000/svg" width="24" height="24" viewBox="0 0 24 24" fill="none"><g clip-path="url(#clip0_31_402)"><mask id="mask0_31_402" style="mask-type:luminance" maskUnits="userSpaceOnUse" x="0" y="0" width="24" height="24"><path d="M0 0H24V24H0V0Z" fill="white"></path></mask><g mask="url(#mask0_31_402)"><path d="M15 24C14.7348 24 14.4805 23.8946 14.2929 23.7071C14.1054 23.5195 14 23.2652 14 23V21.602C14 20.097 14.805 18.749 16.1 18.086C17.5775 17.3336 18.8175 16.1865 19.6825 14.772C20.5475 13.3575 21.0035 11.731 21 10.073C21.0061 8.38974 20.5373 6.73893 19.6476 5.31007C18.7579 3.8812 17.4832 2.73219 15.97 1.99497L16 7.99997C16 10.206 14.206 12 12 12C9.79402 12 8.00002 10.206 8.00002 7.99997V2.01197C4.92802 3.52297 3.00002 6.61797 3.00002 10.073C2.99653 11.731 3.45259 13.3575 4.31756 14.772C5.18253 16.1865 6.42257 17.3336 7.90002 18.086C9.19502 18.749 10 20.097 10 21.602V23C10 23.2652 9.89467 23.5195 9.70713 23.7071C9.51959 23.8946 9.26524 24 9.00002 24C8.73481 24 8.48045 23.8946 8.29292 23.7071C8.10538 23.5195 8.00002 23.2652 8.00002 23V21.602C8.00002 20.863 7.60302 20.181 6.98802 19.866C5.18255 18.9465 3.6672 17.5447 2.61017 15.8162C1.55315 14.0877 0.995807 12.1001 1.00002 10.074C1.00002 5.85197 3.35502 2.06797 7.14602 0.199967C7.75602 -0.100033 8.46702 -0.0630333 9.04702 0.300967C9.64402 0.671967 10 1.31197 10 2.01197V7.99997C10 9.10297 10.897 9.99997 12 9.99997C13.103 9.99997 14 9.10297 14 7.99997V2.01197C14 1.31197 14.356 0.671967 14.953 0.300967C15.2348 0.123357 15.5573 0.0208306 15.8899 0.00315108C16.2225 -0.0145285 16.554 0.0532276 16.853 0.199967C18.7021 1.10137 20.2595 2.50582 21.3466 4.25215C22.4337 5.99849 23.0064 8.01593 22.999 10.073C22.999 14.219 20.704 17.971 17.011 19.865C16.397 20.18 15.999 20.862 15.999 21.601V22.999C15.999 23.2642 15.8937 23.5185 15.7061 23.7061C15.5186 23.8936 15.2642 23.999 14.999 23.999L15 24Z" fill="#FE6A08"></path></g></g><defs><clipPath id="clip0_31_402"><rect width="24" height="24" fill="white"></rect></clipPath></defs></svg> 