<?xml version="1.0" encoding="UTF-8"?> <svg xmlns="http://www.w3.org/2000/svg" width="200" height="26" viewBox="0 0 200 26" fill="none"><path d="M25.4778 12.6145C26.4045 11.843 26.8686 10.7476 26.8686 9.32728C26.8686 7.88326 26.4045 6.77529 25.4778 6.00381C24.55 5.23325 23.1958 4.84728 21.4148 4.84728H16.5836V13.771H21.4148C23.1958 13.771 24.55 13.3853 25.4778 12.6145ZM27.6554 1.13853C29.3265 1.89747 30.6135 2.97443 31.517 4.36966C32.4193 5.76557 32.8712 7.41796 32.8712 9.32728C32.8712 11.2133 32.4193 12.8593 31.517 14.2669C30.6135 15.6747 29.3265 16.7521 27.6554 17.4985C25.9837 18.2453 24.0137 18.6183 21.7441 18.6183H16.5836V25.7059H10.6543V0H21.7441C24.0137 0 25.9837 0.379813 27.6554 1.13853Z" fill="#22201E"></path><path d="M42.4963 11.0898C41.6181 11.8244 41.0808 12.8286 40.886 14.1014H50.5851C50.3896 12.8526 49.8529 11.8554 48.975 11.1085C48.0963 10.3619 47.0225 9.98869 45.754 9.98869C44.4601 9.98869 43.375 10.356 42.4963 11.0898ZM55.8558 17.4429H40.9589C41.2275 18.6674 41.8612 19.6344 42.8624 20.3441C43.8625 21.0548 45.1072 21.409 46.5954 21.409C47.6201 21.409 48.5293 21.2567 49.3224 20.9501C50.1148 20.6444 50.8536 20.1606 51.5366 19.4997L54.5747 22.8045C52.7199 24.9345 50.0116 25.9994 46.4494 25.9994C44.2283 25.9994 42.2641 25.5653 40.5567 24.6958C38.8484 23.827 37.5306 22.6212 36.6036 21.0787C35.676 19.536 35.2129 17.7862 35.2129 15.8272C35.2129 13.8937 35.6703 12.1492 36.5852 10.5942C37.5004 9.03961 38.7564 7.82813 40.3555 6.95885C41.9532 6.09025 43.741 5.65527 45.7172 5.65527C47.6445 5.65527 49.3896 6.07156 50.9511 6.90345C52.5125 7.73649 53.7384 8.92995 54.6294 10.4843C55.52 12.0394 55.9657 13.8445 55.9657 15.9008C55.9657 15.9743 55.9289 16.4881 55.8558 17.4429Z" fill="#22201E"></path><path d="M79.0632 25.706V13.8815L73.1701 23.7963H70.7544L65.0084 13.8448V25.706H59.8477V5.94922H65.8135L72.1088 17.3702L78.8068 5.94922H84.1506L84.2238 25.706H79.0632Z" fill="#22201E"></path><path d="M157.037 5.94922H162.71V13.6608H171.275V5.94922H176.984V25.706H171.275V18.3248H162.71V25.706H157.037V5.94922Z" fill="#22201E"></path><path d="M200 10.6499H193.338V25.706H187.665V10.6499H181.004V5.94922H200V10.6499Z" fill="#22201E"></path><path d="M150.225 8.6494C148.232 6.74829 145.675 5.79785 142.562 5.79785H98.3617C96.3414 5.79785 94.5133 6.22052 92.8772 7.05903C91.2414 7.89138 89.9763 9.10901 89.0821 10.6932C88.1944 12.2836 87.7441 13.9298 87.7441 15.6258C87.7441 17.8497 88.1944 19.7319 89.0821 21.2787C89.9763 22.8256 91.2811 23.9996 92.9964 24.801C94.7123 25.6026 96.507 25.9999 98.4014 25.9999H142.602C145.655 25.9999 148.185 25.0433 150.199 23.1174C152.206 21.1919 153.213 18.7691 153.213 15.8492C153.213 12.9482 152.219 10.5503 150.225 8.6494Z" fill="#FE6A08"></path><path fill-rule="evenodd" clip-rule="evenodd" d="M98.857 15.9919C98.857 14.3395 97.5139 12.9922 95.867 12.9922C94.2203 12.9922 92.877 14.3395 92.877 15.9919C92.877 17.6443 94.2203 18.9919 95.867 18.9919C97.5139 18.9919 98.857 17.6443 98.857 15.9919Z" fill="#FEFEFE"></path><path d="M147.714 19.0165C147.662 19.0247 147.611 19.0404 147.559 19.0404C145.968 19.0425 144.377 19.0432 142.786 19.0445C142.704 19.0445 142.638 19.0468 142.583 18.9522C142.014 17.9546 141.439 16.9606 140.862 15.9675C140.817 15.8902 140.822 15.8321 140.865 15.7575C141.427 14.7841 141.99 13.8106 142.544 12.8326C142.613 12.7117 142.691 12.6819 142.818 12.6821C144.4 12.6839 145.981 12.6807 147.563 12.6819C147.614 12.6819 147.665 12.7129 147.716 12.7295C147.718 12.7054 147.72 12.6812 147.722 12.657C147.714 12.6415 147.707 12.6253 147.698 12.6103C147.175 11.7244 146.482 11.001 145.612 10.4573C142.453 8.48183 138.36 9.57498 136.591 12.8638C136.542 12.9552 136.488 12.9826 136.39 12.9823C135.585 12.9794 134.779 12.9817 133.974 12.9821C128.867 12.9853 110.289 12.989 100.689 12.9915C101.231 13.8646 101.55 14.8908 101.55 15.9919C101.55 17.1069 101.223 18.1458 100.668 19.0263C109.997 19.0222 128.08 19.0194 132.843 19.0156C134.092 19.0147 135.341 19.0087 136.589 19.011C136.635 19.0112 136.699 19.0621 136.725 19.1063C137.226 19.9516 137.889 20.6413 138.698 21.1937C140.802 22.6295 143.732 22.6069 145.817 21.1328C146.036 20.9776 146.247 20.8095 146.462 20.6472C146.632 20.476 146.803 20.3048 146.973 20.1336C147.067 20.0121 147.166 19.8933 147.255 19.7681C147.419 19.5381 147.577 19.3044 147.738 19.0721C147.73 19.0536 147.722 19.0349 147.714 19.0165Z" fill="#FEFEFE"></path><path d="M6.1083 8.4502H0.242188V25.7056H6.1083V8.4502Z" fill="#22201E"></path><path d="M6.34919 3.51321C6.34919 5.27229 4.92787 6.6983 3.1746 6.6983C1.42155 6.6983 0 5.27229 0 3.51321C0 1.75413 1.42155 0.328125 3.1746 0.328125C4.92787 0.328125 6.34919 1.75413 6.34919 3.51321Z" fill="#22201E"></path></svg> 