<?xml version="1.0" encoding="UTF-8"?> <svg xmlns="http://www.w3.org/2000/svg" width="512" height="512" viewBox="0 0 512 512"><g id="1"><path id="Path" fill="#22201e" stroke="none" d="M 441.130005 166.52002 L 69.129997 166.52002 C 60.84573 166.52002 54.130001 159.80426 54.130001 151.52002 C 54.130001 143.235718 60.84573 136.52002 69.129997 136.52002 L 441.130005 136.52002 C 449.414276 136.52002 456.130005 143.235718 456.130005 151.52002 C 456.130005 159.80426 449.414276 166.52002 441.130005 166.52002 Z"></path><path id="path1" fill="#22201e" stroke="none" d="M 441.130005 279.720001 L 69.129997 279.720001 C 60.84573 279.720001 54.130001 273.004272 54.130001 264.720001 C 54.130001 256.43573 60.84573 249.720001 69.129997 249.720001 L 441.130005 249.720001 C 449.414276 249.720001 456.130005 256.43573 456.130005 264.720001 C 456.130005 273.004272 449.414276 279.720001 441.130005 279.720001 Z"></path><path id="path2" fill="#22201e" stroke="none" d="M 441.130005 392.920013 L 69.129997 392.920013 C 60.84573 392.920013 54.130001 386.204285 54.130001 377.920013 C 54.130001 369.635742 60.84573 362.920013 69.129997 362.920013 L 441.130005 362.920013 C 449.414276 362.920013 456.130005 369.635742 456.130005 377.920013 C 456.130005 386.204285 449.414276 392.920013 441.130005 392.920013 Z"></path></g></svg> 