<?xml version="1.0" encoding="UTF-8"?> <svg xmlns="http://www.w3.org/2000/svg" width="60" height="50" viewBox="0 0 60 50" fill="none"><path fill-rule="evenodd" clip-rule="evenodd" d="M18.8716 7.16076L5.34167 7.16076C3.93446 7.16076 2.58468 7.72036 1.58943 8.71338C0.59418 9.70789 0.0351562 11.0567 0.0351562 12.4628C0.0351562 20.1171 0.0351562 36.0955 0.0351562 43.7497C0.0351562 45.1559 0.59418 46.5046 1.58943 47.4977C2.58468 48.4937 3.93446 49.0508 5.34167 49.0508C15.9042 49.0508 43.1661 49.0508 53.7301 49.0508C55.1373 49.0508 56.4861 48.4937 57.4809 47.4977C58.4761 46.5046 59.0352 45.1559 59.0352 43.7497V12.4628C59.0352 11.0567 58.4761 9.70789 57.4809 8.71338C56.4861 7.72036 55.1373 7.16076 53.7301 7.16076L40.1987 7.16076L38.1339 2.00269C37.6625 0.823627 36.5187 0.0507813 35.2487 0.0507813L23.8226 0.0507813C22.5516 0.0507813 21.4083 0.823627 20.9364 2.00269L18.8716 7.16076ZM56.9639 12.4628V43.7497C56.9639 44.6062 56.6228 45.428 56.0157 46.0351C55.4097 46.6402 54.5872 46.9811 53.7301 46.9811C43.1661 46.9811 15.9042 46.9811 5.34167 46.9811C4.48358 46.9811 3.66064 46.6402 3.05458 46.0351C2.44752 45.428 2.10785 44.6062 2.10785 43.7497C2.10785 36.0955 2.10785 20.1171 2.10785 12.4628C2.10785 11.6054 2.44752 10.7845 3.05458 10.1779C3.66064 9.57232 4.48358 9.23142 5.34167 9.23142L53.7301 9.23142C54.5872 9.23142 55.4097 9.57232 56.0157 10.1779C56.6228 10.7845 56.9639 11.6054 56.9639 12.4628ZM29.5357 14.2717C21.895 14.2717 15.6898 20.4703 15.6898 28.1058C15.6898 35.7422 21.895 41.9413 29.5357 41.9413C37.1768 41.9413 43.3805 35.7422 43.3805 28.1058C43.3805 20.4703 37.1768 14.2717 29.5357 14.2717ZM29.5357 16.3424C36.032 16.3424 41.3078 21.6128 41.3078 28.1058C41.3078 34.5983 36.032 39.8701 29.5357 39.8701C23.0383 39.8701 17.7625 34.5983 17.7625 28.1058C17.7625 21.6128 23.0383 16.3424 29.5357 16.3424ZM29.5357 19.9602C25.0357 19.9602 21.3825 23.6102 21.3825 28.1058C21.3825 32.6023 25.0357 36.2528 29.5357 36.2528C34.0346 36.2528 37.6878 32.6023 37.6878 28.1058C37.6878 23.6102 34.0346 19.9602 29.5357 19.9602ZM29.5357 22.0309C32.8913 22.0309 35.6151 24.7531 35.6151 28.1058C35.6151 31.4599 32.8913 34.1817 29.5357 34.1817C26.179 34.1817 23.4552 31.4599 23.4552 28.1058C23.4552 24.7531 26.179 22.0309 29.5357 22.0309ZM14.9169 15.956C14.9169 14.2401 13.525 12.8502 11.8088 12.8502C10.873 12.8502 9.77177 12.8502 8.83643 12.8502C7.11975 12.8502 5.72789 14.2401 5.72789 15.956C5.72789 15.9965 5.72789 16.0386 5.72789 16.0802C5.72789 17.7965 7.11975 19.1859 8.83643 19.1859C9.77177 19.1859 10.873 19.1859 11.8088 19.1859C13.525 19.1859 14.9169 17.7965 14.9169 16.0802C14.9169 16.0386 14.9169 15.9965 14.9169 15.956ZM12.8442 15.956C12.8442 15.9965 12.8442 16.0386 12.8442 16.0802C12.8442 16.6526 12.3802 17.1162 11.8088 17.1162H8.83643C8.26454 17.1162 7.80058 16.6526 7.80058 16.0802C7.80058 16.0386 7.80058 15.9965 7.80058 15.956C7.80058 15.3835 8.26454 14.9199 8.83643 14.9199H11.8088C12.3802 14.9199 12.8442 15.3835 12.8442 15.956ZM37.9675 7.16076H21.1028L22.8605 2.77157C23.018 2.37921 23.3983 2.12044 23.8226 2.12044C26.5469 2.12044 32.5249 2.12044 35.2487 2.12044C35.672 2.12044 36.0523 2.37921 36.2108 2.77157L37.9675 7.16076Z" fill="#666666" fill-opacity="0.15"></path></svg> 