<?xml version="1.0" encoding="UTF-8"?> <svg xmlns="http://www.w3.org/2000/svg" width="330" height="165" viewBox="0 0 330 165" fill="none"><rect width="330" height="165" fill="white"></rect><g clip-path="url(#clip0_149_183)"><mask id="mask0_149_183" style="mask-type:luminance" maskUnits="userSpaceOnUse" x="57" y="65" width="217" height="34"><path d="M57.8516 65.6982H273.402V98.1595H57.8516V65.6982Z" fill="white"></path></mask><g mask="url(#mask0_149_183)"><path d="M268.797 94.4789C267.079 96.269 265.132 97.3364 262.689 97.8238C261.04 98.1543 259.596 98.2238 257.92 98.0514C255.699 97.8251 253.866 97.1178 252.079 95.7919C250.617 94.7117 249.57 93.5427 248.655 91.9763C247.95 90.7636 247.538 89.6293 247.31 88.2482C246.99 86.332 247.074 84.6461 247.583 82.7723C248.745 78.5105 251.979 75.4897 256.338 74.5907C258.827 74.0776 261.04 74.1303 263.501 74.7605C265.254 75.2093 266.646 75.9655 267.971 77.1885C268.808 77.9575 269.402 78.7304 269.929 79.7309C270.553 80.9141 270.805 82.0637 270.733 83.3961H262.959C262.79 82.3634 262.291 81.5403 261.451 80.9076C260.364 80.0859 258.962 80.0203 257.8 80.7327C257.006 81.2227 256.484 81.8888 256.203 82.7723C255.533 84.8775 255.504 86.8361 256.1 88.9619C256.355 89.8557 256.781 90.5566 257.464 91.1944C258.241 91.93 259.21 92.2322 260.274 92.0766C260.933 91.9815 261.468 91.696 261.912 91.2009C262.378 90.6903 262.644 90.1425 262.766 89.4647C262.851 88.9876 262.899 88.5838 262.925 88.1003H271.121C271.285 90.5501 270.501 92.7016 268.797 94.4789Z" fill="#0056A8"></path></g><path d="M237.463 71.8032H245.965V65.8489H237.463V71.8032Z" fill="#0056A8"></path><path d="M237.463 97.4039H245.965V74.8638H237.463V97.4039Z" fill="#0056A8"></path><path d="M219.85 77.2427C220.968 76.273 222.034 75.5888 223.383 74.9703C225.58 73.9646 227.776 73.8013 230.099 74.4739C232.591 75.1979 234.387 76.9353 235.173 79.3903C235.55 80.5696 235.714 81.6164 235.714 82.8535V97.4009H226.684V84.3183C226.684 83.881 226.63 83.5107 226.498 83.0914C226.267 82.3404 225.766 81.7874 225.035 81.4813C223.434 80.8075 221.614 81.4042 220.736 82.8908C220.368 83.5107 220.201 84.1215 220.201 84.8417V97.4009H211.455V74.8597H219.66L219.85 77.2427Z" fill="#0056A8"></path><path d="M119.287 77.2427C120.405 76.273 121.472 75.5888 122.818 74.9703C125.016 73.9646 127.213 73.8013 129.535 74.4739C132.029 75.1979 133.824 76.9353 134.61 79.3903C134.988 80.5696 135.151 81.6164 135.151 82.8535V97.4009H126.121V84.3183C126.121 83.881 126.065 83.5107 125.937 83.0914C125.703 82.3404 125.203 81.7874 124.47 81.4813C122.87 80.8075 121.05 81.4042 120.173 82.8908C119.805 83.5107 119.637 84.1215 119.637 84.8417V97.4009H110.893V74.8597H119.096L119.287 77.2427Z" fill="#0056A8"></path><mask id="mask1_149_183" style="mask-type:luminance" maskUnits="userSpaceOnUse" x="57" y="65" width="217" height="34"><path d="M57.8516 65.6982H273.402V98.1595H57.8516V65.6982Z" fill="white"></path></mask><g mask="url(#mask1_149_183)"><path d="M172.879 89.1162C173.53 89.2255 174.075 89.3605 174.7 89.5676C175.223 89.7374 175.582 90.1386 175.697 90.6697C175.821 91.2497 175.656 91.8001 175.236 92.2181C174.809 92.6463 174.323 92.8932 173.724 92.9858C172.922 93.1131 172.211 93.0475 171.447 92.7723C171.077 92.6412 170.784 92.4753 170.48 92.2271C170.09 91.9004 169.838 91.5262 169.686 91.0427C169.559 90.6324 169.509 90.2698 169.517 89.8402H161.189V90.3212C161.189 91.0979 161.311 91.7564 161.586 92.483C162.004 93.5761 162.576 94.421 163.44 95.2183C164.567 96.2639 165.744 96.9159 167.227 97.3364C170.305 98.2057 173.077 98.3781 176.241 97.8971C177.726 97.672 178.95 97.2759 180.285 96.5905C180.873 96.2883 181.344 95.9758 181.851 95.554C184.1 93.6815 184.934 90.824 184.035 88.0527C183.695 87.0084 183.158 86.2034 182.322 85.4832C181.175 84.4981 180.014 83.8706 178.556 83.4488C178.237 83.3574 177.964 83.2803 177.643 83.1928C175.859 82.7016 174.327 82.3775 172.495 82.1074C172.005 82.0354 171.592 81.957 171.108 81.8451C170.885 81.7924 170.7 81.7306 170.492 81.6368C169.98 81.4079 169.753 80.8099 169.984 80.3032C169.996 80.2762 170.008 80.2517 170.022 80.226C170.297 79.7386 170.705 79.421 171.242 79.2654C172.193 78.9927 173.068 79.0159 174.001 79.3309C174.896 79.6332 175.458 80.4472 175.419 81.3847H183.443C183.435 80.4073 183.284 79.5817 182.952 78.6635C182.612 77.7324 182.096 77.0238 181.311 76.4104C180.629 75.8729 179.981 75.5076 179.168 75.1951C178.377 74.8904 177.679 74.7 176.842 74.5547C174.853 74.2152 173.142 74.1162 171.129 74.2345C169.978 74.3001 169.008 74.4415 167.882 74.7026C166.367 75.0562 165.146 75.6362 163.921 76.5879C162.881 77.3968 162.2 78.342 161.764 79.5791C161.566 80.1399 161.471 80.6375 161.445 81.2278C161.4 82.2168 161.544 83.0591 161.913 83.9786C162.575 85.6247 163.75 86.7911 165.413 87.4483C166.255 87.7813 166.993 87.9999 167.882 88.18C169.633 88.5388 171.116 88.8179 172.879 89.1162Z" fill="#0056A8"></path></g><path d="M73.344 87.6828H67.5089V80.2869H71.3008C72.0208 80.2869 72.6305 80.2702 73.3505 80.2304C74.3481 80.1763 75.177 79.734 75.7711 78.9379C76.0864 78.5148 76.2641 78.0879 76.3393 77.5657C76.4016 77.1259 76.4107 76.7504 76.3666 76.3106C76.2044 74.6645 74.8293 73.4299 73.1624 73.4299H67.5089V97.4025H57.8496V65.8463H73.6385C74.2663 65.8463 74.7969 65.8579 75.4235 65.8926C79.6123 66.1151 83.063 68.4209 84.8376 72.1889C85.7613 74.1501 86.0752 76.0354 85.8378 78.1882C85.3371 82.7201 82.1394 86.245 77.647 87.2211C76.1577 87.5452 74.8683 87.6828 73.344 87.6828Z" fill="#0056A8"></path><path d="M200.153 74.4305C199.254 74.289 198.486 74.2312 197.576 74.2312C196.666 74.2312 195.899 74.289 194.999 74.4305C192.389 74.8356 190.274 75.876 188.368 77.6892C186.329 79.6324 185.212 81.9318 184.957 84.7237C184.801 86.438 184.934 87.9156 185.4 89.5733C186.114 92.117 187.454 94.082 189.568 95.687C190.96 96.7479 192.344 97.3832 194.059 97.7536C195.277 98.0185 196.33 98.1278 197.576 98.1278C198.822 98.1278 199.875 98.0185 201.094 97.7536C202.808 97.3832 204.192 96.7479 205.584 95.687L200.699 90.4092C199.922 92.1196 197.898 92.8822 196.171 92.1118C195.376 91.7569 194.812 91.1988 194.452 90.4092C194.122 89.68 193.928 89.0267 193.809 88.2345C193.568 86.6514 193.595 85.2767 193.908 83.7039C194.067 82.8873 194.342 82.2211 194.801 81.5254C195.805 80.0066 197.86 79.5822 199.395 80.5763C199.796 80.8374 200.089 81.128 200.35 81.5254C200.81 82.2211 201.085 82.8873 201.245 83.7039C201.554 85.2767 201.585 86.6514 201.343 88.2345C201.223 89.0267 201.029 89.68 200.699 90.4092L205.584 95.687C207.7 94.082 209.04 92.117 209.752 89.5733C210.218 87.9156 210.35 86.438 210.196 84.7237C209.94 81.9318 208.826 79.6324 206.785 77.6892C204.878 75.8734 202.765 74.8356 200.153 74.4305Z" fill="#0056A8"></path><mask id="mask2_149_183" style="mask-type:luminance" maskUnits="userSpaceOnUse" x="57" y="65" width="217" height="34"><path d="M57.8516 65.6982H273.402V98.1595H57.8516V65.6982Z" fill="white"></path></mask><g mask="url(#mask2_149_183)"><path d="M160.257 95.6364C160.129 93.7794 160.058 92.2066 160.02 90.3432C159.971 87.8946 159.941 85.8293 159.924 83.382C159.914 82.0613 159.767 80.9463 159.434 79.668C158.997 77.9923 158.007 76.7192 156.483 75.873C155.562 75.3624 154.717 75.0486 153.687 74.8274C150.408 74.1317 147.514 74.0738 144.21 74.6423C143.281 74.8017 142.513 75.0229 141.641 75.3804C139.628 76.206 138.241 77.7107 137.595 79.7722C137.347 80.5605 137.281 81.2755 137.376 82.0973C137.394 82.2477 137.431 82.375 137.5 82.5126L145.151 82.6978C145.132 82.2143 145.195 81.8053 145.36 81.3514C145.611 80.6595 146.104 80.1682 146.801 79.9162C147.828 79.542 148.816 79.5278 149.856 79.8647C150.54 80.0872 151.025 80.5759 151.238 81.2562C151.372 81.6819 151.305 82.1011 151.046 82.4651C150.82 82.7866 150.541 83.0026 150.172 83.1428C149.943 83.229 149.749 83.292 149.515 83.3537C148.452 83.6379 147.543 83.8334 146.458 84.0121C145.598 84.1523 144.874 84.2848 144.021 84.4571C142.863 84.6847 141.895 84.9368 140.773 85.2969C139.746 85.6261 138.936 86.0942 138.142 86.8182C137.11 87.7544 136.519 88.8643 136.322 90.2416C136.192 91.1598 136.222 91.9597 136.427 92.8637C136.963 95.2146 138.609 96.9533 140.946 97.6271C143.535 98.3717 145.965 98.2496 148.465 97.249C149.681 96.7642 150.608 96.0916 151.444 95.0911L150.905 91.2164C150.519 91.8079 150.041 92.2117 149.393 92.4947C148.786 92.7609 148.237 92.901 147.577 92.9679C147.027 93.0219 146.55 92.9821 146.017 92.8342C145.583 92.7159 145.245 92.5152 144.937 92.1912C144.678 91.9134 144.523 91.615 144.444 91.2447C144.324 90.6762 144.512 90.1297 144.959 89.7529C145.259 89.4995 145.552 89.3298 145.919 89.196C146.808 88.872 147.567 88.6289 148.476 88.373C149.576 88.0656 150.487 87.7326 151.525 87.2593C151.627 88.0836 151.622 88.7897 151.507 89.6101C151.422 90.212 151.238 90.7071 150.905 91.2164L151.444 95.0911C151.612 95.6415 151.766 96.1019 151.955 96.6408C152.063 96.943 152.203 97.177 152.416 97.4124H160.844C160.485 96.853 160.302 96.3 160.257 95.6364Z" fill="#0056A8"></path><path d="M109.21 95.6364C109.083 93.7794 109.012 92.2066 108.974 90.3432C108.923 87.8946 108.895 85.8293 108.878 83.382C108.869 82.0613 108.722 80.9463 108.388 79.668C107.95 77.9923 106.962 76.7192 105.436 75.873C104.515 75.3624 103.671 75.0486 102.641 74.8274C99.3614 74.1317 96.4672 74.0738 93.1618 74.6423C92.2356 74.8017 91.465 75.0229 90.5946 75.3804C88.5812 76.206 87.1945 77.7107 86.5484 79.7722C86.302 80.5605 86.2345 81.2755 86.3305 82.0973C86.3474 82.2477 86.385 82.375 86.4537 82.5126L94.1049 82.6978C94.0868 82.2143 94.149 81.8053 94.3138 81.3514C94.5642 80.6595 95.0571 80.1682 95.755 79.9162C96.7825 79.542 97.7697 79.5278 98.8088 79.8647C99.4937 80.0872 99.9802 80.5759 100.194 81.2562C100.325 81.6819 100.259 82.1011 99.9996 82.4651C99.7726 82.7866 99.4937 83.0026 99.1253 83.1428C98.897 83.229 98.7024 83.292 98.4676 83.3537C97.4051 83.6379 96.4958 83.8334 95.4113 84.0121C94.5525 84.1523 93.8273 84.2848 92.9737 84.4571C91.8166 84.6847 90.8501 84.9368 89.7254 85.2969C88.7006 85.6261 87.8911 86.0942 87.0959 86.8182C86.0633 87.7544 85.4743 88.8643 85.2758 90.2416C85.1448 91.1598 85.1759 91.9597 85.3822 92.8637C85.9154 95.2146 87.5642 96.9533 89.8979 97.6271C92.4898 98.3717 94.917 98.2496 97.4181 97.249C98.6336 96.7642 99.5625 96.0916 100.399 95.0911L99.8595 91.2164C99.4743 91.8079 98.9943 92.2117 98.3456 92.4947C97.7398 92.7609 97.1898 92.901 96.5321 92.9679C95.9795 93.0219 95.5047 92.9821 94.9702 92.8342C94.5369 92.7159 94.1983 92.5152 93.8922 92.1912C93.6314 91.9134 93.4771 91.615 93.3979 91.2447C93.2786 90.6762 93.4654 90.1297 93.9129 89.7529C94.2113 89.4995 94.5045 89.3298 94.8729 89.196C95.7615 88.872 96.5217 88.6289 97.4311 88.373C98.5312 88.0656 99.4405 87.7326 100.48 87.2593C100.581 88.0836 100.576 88.7897 100.46 89.6101C100.376 90.212 100.19 90.7071 99.8595 91.2164L100.399 95.0911C100.565 95.6415 100.72 96.1019 100.91 96.6408C101.017 96.943 101.157 97.177 101.37 97.4124H109.798C109.438 96.853 109.257 96.3 109.21 95.6364Z" fill="#0056A8"></path></g></g><defs><clipPath id="clip0_149_183"><rect width="215" height="34" fill="white" transform="translate(57 65)"></rect></clipPath></defs></svg> 