<?xml version="1.0" encoding="UTF-8"?> <svg xmlns="http://www.w3.org/2000/svg" width="330" height="165" viewBox="0 0 330 165" fill="none"><rect width="330" height="165" fill="white"></rect><g clip-path="url(#clip0_149_184)"><path fill-rule="evenodd" clip-rule="evenodd" d="M178.728 73.2516C178.715 73.2638 178.383 73.2872 177.992 73.3037C177.601 73.3201 177.265 73.3427 177.245 73.3539C177.226 73.3651 177.01 73.3896 176.765 73.4084C176.52 73.4271 176.305 73.4519 176.286 73.4636C176.267 73.4753 176.098 73.4987 175.909 73.5156C174.948 73.6019 173.477 73.9365 172.629 74.262C172.438 74.3355 172.241 74.4079 172.192 74.423C171.988 74.4853 171.969 74.6356 171.935 76.5136C171.899 78.5271 171.892 78.4788 172.24 78.5215C172.354 78.5356 172.569 78.5029 172.779 78.4393C173.551 78.2055 173.86 78.1195 174.672 77.9135C175.706 77.6513 176.849 77.4053 177.484 77.3083C178.573 77.1417 181.051 77.1736 181.558 77.3606C181.659 77.3975 181.906 77.4655 182.11 77.5116C182.534 77.6082 182.87 77.7679 183.24 78.0478C183.51 78.2527 183.675 78.5557 183.81 79.0897C183.898 79.4379 183.904 79.4822 183.939 80.0109L183.972 80.5067L183.529 80.47C181.77 80.3248 179.771 80.2663 178.902 80.3347L177.509 80.4444C176.103 80.5553 174.36 80.9203 173.49 81.2865C172.346 81.7677 171.244 82.6521 170.929 83.3422C170.281 84.7609 170.146 86.5761 170.559 88.2698C170.718 88.9167 170.852 89.2822 171.072 89.6602C171.148 89.7921 171.21 89.9217 171.21 89.9481C171.21 90.0923 172.378 91.1285 172.954 91.4956C173.104 91.5914 173.234 91.687 173.243 91.7082C173.252 91.7293 173.29 91.7466 173.326 91.7466C173.362 91.7466 173.545 91.8158 173.732 91.9004C173.92 91.9849 174.253 92.1068 174.472 92.1711C174.691 92.2354 174.97 92.322 175.094 92.3635C175.217 92.4051 175.687 92.5026 176.14 92.5802C176.959 92.721 176.967 92.7213 179.251 92.7217C181.558 92.7221 182.168 92.6888 182.985 92.5179C184.124 92.2795 184.645 92.1371 185.076 91.9456C185.981 91.5444 186.211 91.4073 186.665 90.9971C186.955 90.7362 187.351 90.3253 187.48 90.1534C187.718 89.8346 188.235 88.7585 188.337 88.3698C188.394 88.1497 188.461 87.9323 188.486 87.8867C188.589 87.7 188.764 86.4403 188.817 85.5183C188.856 84.8265 188.852 82.2048 188.81 81.4662C188.76 80.5743 188.645 79.6906 188.51 79.165C188.263 78.2015 188.125 77.8087 187.804 77.1658C186.996 75.547 185.322 74.2135 183.384 73.6455C183.063 73.5515 182.415 73.4289 181.865 73.3582C181.742 73.3423 181.585 73.3188 181.517 73.3059C181.348 73.2741 178.758 73.2238 178.728 73.2516ZM201.208 73.5432C200.482 73.5802 200.307 73.6005 199.49 73.7414C198.744 73.8702 198.274 74.0005 197.751 74.2239C197.38 74.382 197.216 74.4691 196.724 74.772C196.671 74.8048 196.489 74.9141 196.321 75.015C195.964 75.2298 195.298 75.9037 194.863 76.4923C194.519 76.9578 193.914 78.1523 193.914 78.3665C193.914 78.4094 193.882 78.5064 193.843 78.5821C193.699 78.8618 193.417 80.1854 193.313 81.0632C193.22 81.8555 193.21 82.1522 193.23 83.5896C193.26 85.7123 193.359 86.3523 193.925 88.0853C194.137 88.7357 194.412 89.2339 194.943 89.9324C195.3 90.4028 196.019 91.1157 196.304 91.282C196.427 91.3539 196.539 91.426 196.553 91.4421C196.599 91.497 196.776 91.595 197.225 91.815C197.706 92.051 197.983 92.151 198.554 92.2949C198.754 92.3453 199.041 92.4207 199.191 92.4624C200.031 92.6952 201.295 92.7849 203.523 92.7702C204.994 92.7605 205.33 92.7439 205.863 92.6548C206.952 92.4728 208.105 92.1332 208.751 91.8038C209.239 91.5547 209.472 91.4226 209.523 91.3651C209.55 91.3342 209.763 91.1529 209.996 90.9624C210.523 90.531 210.742 90.3217 210.742 90.2508C210.742 90.2205 210.761 90.1958 210.785 90.1958C210.827 90.1958 211.31 89.5015 211.313 89.4369C211.314 89.4185 211.36 89.351 211.415 89.2868C211.47 89.2227 211.561 89.0915 211.617 88.9952C211.744 88.777 212.087 87.9305 212.087 87.8351C212.087 87.7963 212.107 87.7431 212.131 87.717C212.261 87.5776 212.576 85.891 212.689 84.7302C212.743 84.1653 212.728 81.5743 212.669 81.2911C212.654 81.2223 212.628 81.0197 212.611 80.8409C212.481 79.5057 212.076 78.0911 211.604 77.3275C211.541 77.2248 211.489 77.1251 211.489 77.1058C211.489 77.0865 211.37 76.9116 211.225 76.7171C211.08 76.5226 210.895 76.2734 210.815 76.1634C210.734 76.0533 210.537 75.8395 210.376 75.6881C210.091 75.4204 209.482 74.9377 209.429 74.9377C209.414 74.9377 209.302 74.8691 209.178 74.7853C208.834 74.5522 208.08 74.2085 207.493 74.0171C206.972 73.8477 206.123 73.6903 205.141 73.5813C204.569 73.5178 202.164 73.4945 201.208 73.5432ZM223.979 73.5601C223.969 73.5699 223.782 73.5921 223.563 73.6095C223.344 73.6269 223.019 73.6621 222.841 73.6878C222.663 73.7134 222.428 73.7469 222.32 73.7623C221.859 73.8271 220.938 74.1155 220.526 74.3242C220.084 74.548 219.254 75.1517 219.003 75.432C218.751 75.713 218.219 76.7266 218.119 77.1139C218.014 77.5237 217.904 78.2218 217.864 78.7353C217.811 79.4086 217.823 92.3749 217.877 92.4289C217.928 92.4796 222.321 92.4854 222.371 92.435C222.392 92.4146 222.425 89.488 222.445 85.9315C222.464 82.375 222.496 79.3863 222.514 79.29C222.586 78.9003 222.757 78.4127 222.875 78.2567C223.039 78.0414 223.406 77.778 223.688 77.6745C224.262 77.4634 224.901 77.3979 226.152 77.4218C227.671 77.4508 228.075 77.5365 228.55 77.9303C229.002 78.3047 229.136 78.6064 229.198 79.3901C229.223 79.7065 229.249 82.7006 229.255 86.0436C229.262 89.3866 229.279 92.1929 229.294 92.2798C229.32 92.4259 229.34 92.4394 229.554 92.4605C229.941 92.4986 233.783 92.4748 233.824 92.4341C233.845 92.4132 233.868 89.5204 233.876 86.0057C233.884 82.4909 233.901 79.4898 233.915 79.3366C233.929 79.1833 233.977 78.9244 234.021 78.7613C234.066 78.5981 234.114 78.4147 234.128 78.3536C234.17 78.1697 234.608 77.7705 234.873 77.6753C235.666 77.3892 237.706 77.319 238.916 77.5362C239.634 77.6653 240.233 78.0805 240.381 78.5527C240.624 79.3292 240.631 79.5074 240.662 86.152C240.677 89.5822 240.708 92.4068 240.73 92.4289C240.795 92.494 244.947 92.5159 245.111 92.452L245.251 92.3975L245.228 85.7062C245.216 82.026 245.192 78.8911 245.175 78.7397C245.034 77.4625 244.893 76.9278 244.524 76.2628C244.198 75.6771 243.724 75.1774 243.124 74.7866C241.601 73.7953 240.27 73.5122 237.329 73.5539C236.494 73.5658 235.732 73.5883 235.636 73.604C235.54 73.6196 235.35 73.6441 235.213 73.6584C234.619 73.7203 233.873 73.8771 233.22 74.0777C233.137 74.1032 232.834 74.2423 232.548 74.3869C232.065 74.6306 231.999 74.6502 231.653 74.6552C231.304 74.6602 231.248 74.6451 230.782 74.419C230.012 74.0455 229.475 73.8838 228.492 73.7304C227.355 73.5531 227.105 73.5367 225.572 73.5394C224.706 73.5409 223.989 73.5502 223.979 73.5601ZM149.651 73.794C149.462 73.8329 149.311 73.9704 149.18 74.2221C149.125 74.3268 149.067 74.4237 149.051 74.4375C149.034 74.4512 148.944 74.575 148.85 74.7126C148.756 74.8502 148.634 75.0166 148.581 75.0825C148.526 75.1482 148.393 75.3106 148.283 75.4432C147.995 75.792 147.892 75.9367 147.76 76.1759C147.695 76.2928 147.624 76.3885 147.601 76.3885C147.579 76.3885 147.561 76.4173 147.561 76.4525C147.561 76.4877 147.516 76.5489 147.461 76.5886C147.407 76.6283 147.362 76.6871 147.362 76.7194C147.362 76.7516 147.328 76.791 147.287 76.8068C147.246 76.8226 147.213 76.8682 147.213 76.908C147.213 76.9479 147.196 76.988 147.175 76.9972C147.099 77.0312 146.217 78.1481 146.217 78.2107C146.217 78.2265 146.177 78.2829 146.13 78.3359C146.082 78.3887 146.036 78.4429 145.991 78.4985C145.678 78.9048 145.416 79.2574 145.275 79.4641C145.074 79.7576 144.76 80.0777 144.738 80.0114C144.73 79.9861 144.542 79.7178 144.322 79.4151C143.863 78.7828 143.536 78.3269 143.429 78.1673C143.387 78.1063 143.262 77.9456 143.15 77.8102C143.038 77.6749 142.837 77.3953 142.703 77.1889C142.57 76.9826 142.436 76.7912 142.405 76.7637C142.375 76.7362 142.173 76.466 141.958 76.1634C141.742 75.8607 141.451 75.4668 141.31 75.2879C141.17 75.1091 140.979 74.8502 140.887 74.7126C140.795 74.575 140.691 74.4327 140.655 74.3962C140.533 74.2714 140.287 73.8872 140.327 73.8837C140.349 73.8817 140.322 73.8608 140.267 73.8371C140.212 73.8135 138.956 73.7926 137.476 73.7906C135.338 73.7878 134.766 73.8005 134.696 73.8523C134.617 73.9102 134.614 73.9425 134.666 74.1395C134.737 74.4021 134.787 74.4781 135.418 75.2629C135.684 75.5931 135.998 75.9907 136.117 76.1466C136.236 76.3024 136.513 76.6545 136.732 76.929C136.951 77.2035 137.175 77.4908 137.23 77.5674C137.285 77.644 137.364 77.7421 137.407 77.7855C137.559 77.9398 137.995 78.4701 138.258 78.8203C138.404 79.0159 138.711 79.3986 138.939 79.6708C139.434 80.2618 139.439 80.2683 139.593 80.4907C139.66 80.587 139.727 80.677 139.742 80.6908C139.757 80.7045 139.836 80.8058 139.917 80.9159C139.998 81.0259 140.087 81.141 140.116 81.1716C140.144 81.2021 140.233 81.3111 140.313 81.4136C140.394 81.5161 140.525 81.6711 140.607 81.7582C140.688 81.8452 140.846 82.0402 140.959 82.1916C141.071 82.3429 141.174 82.478 141.189 82.4917C141.203 82.5055 141.332 82.6594 141.475 82.8336C141.698 83.1056 141.727 83.1627 141.674 83.2364C141.375 83.6483 140.999 84.1226 140.811 84.3242C140.686 84.4582 140.546 84.6241 140.5 84.6929C140.454 84.7616 140.38 84.8629 140.334 84.918C140.038 85.2808 139.794 85.5954 139.794 85.6154C139.794 85.6283 139.743 85.6914 139.682 85.7555C139.557 85.8859 139.207 86.309 139.106 86.453C139.069 86.5044 138.963 86.6304 138.87 86.7328C138.776 86.8352 138.699 86.9376 138.699 86.9601C138.699 86.9828 138.671 87.0294 138.637 87.0639C138.602 87.0983 138.507 87.2132 138.425 87.3191C138.212 87.593 137.99 87.8572 137.899 87.9446C137.856 87.9859 137.702 88.1772 137.558 88.3698C137.276 88.7448 136.994 89.091 136.829 89.2639C136.773 89.3226 136.712 89.41 136.694 89.4581C136.675 89.5061 136.638 89.5455 136.609 89.5455C136.581 89.5455 136.558 89.5792 136.558 89.6205C136.558 89.6618 136.54 89.6955 136.519 89.6955C136.497 89.6955 136.439 89.7637 136.391 89.8469C136.342 89.9302 136.253 90.0516 136.193 90.1167C136.134 90.1818 136.019 90.3183 135.939 90.4199C135.859 90.5216 135.735 90.6698 135.665 90.7494C135.594 90.8289 135.448 91.0212 135.338 91.1767C135.229 91.3322 135.088 91.5138 135.027 91.5803C134.965 91.6468 134.915 91.7226 134.915 91.7489C134.915 91.7751 134.897 91.7966 134.876 91.7966C134.802 91.7966 134.666 92.0871 134.666 92.2437C134.666 92.3593 134.695 92.4119 134.778 92.4452C134.84 92.4702 136.075 92.4862 137.57 92.4811C140.18 92.4723 140.252 92.4694 140.322 92.3727C140.362 92.3182 140.498 92.1566 140.625 92.0137C140.752 91.8708 140.924 91.6544 141.009 91.5328C141.153 91.3267 141.523 90.8277 141.666 90.6493C141.7 90.6062 141.837 90.4359 141.972 90.2708C142.106 90.1057 142.369 89.7568 142.557 89.4954C142.745 89.234 142.927 88.9977 142.962 88.9701C143.017 88.9262 143.141 88.7724 143.405 88.4199C143.776 87.9255 144.051 87.5652 144.075 87.5444C144.091 87.5306 144.229 87.3393 144.382 87.1192C144.69 86.675 144.978 86.3438 145.054 86.3438C145.082 86.3438 145.179 86.4593 145.27 86.6005C145.361 86.7417 145.568 87.0247 145.73 87.2293C145.892 87.4338 146.171 87.8192 146.352 88.0856C146.684 88.5761 146.84 88.7889 147.002 88.9701C147.134 89.1184 147.511 89.6367 147.511 89.6705C147.511 89.6866 147.606 89.8283 147.722 89.9853C147.838 90.1424 147.98 90.3389 148.037 90.4222C148.094 90.5054 148.176 90.618 148.221 90.6723C148.424 90.9211 148.642 91.2056 148.756 91.3714C148.824 91.471 148.904 91.5793 148.933 91.612C149.045 91.7403 149.304 92.1425 149.304 92.1889C149.304 92.2159 149.372 92.2963 149.456 92.3675L149.61 92.497L152.232 92.4963C153.675 92.496 154.903 92.4827 154.962 92.4667C155.045 92.4444 155.074 92.3915 155.089 92.2354C155.1 92.1127 155.083 92.0075 155.044 91.9684C155.008 91.9329 154.98 91.892 154.98 91.8777C154.98 91.8633 154.906 91.7772 154.816 91.6865C154.727 91.5957 154.621 91.4559 154.58 91.3758C154.539 91.2956 154.36 91.0592 154.181 90.8505C154.003 90.6417 153.79 90.3809 153.708 90.2708C153.395 89.8467 152.816 89.1195 152.778 89.1036C152.756 89.0944 152.739 89.0585 152.739 89.0238C152.739 88.9891 152.692 88.9178 152.634 88.8653C152.576 88.8129 152.401 88.6012 152.245 88.3948C151.793 87.7991 151.519 87.4468 151.197 87.0441C151 86.7963 150.805 86.5462 150.614 86.2937C150.458 86.0874 150.317 85.9073 150.3 85.8935C150.262 85.862 149.694 85.1122 149.627 85.0042C149.6 84.96 149.529 84.8732 149.47 84.8112C149.333 84.666 148.905 84.1083 148.905 84.0736C148.905 84.0591 148.855 83.9926 148.793 83.926C148.395 83.4953 148.109 83.0824 148.109 82.9384C148.109 82.8817 148.162 82.8155 148.233 82.7828C148.301 82.7515 148.358 82.7067 148.358 82.6835C148.358 82.6602 148.413 82.5927 148.481 82.5336C148.548 82.4745 148.665 82.3339 148.741 82.2213C148.943 81.9202 149.191 81.6049 149.492 81.2661C149.811 80.9085 149.834 80.8804 150.054 80.5907C150.148 80.4669 150.239 80.3543 150.257 80.3406C150.275 80.3268 150.389 80.1805 150.51 80.0154C150.631 79.8503 150.818 79.6113 150.925 79.4842C151.142 79.2278 151.17 79.1939 151.507 78.7648C151.637 78.5997 151.773 78.4308 151.81 78.3896C151.846 78.3483 151.997 78.1569 152.145 77.9643C152.292 77.7717 152.532 77.4678 152.679 77.289C152.826 77.1101 152.981 76.9188 153.024 76.8637C153.067 76.8087 153.195 76.6589 153.307 76.5308C153.419 76.4028 153.533 76.2677 153.561 76.2306C153.588 76.1936 153.677 76.0733 153.758 75.9632C153.923 75.739 154.32 75.2588 154.7 74.8225C154.964 74.5199 155.121 74.2078 155.126 73.977C155.128 73.8625 155.104 73.8374 154.967 73.8141C154.734 73.7745 149.835 73.756 149.651 73.794ZM160.26 73.8825C160.195 74.004 160.209 92.3651 160.273 92.4303C160.328 92.4848 164.766 92.4848 164.821 92.4303C164.87 92.3811 164.862 73.8952 164.813 73.8459C164.795 73.8273 163.775 73.8054 162.546 73.7972C160.356 73.7826 160.312 73.7843 160.26 73.8825ZM251.623 73.8324C251.509 73.8524 251.445 73.895 251.429 73.9622C251.416 74.0172 251.403 78.1642 251.4 83.1778C251.395 91.585 251.401 92.2998 251.477 92.3759C251.549 92.4486 251.781 92.4614 253.443 92.4849C254.48 92.4994 255.479 92.4951 255.664 92.4752L256 92.439V73.8509L255.721 73.8179C255.382 73.778 251.862 73.7904 251.623 73.8324ZM204.131 77.3923C205.563 77.5415 206.506 77.9176 207.113 78.5824C207.842 79.3817 208.042 80.1182 208.104 82.2416C208.183 84.9309 208.017 86.4423 207.561 87.1942C207.272 87.671 206.567 88.2748 205.988 88.5422C205.163 88.9229 204.545 89.0202 202.95 89.0202C201.696 89.0202 201.345 88.9814 200.518 88.7513C199.87 88.5709 199.276 88.2316 198.843 87.7953C198.582 87.5309 198.244 86.9039 198.116 86.4438C197.892 85.644 197.747 84.4743 197.749 83.4866C197.753 81.3089 197.94 80.108 198.413 79.2316C198.627 78.8346 199.139 78.2363 199.372 78.11C199.642 77.9635 200.04 77.7616 200.187 77.6958C200.349 77.6238 201.13 77.4394 201.482 77.3903C201.903 77.3315 203.558 77.3327 204.131 77.3923ZM182.114 84.0987C182.429 84.1204 182.742 84.1506 182.811 84.1656C182.879 84.1806 183.126 84.2064 183.359 84.223C183.591 84.2396 183.827 84.2605 183.882 84.2693C183.936 84.2781 183.998 84.2869 184.019 84.289C184.067 84.2936 184.02 85.6959 183.949 86.3865C183.893 86.9292 183.725 87.5478 183.561 87.8137C183.348 88.1598 182.739 88.5887 182.352 88.6648C182.289 88.6771 182.137 88.7244 182.015 88.7699C181.595 88.9249 180.644 88.9883 178.977 88.9722C178.115 88.9639 177.319 88.9423 177.21 88.9241C176.583 88.8203 175.962 88.6246 175.615 88.4209C175.373 88.2792 174.986 87.7976 174.821 87.4335C174.605 86.9581 174.549 85.9273 174.722 85.59C174.796 85.4435 175.088 85.056 175.272 84.8601C175.446 84.6744 176.239 84.3647 176.729 84.2914C177.158 84.227 178.235 84.1004 178.554 84.0767C179.009 84.0429 181.533 84.0585 182.114 84.0987Z" fill="black"></path><path fill-rule="evenodd" clip-rule="evenodd" d="M178.728 73.2516C178.715 73.2638 178.383 73.2872 177.992 73.3037C177.601 73.3201 177.265 73.3427 177.245 73.3539C177.226 73.3651 177.01 73.3896 176.765 73.4084C176.52 73.4271 176.305 73.4519 176.286 73.4636C176.267 73.4753 176.098 73.4987 175.909 73.5156C174.948 73.6019 173.477 73.9365 172.629 74.262C172.438 74.3355 172.241 74.4079 172.192 74.423C171.988 74.4853 171.969 74.6356 171.935 76.5136C171.899 78.5271 171.892 78.4788 172.24 78.5215C172.354 78.5356 172.569 78.5029 172.779 78.4393C173.551 78.2055 173.86 78.1195 174.672 77.9135C175.706 77.6513 176.849 77.4053 177.484 77.3083C178.573 77.1417 181.051 77.1736 181.558 77.3606C181.659 77.3975 181.906 77.4655 182.11 77.5116C182.534 77.6082 182.87 77.7679 183.24 78.0478C183.51 78.2527 183.675 78.5557 183.81 79.0897C183.898 79.4379 183.904 79.4822 183.939 80.0109L183.972 80.5067L183.529 80.47C181.77 80.3248 179.771 80.2663 178.902 80.3347L177.509 80.4444C176.103 80.5553 174.36 80.9203 173.49 81.2865C172.346 81.7677 171.244 82.6521 170.929 83.3422C170.281 84.7609 170.146 86.5761 170.559 88.2698C170.718 88.9167 170.852 89.2822 171.072 89.6602C171.148 89.7921 171.21 89.9217 171.21 89.9481C171.21 90.0923 172.378 91.1285 172.954 91.4956C173.104 91.5914 173.234 91.687 173.243 91.7082C173.252 91.7293 173.29 91.7466 173.326 91.7466C173.362 91.7466 173.545 91.8158 173.732 91.9004C173.92 91.9849 174.253 92.1068 174.472 92.1711C174.691 92.2354 174.97 92.322 175.094 92.3635C175.217 92.4051 175.687 92.5026 176.14 92.5802C176.959 92.721 176.967 92.7213 179.251 92.7217C181.558 92.7221 182.168 92.6888 182.985 92.5179C184.124 92.2795 184.645 92.1371 185.076 91.9456C185.981 91.5444 186.211 91.4073 186.665 90.9971C186.955 90.7362 187.351 90.3253 187.48 90.1534C187.718 89.8346 188.235 88.7585 188.337 88.3698C188.394 88.1497 188.461 87.9323 188.486 87.8867C188.589 87.7 188.764 86.4403 188.817 85.5183C188.856 84.8265 188.852 82.2048 188.81 81.4662C188.76 80.5743 188.645 79.6906 188.51 79.165C188.263 78.2015 188.125 77.8087 187.804 77.1658C186.996 75.547 185.322 74.2135 183.384 73.6455C183.063 73.5515 182.415 73.4289 181.865 73.3582C181.742 73.3423 181.585 73.3188 181.517 73.3059C181.348 73.2741 178.758 73.2238 178.728 73.2516ZM201.208 73.5432C200.482 73.5802 200.307 73.6005 199.49 73.7414C198.744 73.8702 198.274 74.0005 197.751 74.2239C197.38 74.382 197.216 74.4691 196.724 74.772C196.671 74.8048 196.489 74.9141 196.321 75.015C195.964 75.2298 195.298 75.9037 194.863 76.4923C194.519 76.9578 193.914 78.1523 193.914 78.3665C193.914 78.4094 193.882 78.5064 193.843 78.5821C193.699 78.8618 193.417 80.1854 193.313 81.0632C193.22 81.8555 193.21 82.1522 193.23 83.5896C193.26 85.7123 193.359 86.3523 193.925 88.0853C194.137 88.7357 194.412 89.2339 194.943 89.9324C195.3 90.4028 196.019 91.1157 196.304 91.282C196.427 91.3539 196.539 91.426 196.553 91.4421C196.599 91.497 196.776 91.595 197.225 91.815C197.706 92.051 197.983 92.151 198.554 92.2949C198.754 92.3453 199.041 92.4207 199.191 92.4624C200.031 92.6952 201.295 92.7849 203.523 92.7702C204.994 92.7605 205.33 92.7439 205.863 92.6548C206.952 92.4728 208.105 92.1332 208.751 91.8038C209.239 91.5547 209.472 91.4226 209.523 91.3651C209.55 91.3342 209.763 91.1529 209.996 90.9624C210.523 90.531 210.742 90.3217 210.742 90.2508C210.742 90.2205 210.761 90.1958 210.785 90.1958C210.827 90.1958 211.31 89.5015 211.313 89.4369C211.314 89.4185 211.36 89.351 211.415 89.2868C211.47 89.2227 211.561 89.0915 211.617 88.9952C211.744 88.777 212.087 87.9305 212.087 87.8351C212.087 87.7963 212.107 87.7431 212.131 87.717C212.261 87.5776 212.576 85.891 212.689 84.7302C212.743 84.1653 212.728 81.5743 212.669 81.2911C212.654 81.2223 212.628 81.0197 212.611 80.8409C212.481 79.5057 212.076 78.0911 211.604 77.3275C211.541 77.2248 211.489 77.1251 211.489 77.1058C211.489 77.0865 211.37 76.9116 211.225 76.7171C211.08 76.5226 210.895 76.2734 210.815 76.1634C210.734 76.0533 210.537 75.8395 210.376 75.6881C210.091 75.4204 209.482 74.9377 209.429 74.9377C209.414 74.9377 209.302 74.8691 209.178 74.7853C208.834 74.5522 208.08 74.2085 207.493 74.0171C206.972 73.8477 206.123 73.6903 205.141 73.5813C204.569 73.5178 202.164 73.4945 201.208 73.5432ZM223.979 73.5601C223.969 73.5699 223.782 73.5921 223.563 73.6095C223.344 73.6269 223.019 73.6621 222.841 73.6878C222.663 73.7134 222.428 73.7469 222.32 73.7623C221.859 73.8271 220.938 74.1155 220.526 74.3242C220.084 74.548 219.254 75.1517 219.003 75.432C218.751 75.713 218.219 76.7266 218.119 77.1139C218.014 77.5237 217.904 78.2218 217.864 78.7353C217.811 79.4086 217.823 92.3749 217.877 92.4289C217.928 92.4796 222.321 92.4854 222.371 92.435C222.392 92.4146 222.425 89.488 222.445 85.9315C222.464 82.375 222.496 79.3863 222.514 79.29C222.586 78.9003 222.757 78.4127 222.875 78.2567C223.039 78.0414 223.406 77.778 223.688 77.6745C224.262 77.4634 224.901 77.3979 226.152 77.4218C227.671 77.4508 228.075 77.5365 228.55 77.9303C229.002 78.3047 229.136 78.6064 229.198 79.3901C229.223 79.7065 229.249 82.7006 229.255 86.0436C229.262 89.3866 229.279 92.1929 229.294 92.2798C229.32 92.4259 229.34 92.4394 229.554 92.4605C229.941 92.4986 233.783 92.4748 233.824 92.4341C233.845 92.4132 233.868 89.5204 233.876 86.0057C233.884 82.4909 233.901 79.4898 233.915 79.3366C233.929 79.1833 233.977 78.9244 234.021 78.7613C234.066 78.5981 234.114 78.4147 234.128 78.3536C234.17 78.1697 234.608 77.7705 234.873 77.6753C235.666 77.3892 237.706 77.319 238.916 77.5362C239.634 77.6653 240.233 78.0805 240.381 78.5527C240.624 79.3292 240.631 79.5074 240.662 86.152C240.677 89.5822 240.708 92.4068 240.73 92.4289C240.795 92.494 244.947 92.5159 245.111 92.452L245.251 92.3975L245.228 85.7062C245.216 82.026 245.192 78.8911 245.175 78.7397C245.034 77.4625 244.893 76.9278 244.524 76.2628C244.198 75.6771 243.724 75.1774 243.124 74.7866C241.601 73.7953 240.27 73.5122 237.329 73.5539C236.494 73.5658 235.732 73.5883 235.636 73.604C235.54 73.6196 235.35 73.6441 235.213 73.6584C234.619 73.7203 233.873 73.8771 233.22 74.0777C233.137 74.1032 232.834 74.2423 232.548 74.3869C232.065 74.6306 231.999 74.6502 231.653 74.6552C231.304 74.6602 231.248 74.6451 230.782 74.419C230.012 74.0455 229.475 73.8838 228.492 73.7304C227.355 73.5531 227.105 73.5367 225.572 73.5394C224.706 73.5409 223.989 73.5502 223.979 73.5601ZM149.651 73.794C149.462 73.8329 149.311 73.9704 149.18 74.2221C149.125 74.3268 149.067 74.4237 149.051 74.4375C149.034 74.4512 148.944 74.575 148.85 74.7126C148.756 74.8502 148.634 75.0166 148.581 75.0825C148.526 75.1482 148.393 75.3106 148.283 75.4432C147.995 75.792 147.892 75.9367 147.76 76.1759C147.695 76.2928 147.624 76.3885 147.601 76.3885C147.579 76.3885 147.561 76.4173 147.561 76.4525C147.561 76.4877 147.516 76.5489 147.461 76.5886C147.407 76.6283 147.362 76.6871 147.362 76.7194C147.362 76.7516 147.328 76.791 147.287 76.8068C147.246 76.8226 147.213 76.8682 147.213 76.908C147.213 76.9479 147.196 76.988 147.175 76.9972C147.099 77.0312 146.217 78.1481 146.217 78.2107C146.217 78.2265 146.177 78.2829 146.13 78.3359C146.082 78.3887 146.036 78.4429 145.991 78.4985C145.678 78.9048 145.416 79.2574 145.275 79.4641C145.074 79.7576 144.76 80.0777 144.738 80.0114C144.73 79.9861 144.542 79.7178 144.322 79.4151C143.863 78.7828 143.536 78.3269 143.429 78.1673C143.387 78.1063 143.262 77.9456 143.15 77.8102C143.038 77.6749 142.837 77.3953 142.703 77.1889C142.57 76.9826 142.436 76.7912 142.405 76.7637C142.375 76.7362 142.173 76.466 141.958 76.1634C141.742 75.8607 141.451 75.4668 141.31 75.2879C141.17 75.1091 140.979 74.8502 140.887 74.7126C140.795 74.575 140.691 74.4327 140.655 74.3962C140.533 74.2714 140.287 73.8872 140.327 73.8837C140.349 73.8817 140.322 73.8608 140.267 73.8371C140.212 73.8135 138.956 73.7926 137.476 73.7906C135.338 73.7878 134.766 73.8005 134.696 73.8523C134.617 73.9102 134.614 73.9425 134.666 74.1395C134.737 74.4021 134.787 74.4781 135.418 75.2629C135.684 75.5931 135.998 75.9907 136.117 76.1466C136.236 76.3024 136.513 76.6545 136.732 76.929C136.951 77.2035 137.175 77.4908 137.23 77.5674C137.285 77.644 137.364 77.7421 137.407 77.7855C137.559 77.9398 137.995 78.4701 138.258 78.8203C138.404 79.0159 138.711 79.3986 138.939 79.6708C139.434 80.2618 139.439 80.2683 139.593 80.4907C139.66 80.587 139.727 80.677 139.742 80.6908C139.757 80.7045 139.836 80.8058 139.917 80.9159C139.998 81.0259 140.087 81.141 140.116 81.1716C140.144 81.2021 140.233 81.3111 140.313 81.4136C140.394 81.5161 140.525 81.6711 140.607 81.7582C140.688 81.8452 140.846 82.0402 140.959 82.1916C141.071 82.3429 141.174 82.478 141.189 82.4917C141.203 82.5055 141.332 82.6594 141.475 82.8336C141.698 83.1056 141.727 83.1627 141.674 83.2364C141.375 83.6483 140.999 84.1226 140.811 84.3242C140.686 84.4582 140.546 84.6241 140.5 84.6929C140.454 84.7616 140.38 84.8629 140.334 84.918C140.038 85.2808 139.794 85.5954 139.794 85.6154C139.794 85.6283 139.743 85.6914 139.682 85.7555C139.557 85.8859 139.207 86.309 139.106 86.453C139.069 86.5044 138.963 86.6304 138.87 86.7328C138.776 86.8352 138.699 86.9376 138.699 86.9601C138.699 86.9828 138.671 87.0294 138.637 87.0639C138.602 87.0983 138.507 87.2132 138.425 87.3191C138.212 87.593 137.99 87.8572 137.899 87.9446C137.856 87.9859 137.702 88.1772 137.558 88.3698C137.276 88.7448 136.994 89.091 136.829 89.2639C136.773 89.3226 136.712 89.41 136.694 89.4581C136.675 89.5061 136.638 89.5455 136.609 89.5455C136.581 89.5455 136.558 89.5792 136.558 89.6205C136.558 89.6618 136.54 89.6955 136.519 89.6955C136.497 89.6955 136.439 89.7637 136.391 89.8469C136.342 89.9302 136.253 90.0516 136.193 90.1167C136.134 90.1818 136.019 90.3183 135.939 90.4199C135.859 90.5216 135.735 90.6698 135.665 90.7494C135.594 90.8289 135.448 91.0212 135.338 91.1767C135.229 91.3322 135.088 91.5138 135.027 91.5803C134.965 91.6468 134.915 91.7226 134.915 91.7489C134.915 91.7751 134.897 91.7966 134.876 91.7966C134.802 91.7966 134.666 92.0871 134.666 92.2437C134.666 92.3593 134.695 92.4119 134.778 92.4452C134.84 92.4702 136.075 92.4862 137.57 92.4811C140.18 92.4723 140.252 92.4694 140.322 92.3727C140.362 92.3182 140.498 92.1566 140.625 92.0137C140.752 91.8708 140.924 91.6544 141.009 91.5328C141.153 91.3267 141.523 90.8277 141.666 90.6493C141.7 90.6062 141.837 90.4359 141.972 90.2708C142.106 90.1057 142.369 89.7568 142.557 89.4954C142.745 89.234 142.927 88.9977 142.962 88.9701C143.017 88.9262 143.141 88.7724 143.405 88.4199C143.776 87.9255 144.051 87.5652 144.075 87.5444C144.091 87.5306 144.229 87.3393 144.382 87.1192C144.69 86.675 144.978 86.3438 145.054 86.3438C145.082 86.3438 145.179 86.4593 145.27 86.6005C145.361 86.7417 145.568 87.0247 145.73 87.2293C145.892 87.4338 146.171 87.8192 146.352 88.0856C146.684 88.5761 146.84 88.7889 147.002 88.9701C147.134 89.1184 147.511 89.6367 147.511 89.6705C147.511 89.6866 147.606 89.8283 147.722 89.9853C147.838 90.1424 147.98 90.3389 148.037 90.4222C148.094 90.5054 148.176 90.618 148.221 90.6723C148.424 90.9211 148.642 91.2056 148.756 91.3714C148.824 91.471 148.904 91.5793 148.933 91.612C149.045 91.7403 149.304 92.1425 149.304 92.1889C149.304 92.2159 149.372 92.2963 149.456 92.3675L149.61 92.497L152.232 92.4963C153.675 92.496 154.903 92.4827 154.962 92.4667C155.045 92.4444 155.074 92.3915 155.089 92.2354C155.1 92.1127 155.083 92.0075 155.044 91.9684C155.008 91.9329 154.98 91.892 154.98 91.8777C154.98 91.8633 154.906 91.7772 154.816 91.6865C154.727 91.5957 154.621 91.4559 154.58 91.3758C154.539 91.2956 154.36 91.0592 154.181 90.8505C154.003 90.6417 153.79 90.3809 153.708 90.2708C153.395 89.8467 152.816 89.1195 152.778 89.1036C152.756 89.0944 152.739 89.0585 152.739 89.0238C152.739 88.9891 152.692 88.9178 152.634 88.8653C152.576 88.8129 152.401 88.6012 152.245 88.3948C151.793 87.7991 151.519 87.4468 151.197 87.0441C151 86.7963 150.805 86.5462 150.614 86.2937C150.458 86.0874 150.317 85.9073 150.3 85.8935C150.262 85.862 149.694 85.1122 149.627 85.0042C149.6 84.96 149.529 84.8732 149.47 84.8112C149.333 84.666 148.905 84.1083 148.905 84.0736C148.905 84.0591 148.855 83.9926 148.793 83.926C148.395 83.4953 148.109 83.0824 148.109 82.9384C148.109 82.8817 148.162 82.8155 148.233 82.7828C148.301 82.7515 148.358 82.7067 148.358 82.6835C148.358 82.6602 148.413 82.5927 148.481 82.5336C148.548 82.4745 148.665 82.3339 148.741 82.2213C148.943 81.9202 149.191 81.6049 149.492 81.2661C149.811 80.9085 149.834 80.8804 150.054 80.5907C150.148 80.4669 150.239 80.3543 150.257 80.3406C150.275 80.3268 150.389 80.1805 150.51 80.0154C150.631 79.8503 150.818 79.6113 150.925 79.4842C151.142 79.2278 151.17 79.1939 151.507 78.7648C151.637 78.5997 151.773 78.4308 151.81 78.3896C151.846 78.3483 151.997 78.1569 152.145 77.9643C152.292 77.7717 152.532 77.4678 152.679 77.289C152.826 77.1101 152.981 76.9188 153.024 76.8637C153.067 76.8087 153.195 76.6589 153.307 76.5308C153.419 76.4028 153.533 76.2677 153.561 76.2306C153.588 76.1936 153.677 76.0733 153.758 75.9632C153.923 75.739 154.32 75.2588 154.7 74.8225C154.964 74.5199 155.121 74.2078 155.126 73.977C155.128 73.8625 155.104 73.8374 154.967 73.8141C154.734 73.7745 149.835 73.756 149.651 73.794ZM160.26 73.8825C160.195 74.004 160.209 92.3651 160.273 92.4303C160.328 92.4848 164.766 92.4848 164.821 92.4303C164.87 92.3811 164.862 73.8952 164.813 73.8459C164.795 73.8273 163.775 73.8054 162.546 73.7972C160.356 73.7826 160.312 73.7843 160.26 73.8825ZM251.623 73.8324C251.509 73.8524 251.445 73.895 251.429 73.9622C251.416 74.0172 251.403 78.1642 251.4 83.1778C251.395 91.585 251.401 92.2998 251.477 92.3759C251.549 92.4486 251.781 92.4614 253.443 92.4849C254.48 92.4994 255.479 92.4951 255.664 92.4752L256 92.439V73.8509L255.721 73.8179C255.382 73.778 251.862 73.7904 251.623 73.8324ZM204.131 77.3923C205.563 77.5415 206.506 77.9176 207.113 78.5824C207.842 79.3817 208.042 80.1182 208.104 82.2416C208.183 84.9309 208.017 86.4423 207.561 87.1942C207.272 87.671 206.567 88.2748 205.988 88.5422C205.163 88.9229 204.545 89.0202 202.95 89.0202C201.696 89.0202 201.345 88.9814 200.518 88.7513C199.87 88.5709 199.276 88.2316 198.843 87.7953C198.582 87.5309 198.244 86.9039 198.116 86.4438C197.892 85.644 197.747 84.4743 197.749 83.4866C197.753 81.3089 197.94 80.108 198.413 79.2316C198.627 78.8346 199.139 78.2363 199.372 78.11C199.642 77.9635 200.04 77.7616 200.187 77.6958C200.349 77.6238 201.13 77.4394 201.482 77.3903C201.903 77.3315 203.558 77.3327 204.131 77.3923ZM182.114 84.0987C182.429 84.1204 182.742 84.1506 182.811 84.1656C182.879 84.1806 183.126 84.2064 183.359 84.223C183.591 84.2396 183.827 84.2605 183.882 84.2693C183.936 84.2781 183.998 84.2869 184.019 84.289C184.067 84.2936 184.02 85.6959 183.949 86.3865C183.893 86.9292 183.725 87.5478 183.561 87.8137C183.348 88.1598 182.739 88.5887 182.352 88.6648C182.289 88.6771 182.137 88.7244 182.015 88.7699C181.595 88.9249 180.644 88.9883 178.977 88.9722C178.115 88.9639 177.319 88.9423 177.21 88.9241C176.583 88.8203 175.962 88.6246 175.615 88.4209C175.373 88.2792 174.986 87.7976 174.821 87.4335C174.605 86.9581 174.549 85.9273 174.722 85.59C174.796 85.4435 175.088 85.056 175.272 84.8601C175.446 84.6744 176.239 84.3647 176.729 84.2914C177.158 84.227 178.235 84.1004 178.554 84.0767C179.009 84.0429 181.533 84.0585 182.114 84.0987Z" fill="#89898A"></path><path fill-rule="evenodd" clip-rule="evenodd" d="M96.3261 57.0451C96.314 57.0557 95.8 57.0787 95.1839 57.096C91.2443 57.2071 87.1199 57.8495 84.5292 58.7554C81.9668 59.6514 79.9545 60.9041 78.2544 62.6617C77.1994 63.7521 76.424 64.8443 75.7266 66.222C74.6019 68.4436 74.0336 70.6677 73.5059 74.9127C73.1283 77.95 73.0001 80.1481 73.0082 83.4422C73.0179 87.3891 73.342 91.0028 74.0286 94.8232C74.5505 97.7267 75.5578 100.045 77.2258 102.183C77.7569 102.863 77.8042 102.917 78.3951 103.522C80.5077 105.685 83.031 107.13 85.9979 107.874C87.5074 108.253 89.8251 108.595 91.9476 108.753C93.9881 108.904 96.7869 108.981 100.287 108.981C107.328 108.981 111.75 108.25 115.273 106.505C116.826 105.736 118.042 104.859 119.287 103.608C121.089 101.797 122.211 99.9403 123.067 97.3496C124.022 94.4616 124.429 91.9135 124.539 88.1447C124.557 87.5256 124.578 87.0068 124.587 86.9918C124.616 86.9384 124.684 83.493 124.684 82.0164C124.684 78.6942 124.534 76.2305 124.184 73.8007C123.733 70.6641 123.156 68.5757 122.196 66.6083C121.371 64.9195 120.475 63.6737 119.167 62.3993C117.989 61.2513 116.704 60.355 115.124 59.5788C112.435 58.2582 109.515 57.5513 105.839 57.331C104.285 57.238 104.137 57.2304 102.901 57.1797C102.23 57.1522 101.446 57.1175 101.158 57.1027C100.496 57.0685 96.3555 57.0192 96.3261 57.0451ZM100.966 73.3637C102.251 73.577 103.356 74.1753 104.283 75.1591C104.908 75.822 105.313 76.4999 105.586 77.339C105.844 78.1286 105.839 77.9426 105.839 86.0501C105.839 93.5309 105.838 93.5985 105.739 93.6976C105.642 93.7947 105.573 93.7977 103.38 93.7977C101.3 93.7977 101.111 93.7907 101.015 93.7101L100.91 93.6226L100.896 86.919C100.882 80.6243 100.876 80.1972 100.792 79.9153C100.461 78.8109 99.596 77.9523 98.5197 77.6597C98.2218 77.5787 97.7999 77.5712 93.2172 77.5653C90.4789 77.5617 88.1799 77.578 88.1084 77.6015C88.0368 77.6249 87.9528 77.7003 87.9216 77.769C87.8801 77.8607 87.865 79.9837 87.865 85.7458C87.865 93.5309 87.8641 93.5984 87.7654 93.6976C87.6688 93.7947 87.5995 93.7977 85.4116 93.7977C83.4518 93.7977 83.1428 93.7875 83.0466 93.7198L82.9359 93.6419V83.5644C82.9359 73.5444 82.9365 73.4864 83.0358 73.3866C83.135 73.2869 83.1921 73.2863 91.8359 73.2893C99.1308 73.2918 100.606 73.3038 100.966 73.3637ZM114.628 73.4096L114.751 73.5324V93.534L114.647 93.6659L114.544 93.7977H109.978L109.875 93.6659L109.772 93.534V73.5324L109.894 73.4096L110.016 73.2868H114.506L114.628 73.4096ZM96.8852 81.2738C96.9725 81.3531 96.9762 81.6112 96.9762 87.4771C96.9762 93.5309 96.9751 93.5987 96.8767 93.6976C96.7799 93.7949 96.7107 93.7977 94.3872 93.7977C92.0638 93.7977 91.9946 93.7949 91.8978 93.6976C91.7994 93.5987 91.7983 93.5309 91.7983 87.4943C91.7983 81.4578 91.7994 81.39 91.8978 81.2911C91.9947 81.1938 92.0638 81.191 94.3958 81.191C96.5576 81.191 96.8031 81.1992 96.8852 81.2738Z" fill="black"></path><path fill-rule="evenodd" clip-rule="evenodd" d="M96.3261 57.0451C96.314 57.0557 95.8 57.0787 95.1839 57.096C91.2443 57.2071 87.1199 57.8495 84.5292 58.7554C81.9668 59.6514 79.9545 60.9041 78.2544 62.6617C77.1994 63.7521 76.424 64.8443 75.7266 66.222C74.6019 68.4436 74.0336 70.6677 73.5059 74.9127C73.1283 77.95 73.0001 80.1481 73.0082 83.4422C73.0179 87.3891 73.342 91.0028 74.0286 94.8232C74.5505 97.7267 75.5578 100.045 77.2258 102.183C77.7569 102.863 77.8042 102.917 78.3951 103.522C80.5077 105.685 83.031 107.13 85.9979 107.874C87.5074 108.253 89.8251 108.595 91.9476 108.753C93.9881 108.904 96.7869 108.981 100.287 108.981C107.328 108.981 111.75 108.25 115.273 106.505C116.826 105.736 118.042 104.859 119.287 103.608C121.089 101.797 122.211 99.9403 123.067 97.3496C124.022 94.4616 124.429 91.9135 124.539 88.1447C124.557 87.5256 124.578 87.0068 124.587 86.9918C124.616 86.9384 124.684 83.493 124.684 82.0164C124.684 78.6942 124.534 76.2305 124.184 73.8007C123.733 70.6641 123.156 68.5757 122.196 66.6083C121.371 64.9195 120.475 63.6737 119.167 62.3993C117.989 61.2513 116.704 60.355 115.124 59.5788C112.435 58.2582 109.515 57.5513 105.839 57.331C104.285 57.238 104.137 57.2304 102.901 57.1797C102.23 57.1522 101.446 57.1175 101.158 57.1027C100.496 57.0685 96.3555 57.0192 96.3261 57.0451ZM100.966 73.3637C102.251 73.577 103.356 74.1753 104.283 75.1591C104.908 75.822 105.313 76.4999 105.586 77.339C105.844 78.1286 105.839 77.9426 105.839 86.0501C105.839 93.5309 105.838 93.5985 105.739 93.6976C105.642 93.7947 105.573 93.7977 103.38 93.7977C101.3 93.7977 101.111 93.7907 101.015 93.7101L100.91 93.6226L100.896 86.919C100.882 80.6243 100.876 80.1972 100.792 79.9153C100.461 78.8109 99.596 77.9523 98.5197 77.6597C98.2218 77.5787 97.7999 77.5712 93.2172 77.5653C90.4789 77.5617 88.1799 77.578 88.1084 77.6015C88.0368 77.6249 87.9528 77.7003 87.9216 77.769C87.8801 77.8607 87.865 79.9837 87.865 85.7458C87.865 93.5309 87.8641 93.5984 87.7654 93.6976C87.6688 93.7947 87.5995 93.7977 85.4116 93.7977C83.4518 93.7977 83.1428 93.7875 83.0466 93.7198L82.9359 93.6419V83.5644C82.9359 73.5444 82.9365 73.4864 83.0358 73.3866C83.135 73.2869 83.1921 73.2863 91.8359 73.2893C99.1308 73.2918 100.606 73.3038 100.966 73.3637ZM114.628 73.4096L114.751 73.5324V93.534L114.647 93.6659L114.544 93.7977H109.978L109.875 93.6659L109.772 93.534V73.5324L109.894 73.4096L110.016 73.2868H114.506L114.628 73.4096ZM96.8852 81.2738C96.9725 81.3531 96.9762 81.6112 96.9762 87.4771C96.9762 93.5309 96.9751 93.5987 96.8767 93.6976C96.7799 93.7949 96.7107 93.7977 94.3872 93.7977C92.0638 93.7977 91.9946 93.7949 91.8978 93.6976C91.7994 93.5987 91.7983 93.5309 91.7983 87.4943C91.7983 81.4578 91.7994 81.39 91.8978 81.2911C91.9947 81.1938 92.0638 81.191 94.3958 81.191C96.5576 81.191 96.8031 81.1992 96.8852 81.2738Z" fill="#FF6200"></path><path d="M114.397 73.1464H110.085C109.9 73.1464 109.751 73.2997 109.751 73.4887V94.0343C109.751 94.2216 109.9 94.3749 110.085 94.3749H114.397C114.58 94.3749 114.731 94.2216 114.731 94.0343V73.4887C114.731 73.2997 114.58 73.1464 114.397 73.1464ZM99.6738 73.1464H83.2491C83.0644 73.1464 82.916 73.2997 82.916 73.4887V94.0343C82.916 94.2216 83.0644 94.3749 83.2491 94.3749H87.5621C87.7456 94.3749 87.8978 94.2216 87.8978 94.0343V77.909C87.8978 77.7228 88.0461 77.5684 88.2308 77.5684H97.5213C100.134 77.5684 100.875 79.658 100.875 81.006V94.0343C100.875 94.2216 101.025 94.3749 101.21 94.3749H105.521C105.704 94.3749 105.855 94.2216 105.855 94.0343V79.4592C105.855 78.2569 105.716 76.5282 104.231 75.0065C102.677 73.4181 101.259 73.1464 99.6738 73.1464Z" fill="white"></path><path d="M96.6533 81.1846H92.1253C91.9407 81.1846 91.7891 81.3379 91.7891 81.5258V94.0359C91.7891 94.2227 91.9407 94.376 92.1253 94.376H96.6533C96.8363 94.376 96.9864 94.2227 96.9864 94.0359V81.5258C96.9864 81.3379 96.8363 81.1846 96.6533 81.1846Z" fill="white"></path></g><defs><clipPath id="clip0_149_184"><rect width="183" height="52" fill="white" transform="translate(73 57)"></rect></clipPath></defs></svg> 